<svg xmlns="http://www.w3.org/2000/svg" xml:space="preserve" width="998.00555" height="200" viewBox="0 0 998.00555 200"><defs><clipPath id="a" clipPathUnits="userSpaceOnUse"><path d="M0 841.89h595.275V0H0Z"/></clipPath></defs><g clip-path="url(#a)" transform="matrix(4.70397 0 0 -4.70397 -511.528 1274.252)"><path d="M0 0c.155-.049.333-.049.562-.049.854 0 1.372.416 1.372 1.149 0 .732-.518 1.081-1.28 1.081-.31 0-.533-.026-.654-.051Zm-.71 2.643c.353.057.783.11 1.334.11.701 0 1.218-.179 1.517-.453.309-.277.489-.661.489-1.167 0-.484-.146-.87-.427-1.157-.361-.389-.96-.604-1.656-.604-.203 0-.386.01-.547.034v-2.178h-.71" style="fill:#575f62;fill-opacity:1;fill-rule:nonzero;stroke:none" transform="translate(200.76 232.944)"/><path d="M0 0c0-.406.006-.796.017-1.08H-.59l-.056.633h-.003a1.462 1.462 0 0 0-1.293-.737c-.607 0-1.333.343-1.333 1.719v2.319h.71V.687c0-.741.218-1.255.861-1.255.48 0 .808.312.928.65.043.093.073.23.073.349v2.423H0" style="fill:#575f62;fill-opacity:1;fill-rule:nonzero;stroke:none" transform="translate(207.65 231.252)"/><path d="M0 0c.282-.173.658-.286 1.112-.286.915 0 1.448.493 1.448 1.19 0 .588-.357.952-1.038 1.18-.489.2-.724.351-.724.677 0 .279.235.547.655.547.362 0 .634-.142.795-.233l.157.516c-.202.131-.538.239-.952.239-.818 0-1.331-.522-1.331-1.151 0-.464.313-.852 1.046-1.127.496-.168.702-.362.702-.703 0-.334-.24-.587-.751-.587C.779.262.4.394.176.536" style="fill:#575f62;fill-opacity:1;fill-rule:nonzero;stroke:none" transform="translate(208.751 230.355)"/><path d="M0 0c-.781.029-1.667-.128-1.667-.893 0-.476.31-.688.666-.688.516 0 .854.329.953.658A.79.79 0 0 1 0-.678Zm.67-1.078c0-.346.025-.663.054-.932H.102l-.06.489H0c-.2-.306-.623-.592-1.182-.592-.77 0-1.189.562-1.189 1.134 0 .966.839 1.46 2.35 1.46V.56c0 .335-.084.92-.878.92-.381 0-.768-.112-1.035-.296l-.156.476c.316.202.806.343 1.279.343C.377 2.003.67 1.184.67.407" style="fill:#575f62;fill-opacity:1;fill-rule:nonzero;stroke:none" transform="translate(214.477 232.182)"/><path d="M0 0h.704v2.372c0 .109.028.227.052.318.126.417.499.732.954.732.664 0 .896-.518.896-1.155V0h.703v2.336c0 1.352-.829 1.677-1.361 1.677-.655 0-1.091-.371-1.278-.726H.637l-.033.648h-.627C-.014 3.6 0 3.287 0 2.87" style="fill:#575f62;fill-opacity:1;fill-rule:nonzero;stroke:none" transform="translate(216.498 230.172)"/><path d="M0 0v2.336C0 3.258 0 3.904-.035 4.6l.021.004C.248 4.013.62 3.397.994 2.772L2.703 0h.733v5.475h-.663V3.167c0-.831.011-1.498.077-2.235l-.035-.02A11.192 11.192 0 0 1 1.84 2.69L.115 5.475h-.767V0" style="fill:#575f62;fill-opacity:1;fill-rule:nonzero;stroke:none" transform="translate(223.754 230.172)"/><path d="M0 0c-.764.029-1.658-.128-1.658-.893 0-.476.318-.688.68-.688.51 0 .829.329.95.658C0-.83 0-.755 0-.678Zm.696-1.078c0-.346.008-.663.05-.932H.112l-.048.489H.042c-.218-.306-.657-.592-1.212-.592-.771 0-1.187.562-1.187 1.134 0 .966.849 1.46 2.342 1.46V.56c0 .335-.082.92-.886.92-.368 0-.757-.112-1.018-.296l-.155.476c.311.202.792.343 1.278.343C.403 2.003.696 1.184.696.407" style="fill:#575f62;fill-opacity:1;fill-rule:nonzero;stroke:none" transform="translate(230.623 232.182)"/><path d="M0 0v-.945h1.005v-.537H0v-2.136c0-.479.134-.75.537-.75.193 0 .313 0 .401.035l.055-.547a2.13 2.13 0 0 0-.634-.103c-.346 0-.607.113-.787.315-.179.217-.256.571-.256 1.029v2.157h-.61v.537h.61v.733" style="fill:#575f62;fill-opacity:1;fill-rule:nonzero;stroke:none" transform="translate(233.477 235.052)"/><path d="M235.496 234.106h.699v-3.935h-.699zm.779 1.099a.431.431 0 0 0-.452-.434.42.42 0 0 0-.423.434c0 .259.176.449.452.449.243 0 .423-.19.423-.449" style="fill:#575f62;fill-opacity:1;fill-rule:nonzero;stroke:none"/><path d="M0 0c0-.875.474-1.518 1.184-1.518.668 0 1.178.636 1.178 1.518 0 .679-.324 1.512-1.174 1.512C.363 1.512 0 .729 0 0m3.08.035c0-1.454-1.009-2.1-1.931-2.1-1.037 0-1.877.795-1.877 2.027 0 1.299.854 2.089 1.926 2.089 1.133 0 1.882-.82 1.882-2.016" style="fill:#575f62;fill-opacity:1;fill-rule:nonzero;stroke:none" transform="translate(238.023 232.134)"/><path d="M0 0h.719v2.372c0 .109.004.227.056.318.136.417.494.732.951.732.665 0 .898-.518.898-1.155V0h.707v2.336c0 1.352-.834 1.677-1.383 1.677-.642 0-1.091-.371-1.279-.726H.653l-.029.648h-.645C0 3.6 0 3.287 0 2.87" style="fill:#575f62;fill-opacity:1;fill-rule:nonzero;stroke:none" transform="translate(242.183 230.172)"/><path d="M0 0c-.772.029-1.636-.128-1.636-.893 0-.476.31-.688.649-.688.502 0 .862.329.964.658A.944.944 0 0 1 0-.678Zm.698-1.078c0-.346.009-.663.054-.932H.109l-.042.489H.045a1.494 1.494 0 0 0-1.21-.592c-.769 0-1.169.562-1.169 1.134 0 .966.831 1.46 2.327 1.46V.56c0 .335-.089.92-.889.92-.354 0-.74-.112-1.002-.296l-.168.476c.32.202.788.343 1.274.343 1.196 0 1.49-.819 1.49-1.596" style="fill:#575f62;fill-opacity:1;fill-rule:nonzero;stroke:none" transform="translate(248.91 232.182)"/><path d="M250.943 230.172h.716v5.775h-.716z" style="fill:#575f62;fill-opacity:1;fill-rule:nonzero;stroke:none"/><path d="M0 0v-3.24c0-1.233.537-1.763 1.272-1.763.797 0 1.32.56 1.32 1.763V0h.709v-3.208c0-1.69-.867-2.37-2.057-2.37-1.092 0-1.951.646-1.951 2.355V0" style="fill:#575f62;fill-opacity:1;fill-rule:nonzero;stroke:none" transform="translate(255.676 235.647)"/><path d="M0 0h.707v2.372c0 .109.026.227.051.318.127.417.481.732.944.732.686 0 .918-.518.918-1.155V0h.702v2.336c0 1.352-.845 1.677-1.381 1.677a1.46 1.46 0 0 1-1.293-.726H.639l-.044.648h-.631C-.015 3.6 0 3.287 0 2.87" style="fill:#575f62;fill-opacity:1;fill-rule:nonzero;stroke:none" transform="translate(260.37 230.172)"/><path d="M265.04 234.106h.714v-3.935h-.714zm.781 1.099c0-.237-.161-.434-.45-.434-.257 0-.4.197-.4.434 0 .259.146.449.425.449.264 0 .425-.19.425-.449" style="fill:#575f62;fill-opacity:1;fill-rule:nonzero;stroke:none"/><path d="m0 0 .77-2.207c.112-.358.231-.696.307-1.023h.045c.066.327.178.665.326 1.023L2.188 0h.754L1.396-3.935H.719L-.761 0" style="fill:#575f62;fill-opacity:1;fill-rule:nonzero;stroke:none" transform="translate(267.402 234.106)"/><path d="M0 0c0 .438-.2 1.15-.986 1.15-.727 0-1.03-.686-1.094-1.15Zm-2.08-.525c.017-.974.623-1.375 1.334-1.375.49 0 .819.087 1.08.219l.124-.526c-.251-.118-.691-.256-1.3-.256-1.216 0-1.923.808-1.923 2.003 0 1.192.702 2.113 1.841 2.113C.334 1.653.688.529.688-.197c0-.123-.007-.255-.042-.328" style="fill:#575f62;fill-opacity:1;fill-rule:nonzero;stroke:none" transform="translate(273.598 232.531)"/><path d="M0 0c0 .477-.016.885-.027 1.244h.614l.03-.782h.022c.175.529.611.86 1.088.86.066 0 .14 0 .196-.009V.635c-.073.023-.16.023-.257.023C1.171.658.814.269.73-.269.708-.354.708-.479.708-.594V-2.69H0" style="fill:#575f62;fill-opacity:1;fill-rule:nonzero;stroke:none" transform="translate(275.36 232.862)"/><path d="M0 0c.271-.173.666-.286 1.104-.286.892 0 1.433.493 1.433 1.19 0 .588-.351.952-1.023 1.18-.51.2-.719.351-.719.677 0 .279.209.547.641.547.348 0 .647-.142.775-.233l.196.516a1.912 1.912 0 0 1-.956.239C.62 3.83.113 3.308.113 2.679c0-.464.329-.852 1.027-1.127.515-.168.732-.362.732-.703 0-.334-.251-.587-.764-.587C.75.262.379.394.16.536" style="fill:#575f62;fill-opacity:1;fill-rule:nonzero;stroke:none" transform="translate(277.925 230.355)"/><path d="M281.581 234.106h.702v-3.935h-.702zm.79 1.099a.428.428 0 0 0-.449-.434c-.257 0-.423.197-.423.434 0 .259.167.449.438.449.258 0 .434-.19.434-.449" style="fill:#575f62;fill-opacity:1;fill-rule:nonzero;stroke:none"/><path d="M0 0v-.945h1.03v-.537H0v-2.136c0-.479.154-.75.532-.75.197 0 .311 0 .409.035l.042-.547a2.004 2.004 0 0 0-.639-.103c-.314 0-.589.113-.757.315-.2.217-.276.571-.276 1.029v2.157h-.615v.537h.615v.733" style="fill:#575f62;fill-opacity:1;fill-rule:nonzero;stroke:none" transform="translate(284.508 235.052)"/><path d="m0 0 .851-2.327c.112-.268.192-.576.258-.802h.027c.078.226.158.534.244.802L2.164 0h.744L1.852-2.805C1.336-4.15.988-4.851.506-5.275a2.097 2.097 0 0 0-.864-.46l-.17.591c.17.061.398.173.617.353.2.158.417.431.584.812a.23.23 0 0 1 .056.164c0 .033 0 .092-.056.165L-.753 0" style="fill:#575f62;fill-opacity:1;fill-rule:nonzero;stroke:none" transform="translate(286.842 234.106)"/><path d="M0 0v-2.308h2.615V0h.723v-5.475h-.723v2.557H0v-2.557h-.71V0" style="fill:#575f62;fill-opacity:1;fill-rule:nonzero;stroke:none" transform="translate(293.231 235.647)"/><path d="M0 0c0-.875.479-1.518 1.168-1.518.673 0 1.186.636 1.186 1.518 0 .679-.327 1.512-1.173 1.512C.35 1.512 0 .729 0 0m3.067.035c0-1.454-1.008-2.1-1.925-2.1-1.052 0-1.871.795-1.871 2.027 0 1.299.863 2.089 1.928 2.089 1.115 0 1.868-.82 1.868-2.016" style="fill:#575f62;fill-opacity:1;fill-rule:nonzero;stroke:none" transform="translate(298.403 232.134)"/><path d="M0 0c.261-.173.682-.286 1.088-.286.913 0 1.457.493 1.457 1.19 0 .588-.354.952-1.026 1.18-.505.2-.728.351-.728.677 0 .279.223.547.652.547.363 0 .625-.142.794-.233l.158.516c-.204.131-.557.239-.952.239-.816 0-1.331-.522-1.331-1.151 0-.464.335-.852 1.045-1.127.503-.168.714-.362.714-.703 0-.334-.249-.587-.772-.587-.326 0-.711.132-.928.274" style="fill:#575f62;fill-opacity:1;fill-rule:nonzero;stroke:none" transform="translate(302.309 230.355)"/><path d="M0 0c0-.111.006-.205.021-.293.142-.498.562-.845 1.062-.845.755 0 1.188.621 1.188 1.538 0 .776-.399 1.448-1.171 1.448-.465 0-.921-.323-1.043-.888A.769.769 0 0 1 0 .67Zm-.696 1.05c0 .506-.031.916-.044 1.288h.642l.025-.677h.026c.281.48.755.755 1.374.755.97 0 1.65-.796 1.65-1.974 0-1.435-.863-2.142-1.761-2.142-.508 0-.97.227-1.21.615H0v-2.129h-.696" style="fill:#575f62;fill-opacity:1;fill-rule:nonzero;stroke:none" transform="translate(306.67 231.769)"/><path d="M310.741 234.106h.723v-3.935h-.723zm.801 1.099c0-.237-.166-.434-.451-.434-.282 0-.426.197-.426.434 0 .259.172.449.43.449.272 0 .447-.19.447-.449" style="fill:#575f62;fill-opacity:1;fill-rule:nonzero;stroke:none"/><path d="M0 0v-.945h1.04v-.537H0v-2.136c0-.479.138-.75.541-.75.206 0 .321 0 .414.035l.041-.547a2.034 2.034 0 0 0-.638-.103c-.333 0-.591.113-.742.315-.217.217-.29.571-.29 1.029v2.157h-.625v.537h.625v.733" style="fill:#575f62;fill-opacity:1;fill-rule:nonzero;stroke:none" transform="translate(313.673 235.052)"/><path d="M0 0c-.754.029-1.651-.128-1.651-.893 0-.476.299-.688.677-.688a1 1 0 0 1 .964.658C0-.83 0-.755 0-.678Zm.689-1.078c0-.346.018-.663.058-.932H.121l-.059.489H.028a1.44 1.44 0 0 0-1.178-.592c-.79 0-1.209.562-1.209 1.134 0 .966.854 1.46 2.359 1.46V.56c0 .335-.099.92-.896.92-.35 0-.755-.112-1.013-.296l-.172.476c.321.202.799.343 1.291.343C.419 2.003.689 1.184.689.407" style="fill:#575f62;fill-opacity:1;fill-rule:nonzero;stroke:none" transform="translate(317.741 232.182)"/><path d="M319.792 230.172h.693v5.775h-.693z" style="fill:#575f62;fill-opacity:1;fill-rule:nonzero;stroke:none"/><path d="M0 0v6.713h-12.527V4.911h10.294V0Zm-2.233 18.095V7.68H0v4.465h2.54v1.965H0v3.985zm-11.909-5.913c0-.603.147-1.189.391-1.715.262-.551.605-1.008 1.061-1.366.431-.406.965-.686 1.522-.915a5.658 5.658 0 0 1 1.892-.308c.65 0 1.285.101 1.882.308.581.229 1.117.509 1.555.915.429.358.774.815 1.043 1.366.257.526.413 1.112.382 1.715-.08 2.117-1.628 2.902-1.628 2.902h1.903v1.758H-8.11v1.908h-2.25v-1.908h-4.202v-1.758h1.984c-1.564-1.062-1.564-2.902-1.564-2.902m5.921 2.511c.322-.146.617-.329.864-.548.233-.241.418-.515.555-.829.136-.304.197-.636.197-.978 0-.349-.061-.67-.197-.977a2.77 2.77 0 0 0-.555-.799 2.926 2.926 0 0 0-.864-.564 2.673 2.673 0 0 0-1.055-.227c-.391 0-.745.089-1.084.227-.343.131-.592.336-.812.564-.26.236-.435.5-.553.799a2.271 2.271 0 0 0-.215.977c0 .342.072.674.215.978.118.314.293.588.553.829.233.219.502.402.818.548a2.849 2.849 0 0 0 2.133 0" style="fill:#575f62;fill-opacity:1;fill-rule:nonzero;stroke:none" transform="translate(267 240.227)"/><path d="M0 0h2.188v-7.179h6.375v-1.824H-7.254v1.824h2.797V0h2.233v-7.179H0Zm-6.023 5.016v1.853H6.609V.237c0-1.064-.053-2.097-.214-3.05-.15-.958-.38-1.884-.646-2.75H3.565c.313.898.514 1.816.626 2.75.116.953.162 1.903.162 2.885v4.944" style="fill:#575f62;fill-opacity:1;fill-rule:nonzero;stroke:none" transform="translate(277.7 251.106)"/><path d="M202.364 253.893h7.909v-2.604h-7.909zm-.491-4.384h10.671v8.672h-2.271v-2.507h-7.909v2.507h-2.288v-7.1c.031-.496.304-1.572 1.797-1.572m-3.768-1.838v-1.822h7.097v-5.577h2.286v5.577h6.969v1.822" style="fill:#575f62;fill-opacity:1;fill-rule:nonzero;stroke:none"/><path d="M0 0v4.034h-2.249V-9.16H0v7.178h2.542V0Zm-9.423-7.731h-2.275v-4.799c.052-.513.344-1.485 1.769-1.485v-.009H.305v1.842h-9.728zm-.899 4.25c.369.441.664.893.899 1.36.226-.431.502-.842.857-1.256a6.19 6.19 0 0 1 1.099-1.101c.395-.351.81-.67 1.226-.946a6.442 6.442 0 0 1 1.251-.649l1.415 1.47a8.055 8.055 0 0 0-1.916.989 6.12 6.12 0 0 0-1.477 1.439c-.437.513-.758 1.148-1.001 1.831a6.719 6.719 0 0 0-.361 2.217v1.913h-2.315V1.873c0-.774-.126-1.53-.345-2.231a7.784 7.784 0 0 0-.956-1.913 7.848 7.848 0 0 0-1.539-1.576 8.306 8.306 0 0 0-1.991-1.157l1.362-1.422c.449.208.894.463 1.362.751.439.313.88.642 1.3 1.022.426.373.807.735 1.13 1.172" style="fill:#575f62;fill-opacity:1;fill-rule:nonzero;stroke:none" transform="translate(230.474 254.28)"/><path d="M0 0v-18.079h-2.122v10.404h-2.526v-10.396h-2.109v4.806c-.495-.069-1.031-.138-1.66-.24a14.874 14.874 0 0 0-1.624-.093h-2.973c-1.479 0-1.77 1.031-1.807 1.535V-.324h6.052v-1.858h-3.811v-9.621h2.818c.42 0 .894.016 1.464.071.544.056 1.046.131 1.541.204V0h2.109v-5.625h2.526V0" style="fill:#575f62;fill-opacity:1;fill-rule:nonzero;stroke:none" transform="translate(249.97 258.344)"/><path d="M0 0a2.609 2.609 0 0 0-.769-.732 4.987 4.987 0 0 0-1.246-.51 6.343 6.343 0 0 0-1.497-.167c-.535 0-1.028.052-1.489.167a4.162 4.162 0 0 0-1.164.51 1.865 1.865 0 0 0-.767.706 1.641 1.641 0 0 0-.275.937c0 .334.087.632.275.934.173.267.433.513.767.74.337.21.72.383 1.164.508.461.112.954.159 1.489.159.519 0 1.026-.047 1.497-.159a5.39 5.39 0 0 0 1.246-.508c.299-.227.575-.473.769-.74.192-.302.299-.6.299-.934C.299.588.192.279 0 0m2.123 2.641A4.737 4.737 0 0 1 .835 3.94c-.569.345-1.207.598-1.951.786a10.41 10.41 0 0 1-2.396.263 10.17 10.17 0 0 1-2.337-.263c-.727-.188-1.358-.441-1.919-.786-.559-.365-.996-.783-1.32-1.299a3.28 3.28 0 0 1-.467-1.73c0-.658.155-1.251.467-1.746.324-.522.761-.918 1.32-1.257a6.316 6.316 0 0 1 1.919-.811 10.17 10.17 0 0 1 2.337-.263c.855 0 1.656.088 2.396.263.744.171 1.382.46 1.951.811.526.339.947.735 1.288 1.257A3.23 3.23 0 0 1 2.605.911c0 .636-.169 1.214-.482 1.73m-7.754 4.962h-4.227v2.935h4.227zm2.251 3.941H.119V9.38H-3.38Zm0-3.98H.119V4.926h2.283v10.588H.119v-2.182H-3.38v1.965h-2.251v-2.941h-4.226v2.941h-2.246V7.313c.028-.508.329-1.512 1.767-1.539h6.956" style="fill:#575f62;fill-opacity:1;fill-rule:nonzero;stroke:none" transform="translate(300.438 242.83)"/><path d="M0 0h2.31v2.531h1.684c.565 0 1.194.03 1.842.061.634.065 1.237.136 1.78.247v1.737c-.445-.09-1.043-.142-1.714-.182a28.998 28.998 0 0 0-1.835-.069H-4.23V2.531H0Zm.723-4.024v3.409h-2.286v-3.733c.034-.5.323-1.485 1.739-1.515H11.09v1.839zm-1.03 14.276c.483.416 1.125.633 1.903.633.714 0 1.337-.217 1.829-.633.516-.401.736-.888.736-1.428 0-.517-.22-1-.736-1.395-.492-.403-1.115-.616-1.829-.616-.778 0-1.423.213-1.926.616-.492.395-.751.878-.751 1.395 0 .54.259 1.027.774 1.428m-1.518-4.113c.453-.35.951-.6 1.523-.779a6.846 6.846 0 0 1 1.898-.249c.633 0 1.258.077 1.829.249a4.892 4.892 0 0 1 1.542.779 3.37 3.37 0 0 1 1.017 1.159c.258.454.396.964.396 1.526 0 .572-.138 1.065-.396 1.535-.245.486-.59.897-1.017 1.252a5.908 5.908 0 0 1-1.542.779 6.252 6.252 0 0 1-1.829.265 6.701 6.701 0 0 1-1.898-.265 5.74 5.74 0 0 1-1.523-.779 3.755 3.755 0 0 1-1.053-1.252 3.193 3.193 0 0 1-.365-1.535c0-.562.118-1.072.365-1.526.248-.47.601-.843 1.053-1.159M4.719.021h3.953v-1.534h2.24v13.729h-2.24V1.688H4.719" style="fill:#575f62;fill-opacity:1;fill-rule:nonzero;stroke:none" transform="translate(309.816 246.128)"/><path d="M0 0Z" style="fill:#231f20;fill-opacity:1;fill-rule:nonzero;stroke:none" transform="translate(172.21 258.667)"/><path d="M0 0c-.419-1.38-1.553-1.797-3.004-1.797h-2.341l1.052 3.604h2.324C-.54 1.807.407 1.44 0 0m4.828 2.394C4.546 4.379 2.843 5.586-.669 5.586h-7.943l-4.732-16.237h5.426l1.463 5.039h2.546c3.49 0 5.88 1.118 7.31 3.088l-2.378-8.127h5.411l2.488 8.532 4.213-8.528v-.004h2.866c-2.072 1.253-2.545 3.641-1.476 7.191l.261.827-4.13 8.219H5.732" style="fill:#0074b7;fill-opacity:1;fill-rule:nonzero;stroke:none" transform="translate(122.088 253.086)"/><path d="M0 0h5.419L2.598-9.726c-.447-1.611-.52-2.973 1.711-2.973 1.966 0 2.889 1.216 3.421 2.973L10.545 0h5.428l-2.652-9.183c-1.962-6.536-4.134-7.471-10.17-7.471-5.137 0-7.43 1.9-5.809 7.504" style="fill:#0074b7;fill-opacity:1;fill-rule:nonzero;stroke:none" transform="translate(140.217 258.672)"/><path d="m0 0-3.493-12.222h-5.451l-1.569-5.486h-5.165l1.59 5.486h-5.426l3.128 10.837c.178.447.657 1.245 1.753 1.385" style="fill:#61b84c;fill-opacity:1;fill-rule:nonzero;stroke:none" transform="translate(175.704 270.889)"/><path d="m0 0 .013.058C.035.085.035.09.035.09l4.226 14.559h-16.3l-4.732-16.228h14.728C-.577-1.557-.099-.353 0 0" style="fill:#61b84c;fill-opacity:1;fill-rule:nonzero;stroke:none" transform="translate(184.25 244.018)"/><path d="m0 0 3.198 11.087h-5.43l1.828 6.281H-5.55l-1.818-6.281h-5.436l-3.654-12.609h14.387C-.637-1.51-.152-.384 0 0" style="fill:#61b84c;fill-opacity:1;fill-rule:nonzero;stroke:none" transform="translate(164.28 231.352)"/></g></svg>