<svg width="270" height="25" viewBox="0 0 270 25" fill="none" xmlns="http://www.w3.org/2000/svg">
<g filter="url(#filter0_ddi_1_4924)">
<mask id="path-1-inside-1_1_4924" fill="white">
<path d="M13.9401 1.63672V4.42578H11.8893V11.0703C12.7233 11.002 13.5436 10.9199 14.3229 10.8242L14.4596 13.3945C9.78383 14.1875 4.34242 14.2695 0.404922 14.2695L0.0494537 11.4531L2.7018 11.4258V4.42578H0.67836V1.63672H13.9401ZM21.0221 -0.00390625V15.1992H17.5495V11.4805H14.487V8.69141H17.5495V6.77734H14.487V4.04297H17.5495V-0.00390625H21.0221ZM12.5182 15.582C17.8776 15.6094 21.0768 17.2773 21.1041 20.2578C21.0768 23.1562 17.8776 24.8789 12.5182 24.8789C7.18617 24.8789 3.95961 23.1562 3.95961 20.2578C3.95961 17.2773 7.18617 15.6094 12.5182 15.582ZM12.5182 18.2617C9.18227 18.2617 7.43227 18.8906 7.43227 20.2578C7.43227 21.5703 9.18227 22.2266 12.5182 22.2266C15.8541 22.2266 17.6315 21.5703 17.6315 20.2578C17.6315 18.8906 15.8541 18.2617 12.5182 18.2617ZM6.06508 11.3438L8.55336 11.2617V4.42578H6.06508V11.3438ZM31.6457 4.42578C31.6457 7.10547 33.0402 9.78516 36.3488 11.043L34.4895 13.6953C32.3703 12.8887 30.9074 11.4121 30.0051 9.56641C29.1027 11.7266 27.5441 13.5312 25.2199 14.4883L23.3332 11.8086C26.8332 10.2773 28.2551 7.21484 28.2551 4.42578V1.5H31.6457V4.42578ZM45.0715 0.0234375V15.2266H41.7629V8.91016H39.6848V14.4609H36.4309V0.460938H39.6848V6.09375H41.7629V0.0234375H45.0715ZM36.5676 15.582C41.8176 15.582 45.1809 17.332 45.2082 20.2305C45.1809 23.1289 41.8176 24.8789 36.5676 24.8789C31.2902 24.8789 27.9543 23.1289 27.9543 20.2305C27.9543 17.332 31.2902 15.582 36.5676 15.582ZM36.5676 18.1797C33.3137 18.1797 31.427 18.8906 31.4543 20.2305C31.427 21.5703 33.3137 22.2539 36.5676 22.2539C39.7941 22.2539 41.6809 21.5703 41.6809 20.2305C41.6809 18.8906 39.7941 18.1797 36.5676 18.1797ZM67.0701 -0.00390625V7.13281H70.4334V10.0312H67.0701V18.125H63.5701V-0.00390625H67.0701ZM67.9724 21.6523V24.4414H50.9373V16.2109H54.4099V21.6523H67.9724ZM54.3279 1.60938C58.1287 1.60938 61.1091 4.23438 61.1091 7.92578C61.1091 11.5625 58.1287 14.2422 54.3279 14.2422C50.4998 14.2422 47.492 11.5625 47.492 7.92578C47.492 4.23438 50.4998 1.60938 54.3279 1.60938ZM54.3279 4.64453C52.4412 4.61719 50.9099 5.84766 50.9373 7.92578C50.9099 9.94922 52.4412 11.207 54.3279 11.207C56.242 11.207 57.6912 9.94922 57.7185 7.92578C57.6912 5.84766 56.242 4.61719 54.3279 4.64453ZM91.803 0.0234375V14.0508H88.303V0.0234375H91.803ZM91.803 15.1992V24.6055H75.1234V15.1992H91.803ZM78.5687 17.9609V21.8164H88.3851V17.9609H78.5687ZM80.5101 3.33203C80.4827 6.36719 82.3148 9.23828 86.3343 10.4961L84.639 13.1484C81.7952 12.3145 79.8265 10.5918 78.7054 8.36328C77.5706 10.7832 75.5472 12.6973 72.5804 13.6133L70.8851 10.8789C75.0413 9.62109 76.8734 6.44922 76.8734 3.33203V0.925781H80.5101V3.33203ZM121.335 0.0234375V14.0781H117.835V0.0234375H121.335ZM121.335 15.1992V24.6055H104.656V15.1992H121.335ZM108.101 17.9609V21.8164H117.917V17.9609H108.101ZM107.691 1.14453C111.574 1.14453 114.499 3.60547 114.499 7.16016C114.499 10.5781 111.574 13.0938 107.691 13.0938C103.808 13.0938 100.882 10.5781 100.882 7.16016C100.882 3.60547 103.808 1.14453 107.691 1.14453ZM107.691 4.07031C105.695 4.07031 104.273 5.21875 104.3 7.16016C104.273 9.01953 105.695 10.168 107.691 10.168C109.632 10.168 111.054 9.01953 111.054 7.16016C111.054 5.21875 109.632 4.07031 107.691 4.07031ZM144.811 0.679688V3.27734H141.557V6.55859H144.646V9.15625H126.299V6.55859H129.361V3.27734H126.135V0.679688H144.811ZM146.834 10.4688V13.2031H124.139V10.4688H146.834ZM144.072 14.625V20.7773H130.209V22.1445H144.729V24.7148H126.791V18.3984H140.627V17.1406H126.764V14.625H144.072ZM132.861 6.55859H138.057V3.27734H132.861V6.55859ZM167.52 0.0234375V7.16016H170.883V10.0859H167.52V18.3438H164.02V0.0234375H167.52ZM168.477 21.6523V24.4414H151.469V16.8672H154.997V21.6523H168.477ZM160.083 1.52734V9.32031H152.153V11.9453C156.268 11.9316 159.057 11.7539 162.215 11.1797L162.598 13.9961C159.016 14.6523 155.817 14.7617 150.786 14.7617H148.68V6.69531H156.692V4.31641H148.653V1.52734H160.083ZM191.706 12.8477V15.6094H174.097V1.82812H191.515V4.64453H177.651V7.26953H190.941V10.0039H177.651V12.8477H191.706ZM194.194 19.1367V21.9805H171.417V19.1367H194.194ZM223.727 19.1367V21.9805H200.949V19.1367H210.547V14.543H203.356V1.58203H206.856V5.4375H217.711V1.58203H221.184V14.543H214.02V19.1367H223.727ZM206.856 11.7539H217.711V8.22656H206.856V11.7539ZM247.284 11.4531V14.2695H224.589V11.4531H247.284ZM235.909 15.6641C241.296 15.6641 244.55 17.3594 244.577 20.2852C244.55 23.2383 241.296 24.8789 235.909 24.8789C230.468 24.8789 227.186 23.2383 227.186 20.2852C227.186 17.3594 230.468 15.6641 235.909 15.6641ZM235.909 18.3711C232.464 18.3711 230.714 18.9727 230.741 20.2852C230.714 21.5703 232.464 22.1719 235.909 22.1719C239.272 22.1719 241.05 21.5703 241.077 20.2852C241.05 18.9727 239.272 18.3711 235.909 18.3711ZM245.233 1.14453V3.93359H238.452C239.013 5.66992 241.542 7.39258 246.327 7.81641L245.096 10.5508C240.407 10.0996 237.235 8.32227 235.909 5.90234C234.596 8.32227 231.479 10.0996 226.749 10.5508L225.6 7.81641C230.276 7.39258 232.833 5.68359 233.421 3.93359H226.667V1.14453H245.233ZM269.747 -0.00390625V24.8789H266.439V-0.00390625H269.747ZM264.661 0.40625V23.7305H261.38V11.3438H258.099V8.52734H261.38V0.40625H264.661ZM256.103 6.66797C256.103 10.7969 257.388 14.9805 261.025 17.0586L258.974 19.6289C256.759 18.3164 255.296 16.0879 254.462 13.4219C253.601 16.3203 252.097 18.7812 249.814 20.1758L247.708 17.6055C251.372 15.3633 252.74 10.8789 252.74 6.66797V5.32812H248.665V2.53906H259.876V5.32812H256.103V6.66797Z"/>
</mask>
<path d="M13.9401 1.63672V4.42578H11.8893V11.0703C12.7233 11.002 13.5436 10.9199 14.3229 10.8242L14.4596 13.3945C9.78383 14.1875 4.34242 14.2695 0.404922 14.2695L0.0494537 11.4531L2.7018 11.4258V4.42578H0.67836V1.63672H13.9401ZM21.0221 -0.00390625V15.1992H17.5495V11.4805H14.487V8.69141H17.5495V6.77734H14.487V4.04297H17.5495V-0.00390625H21.0221ZM12.5182 15.582C17.8776 15.6094 21.0768 17.2773 21.1041 20.2578C21.0768 23.1562 17.8776 24.8789 12.5182 24.8789C7.18617 24.8789 3.95961 23.1562 3.95961 20.2578C3.95961 17.2773 7.18617 15.6094 12.5182 15.582ZM12.5182 18.2617C9.18227 18.2617 7.43227 18.8906 7.43227 20.2578C7.43227 21.5703 9.18227 22.2266 12.5182 22.2266C15.8541 22.2266 17.6315 21.5703 17.6315 20.2578C17.6315 18.8906 15.8541 18.2617 12.5182 18.2617ZM6.06508 11.3438L8.55336 11.2617V4.42578H6.06508V11.3438ZM31.6457 4.42578C31.6457 7.10547 33.0402 9.78516 36.3488 11.043L34.4895 13.6953C32.3703 12.8887 30.9074 11.4121 30.0051 9.56641C29.1027 11.7266 27.5441 13.5312 25.2199 14.4883L23.3332 11.8086C26.8332 10.2773 28.2551 7.21484 28.2551 4.42578V1.5H31.6457V4.42578ZM45.0715 0.0234375V15.2266H41.7629V8.91016H39.6848V14.4609H36.4309V0.460938H39.6848V6.09375H41.7629V0.0234375H45.0715ZM36.5676 15.582C41.8176 15.582 45.1809 17.332 45.2082 20.2305C45.1809 23.1289 41.8176 24.8789 36.5676 24.8789C31.2902 24.8789 27.9543 23.1289 27.9543 20.2305C27.9543 17.332 31.2902 15.582 36.5676 15.582ZM36.5676 18.1797C33.3137 18.1797 31.427 18.8906 31.4543 20.2305C31.427 21.5703 33.3137 22.2539 36.5676 22.2539C39.7941 22.2539 41.6809 21.5703 41.6809 20.2305C41.6809 18.8906 39.7941 18.1797 36.5676 18.1797ZM67.0701 -0.00390625V7.13281H70.4334V10.0312H67.0701V18.125H63.5701V-0.00390625H67.0701ZM67.9724 21.6523V24.4414H50.9373V16.2109H54.4099V21.6523H67.9724ZM54.3279 1.60938C58.1287 1.60938 61.1091 4.23438 61.1091 7.92578C61.1091 11.5625 58.1287 14.2422 54.3279 14.2422C50.4998 14.2422 47.492 11.5625 47.492 7.92578C47.492 4.23438 50.4998 1.60938 54.3279 1.60938ZM54.3279 4.64453C52.4412 4.61719 50.9099 5.84766 50.9373 7.92578C50.9099 9.94922 52.4412 11.207 54.3279 11.207C56.242 11.207 57.6912 9.94922 57.7185 7.92578C57.6912 5.84766 56.242 4.61719 54.3279 4.64453ZM91.803 0.0234375V14.0508H88.303V0.0234375H91.803ZM91.803 15.1992V24.6055H75.1234V15.1992H91.803ZM78.5687 17.9609V21.8164H88.3851V17.9609H78.5687ZM80.5101 3.33203C80.4827 6.36719 82.3148 9.23828 86.3343 10.4961L84.639 13.1484C81.7952 12.3145 79.8265 10.5918 78.7054 8.36328C77.5706 10.7832 75.5472 12.6973 72.5804 13.6133L70.8851 10.8789C75.0413 9.62109 76.8734 6.44922 76.8734 3.33203V0.925781H80.5101V3.33203ZM121.335 0.0234375V14.0781H117.835V0.0234375H121.335ZM121.335 15.1992V24.6055H104.656V15.1992H121.335ZM108.101 17.9609V21.8164H117.917V17.9609H108.101ZM107.691 1.14453C111.574 1.14453 114.499 3.60547 114.499 7.16016C114.499 10.5781 111.574 13.0938 107.691 13.0938C103.808 13.0938 100.882 10.5781 100.882 7.16016C100.882 3.60547 103.808 1.14453 107.691 1.14453ZM107.691 4.07031C105.695 4.07031 104.273 5.21875 104.3 7.16016C104.273 9.01953 105.695 10.168 107.691 10.168C109.632 10.168 111.054 9.01953 111.054 7.16016C111.054 5.21875 109.632 4.07031 107.691 4.07031ZM144.811 0.679688V3.27734H141.557V6.55859H144.646V9.15625H126.299V6.55859H129.361V3.27734H126.135V0.679688H144.811ZM146.834 10.4688V13.2031H124.139V10.4688H146.834ZM144.072 14.625V20.7773H130.209V22.1445H144.729V24.7148H126.791V18.3984H140.627V17.1406H126.764V14.625H144.072ZM132.861 6.55859H138.057V3.27734H132.861V6.55859ZM167.52 0.0234375V7.16016H170.883V10.0859H167.52V18.3438H164.02V0.0234375H167.52ZM168.477 21.6523V24.4414H151.469V16.8672H154.997V21.6523H168.477ZM160.083 1.52734V9.32031H152.153V11.9453C156.268 11.9316 159.057 11.7539 162.215 11.1797L162.598 13.9961C159.016 14.6523 155.817 14.7617 150.786 14.7617H148.68V6.69531H156.692V4.31641H148.653V1.52734H160.083ZM191.706 12.8477V15.6094H174.097V1.82812H191.515V4.64453H177.651V7.26953H190.941V10.0039H177.651V12.8477H191.706ZM194.194 19.1367V21.9805H171.417V19.1367H194.194ZM223.727 19.1367V21.9805H200.949V19.1367H210.547V14.543H203.356V1.58203H206.856V5.4375H217.711V1.58203H221.184V14.543H214.02V19.1367H223.727ZM206.856 11.7539H217.711V8.22656H206.856V11.7539ZM247.284 11.4531V14.2695H224.589V11.4531H247.284ZM235.909 15.6641C241.296 15.6641 244.55 17.3594 244.577 20.2852C244.55 23.2383 241.296 24.8789 235.909 24.8789C230.468 24.8789 227.186 23.2383 227.186 20.2852C227.186 17.3594 230.468 15.6641 235.909 15.6641ZM235.909 18.3711C232.464 18.3711 230.714 18.9727 230.741 20.2852C230.714 21.5703 232.464 22.1719 235.909 22.1719C239.272 22.1719 241.05 21.5703 241.077 20.2852C241.05 18.9727 239.272 18.3711 235.909 18.3711ZM245.233 1.14453V3.93359H238.452C239.013 5.66992 241.542 7.39258 246.327 7.81641L245.096 10.5508C240.407 10.0996 237.235 8.32227 235.909 5.90234C234.596 8.32227 231.479 10.0996 226.749 10.5508L225.6 7.81641C230.276 7.39258 232.833 5.68359 233.421 3.93359H226.667V1.14453H245.233ZM269.747 -0.00390625V24.8789H266.439V-0.00390625H269.747ZM264.661 0.40625V23.7305H261.38V11.3438H258.099V8.52734H261.38V0.40625H264.661ZM256.103 6.66797C256.103 10.7969 257.388 14.9805 261.025 17.0586L258.974 19.6289C256.759 18.3164 255.296 16.0879 254.462 13.4219C253.601 16.3203 252.097 18.7812 249.814 20.1758L247.708 17.6055C251.372 15.3633 252.74 10.8789 252.74 6.66797V5.32812H248.665V2.53906H259.876V5.32812H256.103V6.66797Z" fill="url(#paint0_linear_1_4924)"/>
<path d="M13.9401 1.63672H14.6898C14.6898 1.22268 14.3541 0.887043 13.9401 0.887043V1.63672ZM13.9401 4.42578V5.17546C14.3541 5.17546 14.6898 4.83982 14.6898 4.42578H13.9401ZM11.8893 4.42578V3.67611C11.4753 3.67611 11.1396 4.01175 11.1396 4.42578H11.8893ZM11.8893 11.0703H11.1396C11.1396 11.2798 11.2273 11.4797 11.3813 11.6216C11.5354 11.7636 11.7418 11.8346 11.9505 11.8175L11.8893 11.0703ZM14.3229 10.8242L15.0715 10.7844C15.0605 10.5769 14.9638 10.3833 14.8045 10.2497C14.6453 10.1162 14.4378 10.0548 14.2315 10.0801L14.3229 10.8242ZM14.4596 13.3945L14.585 14.1337C14.9604 14.07 15.2285 13.735 15.2082 13.3547L14.4596 13.3945ZM0.404922 14.2695L-0.338852 14.3634C-0.291553 14.7382 0.0271835 15.0192 0.404922 15.0192V14.2695ZM0.0494537 11.4531L0.0417252 10.7035C-0.172104 10.7057 -0.374813 10.7991 -0.515408 10.9602C-0.656002 11.1213 -0.7211 11.3348 -0.694321 11.547L0.0494537 11.4531ZM2.7018 11.4258L2.70953 12.1754C3.12053 12.1712 3.45147 11.8368 3.45147 11.4258H2.7018ZM2.7018 4.42578H3.45147C3.45147 4.01175 3.11583 3.67611 2.7018 3.67611V4.42578ZM0.67836 4.42578H-0.0713158C-0.0713158 4.83982 0.264324 5.17546 0.67836 5.17546V4.42578ZM0.67836 1.63672V0.887043C0.264324 0.887043 -0.0713158 1.22268 -0.0713158 1.63672H0.67836ZM21.0221 -0.00390625H21.7718C21.7718 -0.417941 21.4361 -0.753582 21.0221 -0.753582V-0.00390625ZM21.0221 15.1992V15.9489C21.4361 15.9489 21.7718 15.6133 21.7718 15.1992H21.0221ZM17.5495 15.1992H16.7998C16.7998 15.6133 17.1354 15.9489 17.5495 15.9489V15.1992ZM17.5495 11.4805H18.2991C18.2991 11.0664 17.9635 10.7308 17.5495 10.7308V11.4805ZM14.487 11.4805H13.7373C13.7373 11.8945 14.0729 12.2301 14.487 12.2301V11.4805ZM14.487 8.69141V7.94173C14.0729 7.94173 13.7373 8.27737 13.7373 8.69141H14.487ZM17.5495 8.69141V9.44108C17.9635 9.44108 18.2991 9.10544 18.2991 8.69141H17.5495ZM17.5495 6.77734H18.2991C18.2991 6.36331 17.9635 6.02767 17.5495 6.02767V6.77734ZM14.487 6.77734H13.7373C13.7373 7.19138 14.0729 7.52702 14.487 7.52702V6.77734ZM14.487 4.04297V3.29329C14.0729 3.29329 13.7373 3.62893 13.7373 4.04297H14.487ZM17.5495 4.04297V4.79264C17.9635 4.79264 18.2991 4.457 18.2991 4.04297H17.5495ZM17.5495 -0.00390625V-0.753582C17.1354 -0.753582 16.7998 -0.417941 16.7998 -0.00390625H17.5495ZM12.5182 15.582L12.522 14.8323L12.5144 14.8324L12.5182 15.582ZM21.1041 20.2578L21.8539 20.2649L21.8538 20.2509L21.1041 20.2578ZM6.06508 11.3438H5.3154C5.3154 11.5469 5.39782 11.7413 5.54379 11.8825C5.68975 12.0237 5.88678 12.0997 6.08978 12.093L6.06508 11.3438ZM8.55336 11.2617L8.57806 12.011C8.98226 11.9977 9.30304 11.6661 9.30304 11.2617H8.55336ZM8.55336 4.42578H9.30304C9.30304 4.01175 8.9674 3.67611 8.55336 3.67611V4.42578ZM6.06508 4.42578V3.67611C5.65104 3.67611 5.3154 4.01175 5.3154 4.42578H6.06508ZM13.9401 1.63672H13.1904V4.42578H13.9401H14.6898V1.63672H13.9401ZM13.9401 4.42578V3.67611H11.8893V4.42578V5.17546H13.9401V4.42578ZM11.8893 4.42578H11.1396V11.0703H11.8893H12.639V4.42578H11.8893ZM11.8893 11.0703L11.9505 11.8175C12.7931 11.7484 13.6235 11.6654 14.4143 11.5683L14.3229 10.8242L14.2315 10.0801C13.4637 10.1744 12.6535 10.2555 11.8281 10.3231L11.8893 11.0703ZM14.3229 10.8242L13.5743 10.864L13.711 13.4344L14.4596 13.3945L15.2082 13.3547L15.0715 10.7844L14.3229 10.8242ZM14.4596 13.3945L14.3343 12.6554C9.72728 13.4367 4.34274 13.5199 0.404922 13.5199V14.2695V15.0192C4.3421 15.0192 9.84038 14.9383 14.585 14.1337L14.4596 13.3945ZM0.404922 14.2695L1.1487 14.1757L0.793228 11.3593L0.0494537 11.4531L-0.694321 11.547L-0.338852 14.3634L0.404922 14.2695ZM0.0494537 11.4531L0.0571823 12.2028L2.70953 12.1754L2.7018 11.4258L2.69407 10.6761L0.0417252 10.7035L0.0494537 11.4531ZM2.7018 11.4258H3.45147V4.42578H2.7018H1.95212V11.4258H2.7018ZM2.7018 4.42578V3.67611H0.67836V4.42578V5.17546H2.7018V4.42578ZM0.67836 4.42578H1.42804V1.63672H0.67836H-0.0713158V4.42578H0.67836ZM0.67836 1.63672V2.38639H13.9401V1.63672V0.887043H0.67836V1.63672ZM21.0221 -0.00390625H20.2724V15.1992H21.0221H21.7718V-0.00390625H21.0221ZM21.0221 15.1992V14.4495H17.5495V15.1992V15.9489H21.0221V15.1992ZM17.5495 15.1992H18.2991V11.4805H17.5495H16.7998V15.1992H17.5495ZM17.5495 11.4805V10.7308H14.487V11.4805V12.2301H17.5495V11.4805ZM14.487 11.4805H15.2366V8.69141H14.487H13.7373V11.4805H14.487ZM14.487 8.69141V9.44108H17.5495V8.69141V7.94173H14.487V8.69141ZM17.5495 8.69141H18.2991V6.77734H17.5495H16.7998V8.69141H17.5495ZM17.5495 6.77734V6.02767H14.487V6.77734V7.52702H17.5495V6.77734ZM14.487 6.77734H15.2366V4.04297H14.487H13.7373V6.77734H14.487ZM14.487 4.04297V4.79264H17.5495V4.04297V3.29329H14.487V4.04297ZM17.5495 4.04297H18.2991V-0.00390625H17.5495H16.7998V4.04297H17.5495ZM17.5495 -0.00390625V0.74577H21.0221V-0.00390625V-0.753582H17.5495V-0.00390625ZM12.5182 15.582L12.5144 16.3317C15.1351 16.3451 17.1352 16.762 18.4554 17.4726C19.7402 18.1642 20.3438 19.1025 20.3545 20.2647L21.1041 20.2578L21.8538 20.2509C21.8371 18.4326 20.8275 17.0467 19.166 16.1524C17.5399 15.2771 15.2607 14.8463 12.522 14.8324L12.5182 15.582ZM21.1041 20.2578L20.3545 20.2507C20.344 21.3662 19.7462 22.3003 18.4554 22.9952C17.1346 23.7061 15.1344 24.1292 12.5182 24.1292V24.8789V25.6286C15.2614 25.6286 17.5405 25.1904 19.166 24.3154C20.8214 23.4243 21.837 22.0478 21.8538 20.2649L21.1041 20.2578ZM12.5182 24.8789V24.1292C9.91603 24.1292 7.91573 23.7062 6.59473 22.9952C5.30297 22.2998 4.70929 21.3678 4.70929 20.2578H3.95961H3.20993C3.20993 22.0463 4.22953 23.4248 5.88406 24.3154C7.50935 25.1903 9.78835 25.6286 12.5182 25.6286V24.8789ZM3.95961 20.2578H4.70929C4.70929 19.101 5.30915 18.1646 6.59473 17.4726C7.91514 16.7619 9.91534 16.3451 12.522 16.3317L12.5182 15.582L12.5144 14.8324C9.78904 14.8463 7.50994 15.2772 5.88406 16.1524C4.22335 17.0463 3.20993 18.4342 3.20993 20.2578H3.95961ZM12.5182 18.2617V17.512C10.8254 17.512 9.44162 17.6686 8.45552 18.0472C7.95645 18.2389 7.51258 18.5048 7.18959 18.8801C6.85403 19.2701 6.68259 19.7401 6.68259 20.2578H7.43227H8.18194C8.18194 20.0919 8.22925 19.9706 8.32607 19.8581C8.43545 19.731 8.63758 19.5834 8.993 19.4469C9.71588 19.1693 10.8751 19.0114 12.5182 19.0114V18.2617ZM7.43227 20.2578H6.68259C6.68259 20.7698 6.85939 21.2323 7.19461 21.6139C7.51685 21.9807 7.95843 22.2433 8.45552 22.4342C9.43986 22.8122 10.8219 22.9762 12.5182 22.9762V22.2266V21.4769C10.8786 21.4769 9.71764 21.3128 8.993 21.0345C8.63559 20.8973 8.43118 20.7497 8.32104 20.6244C8.22389 20.5138 8.18194 20.4021 8.18194 20.2578H7.43227ZM12.5182 22.2266V22.9762C14.2149 22.9762 15.6026 22.8121 16.5927 22.4349C17.5928 22.054 18.3812 21.361 18.3812 20.2578H17.6315H16.8818C16.8818 20.4671 16.7815 20.7585 16.0589 21.0338C15.3264 21.3129 14.1574 21.4769 12.5182 21.4769V22.2266ZM17.6315 20.2578H18.3812C18.3812 19.737 18.2059 19.266 17.867 18.8768C17.5412 18.5026 17.0942 18.2376 16.5927 18.0465C15.6009 17.6687 14.2114 17.512 12.5182 17.512V18.2617V19.0114C14.1609 19.0114 15.3281 19.1692 16.0589 19.4476C16.4187 19.5847 16.6246 19.7332 16.7363 19.8614C16.8349 19.9747 16.8818 20.095 16.8818 20.2578H17.6315ZM6.06508 11.3438L6.08978 12.093L8.57806 12.011L8.55336 11.2617L8.52866 10.5124L6.04038 10.5945L6.06508 11.3438ZM8.55336 11.2617H9.30304V4.42578H8.55336H7.80368V11.2617H8.55336ZM8.55336 4.42578V3.67611H6.06508V4.42578V5.17546H8.55336V4.42578ZM6.06508 4.42578H5.3154V11.3438H6.06508H6.81475V4.42578H6.06508ZM36.3488 11.043L36.9627 11.4733C37.0954 11.2839 37.1334 11.0439 37.0655 10.8228C36.9975 10.6018 36.8314 10.4244 36.6152 10.3422L36.3488 11.043ZM34.4895 13.6953L34.2228 14.3959C34.5435 14.5181 34.9063 14.4067 35.1033 14.1256L34.4895 13.6953ZM30.0051 9.56641L30.6786 9.23714C30.5493 8.97269 30.2772 8.80837 29.983 8.81706C29.6887 8.82574 29.4268 9.00583 29.3133 9.27745L30.0051 9.56641ZM25.2199 14.4883L24.6069 14.9199C24.8086 15.2062 25.1815 15.3148 25.5054 15.1815L25.2199 14.4883ZM23.3332 11.8086L23.0327 11.1218C22.8265 11.212 22.6718 11.3901 22.6112 11.6069C22.5506 11.8236 22.5906 12.0561 22.7202 12.2402L23.3332 11.8086ZM28.2551 1.5V0.750324C27.841 0.750324 27.5054 1.08597 27.5054 1.5H28.2551ZM31.6457 1.5H32.3954C32.3954 1.08597 32.0597 0.750324 31.6457 0.750324V1.5ZM45.0715 0.0234375H45.8212C45.8212 -0.390597 45.4855 -0.726239 45.0715 -0.726239V0.0234375ZM45.0715 15.2266V15.9762C45.4855 15.9762 45.8212 15.6406 45.8212 15.2266H45.0715ZM41.7629 15.2266H41.0132C41.0132 15.6406 41.3489 15.9762 41.7629 15.9762V15.2266ZM41.7629 8.91016H42.5126C42.5126 8.49612 42.1769 8.16048 41.7629 8.16048V8.91016ZM39.6848 8.91016V8.16048C39.2707 8.16048 38.9351 8.49612 38.9351 8.91016H39.6848ZM39.6848 14.4609V15.2106C40.0988 15.2106 40.4344 14.875 40.4344 14.4609H39.6848ZM36.4309 14.4609H35.6812C35.6812 14.875 36.0168 15.2106 36.4309 15.2106V14.4609ZM36.4309 0.460938V-0.288739C36.0168 -0.288739 35.6812 0.0469027 35.6812 0.460938H36.4309ZM39.6848 0.460938H40.4344C40.4344 0.0469027 40.0988 -0.288739 39.6848 -0.288739V0.460938ZM39.6848 6.09375H38.9351C38.9351 6.50778 39.2707 6.84343 39.6848 6.84343V6.09375ZM41.7629 6.09375V6.84343C42.1769 6.84343 42.5126 6.50778 42.5126 6.09375H41.7629ZM41.7629 0.0234375V-0.726239C41.3489 -0.726239 41.0132 -0.390597 41.0132 0.0234375H41.7629ZM45.2082 20.2305L45.9578 20.2375C45.9579 20.2328 45.9579 20.2281 45.9578 20.2234L45.2082 20.2305ZM31.4543 20.2305L32.2038 20.2458C32.204 20.2356 32.204 20.2254 32.2038 20.2152L31.4543 20.2305ZM31.6457 4.42578H30.896C30.896 7.38802 32.4569 10.3654 36.0824 11.7437L36.3488 11.043L36.6152 10.3422C33.6235 9.20488 32.3954 6.82292 32.3954 4.42578H31.6457ZM36.3488 11.043L35.735 10.6126L33.8756 13.265L34.4895 13.6953L35.1033 14.1256L36.9627 11.4733L36.3488 11.043ZM34.4895 13.6953L34.7561 12.9947C32.8305 12.2617 31.505 10.9276 30.6786 9.23714L30.0051 9.56641L29.3316 9.89567C30.3098 11.8966 31.9101 13.5157 34.2228 14.3959L34.4895 13.6953ZM30.0051 9.56641L29.3133 9.27745C28.4738 11.2873 27.0445 12.9263 24.9345 13.7951L25.2199 14.4883L25.5054 15.1815C28.0438 14.1362 29.7317 12.1658 30.6968 9.85537L30.0051 9.56641ZM25.2199 14.4883L25.8329 14.0567L23.9462 11.377L23.3332 11.8086L22.7202 12.2402L24.6069 14.9199L25.2199 14.4883ZM23.3332 11.8086L23.6337 12.4954C27.4422 10.8292 29.0048 7.47178 29.0048 4.42578H28.2551H27.5054C27.5054 6.9579 26.2242 9.72548 23.0327 11.1218L23.3332 11.8086ZM28.2551 4.42578H29.0048V1.5H28.2551H27.5054V4.42578H28.2551ZM28.2551 1.5V2.24968H31.6457V1.5V0.750324H28.2551V1.5ZM31.6457 1.5H30.896V4.42578H31.6457H32.3954V1.5H31.6457ZM45.0715 0.0234375H44.3218V15.2266H45.0715H45.8212V0.0234375H45.0715ZM45.0715 15.2266V14.4769H41.7629V15.2266V15.9762H45.0715V15.2266ZM41.7629 15.2266H42.5126V8.91016H41.7629H41.0132V15.2266H41.7629ZM41.7629 8.91016V8.16048H39.6848V8.91016V9.65983H41.7629V8.91016ZM39.6848 8.91016H38.9351V14.4609H39.6848H40.4344V8.91016H39.6848ZM39.6848 14.4609V13.7113H36.4309V14.4609V15.2106H39.6848V14.4609ZM36.4309 14.4609H37.1805V0.460938H36.4309H35.6812V14.4609H36.4309ZM36.4309 0.460938V1.21061H39.6848V0.460938V-0.288739H36.4309V0.460938ZM39.6848 0.460938H38.9351V6.09375H39.6848H40.4344V0.460938H39.6848ZM39.6848 6.09375V6.84343H41.7629V6.09375V5.34407H39.6848V6.09375ZM41.7629 6.09375H42.5126V0.0234375H41.7629H41.0132V6.09375H41.7629ZM41.7629 0.0234375V0.773114H45.0715V0.0234375V-0.726239H41.7629V0.0234375ZM36.5676 15.582V16.3317C39.1247 16.3317 41.1418 16.7603 42.4938 17.4809C43.8243 18.1901 44.4482 19.1358 44.4586 20.2375L45.2082 20.2305L45.9578 20.2234C45.9409 18.4267 44.8695 17.0482 43.199 16.1578C41.55 15.2788 39.2604 14.8324 36.5676 14.8324V15.582ZM45.2082 20.2305L44.4586 20.2234C44.4482 21.3251 43.8243 22.2708 42.4938 22.98C41.1418 23.7007 39.1247 24.1292 36.5676 24.1292V24.8789V25.6286C39.2604 25.6286 41.55 25.1821 43.199 24.3032C44.8695 23.4128 45.9409 22.0342 45.9578 20.2375L45.2082 20.2305ZM36.5676 24.8789V24.1292C33.9959 24.1292 31.9798 23.7004 30.6358 22.9807C29.3152 22.2735 28.704 21.3314 28.704 20.2305H27.9543H27.2046C27.2046 22.028 28.2614 23.41 29.928 24.3025C31.5714 25.1824 33.8619 25.6286 36.5676 25.6286V24.8789ZM27.9543 20.2305H28.704C28.704 19.1295 29.3152 18.1874 30.6358 17.4802C31.9798 16.7606 33.9959 16.3317 36.5676 16.3317V15.582V14.8324C33.8619 14.8324 31.5714 15.2785 29.928 16.1584C28.2614 17.0509 27.2046 18.433 27.2046 20.2305H27.9543ZM36.5676 18.1797V17.43C34.9048 17.43 33.5095 17.6091 32.5053 18.0053C31.5034 18.4006 30.6817 19.1164 30.7048 20.2458L31.4543 20.2305L32.2038 20.2152C32.1995 20.0046 32.3075 19.6952 33.0556 19.4C33.8015 19.1057 34.9765 18.9294 36.5676 18.9294V18.1797ZM31.4543 20.2305L30.7048 20.2152C30.6817 21.3484 31.5086 22.0565 32.5101 22.4438C33.5132 22.8318 34.9073 23.0036 36.5676 23.0036V22.2539V21.5042C34.9739 21.5042 33.7977 21.3342 33.0509 21.0454C32.3024 20.756 32.1996 20.4524 32.2038 20.2458L31.4543 20.2305ZM36.5676 22.2539V23.0036C38.2151 23.0036 39.6019 22.8316 40.6046 22.4438C41.6053 22.0568 42.4305 21.3542 42.4305 20.2305H41.6809H40.9312C40.9312 20.4466 40.8131 20.7557 40.0638 21.0454C39.3164 21.3344 38.1466 21.5042 36.5676 21.5042V22.2539ZM41.6809 20.2305H42.4305C42.4305 19.1106 41.6104 18.4002 40.6093 18.0053C39.6057 17.6093 38.2177 17.43 36.5676 17.43V18.1797V18.9294C38.1441 18.9294 39.3127 19.1055 40.0591 19.4C40.8079 19.6955 40.9312 20.0105 40.9312 20.2305H41.6809ZM67.0701 -0.00390625H67.8198C67.8198 -0.417941 67.4841 -0.753582 67.0701 -0.753582V-0.00390625ZM67.0701 7.13281H66.3204C66.3204 7.54685 66.6561 7.88249 67.0701 7.88249V7.13281ZM70.4334 7.13281H71.183C71.183 6.71878 70.8474 6.38314 70.4334 6.38314V7.13281ZM70.4334 10.0312V10.7809C70.8474 10.7809 71.183 10.4453 71.183 10.0312H70.4334ZM67.0701 10.0312V9.28157C66.6561 9.28157 66.3204 9.61722 66.3204 10.0312H67.0701ZM67.0701 18.125V18.8747C67.4841 18.8747 67.8198 18.539 67.8198 18.125H67.0701ZM63.5701 18.125H62.8204C62.8204 18.539 63.1561 18.8747 63.5701 18.8747V18.125ZM63.5701 -0.00390625V-0.753582C63.1561 -0.753582 62.8204 -0.417941 62.8204 -0.00390625H63.5701ZM67.9724 21.6523H68.7221C68.7221 21.2383 68.3865 20.9027 67.9724 20.9027V21.6523ZM67.9724 24.4414V25.1911C68.3865 25.1911 68.7221 24.8554 68.7221 24.4414H67.9724ZM50.9373 24.4414H50.1876C50.1876 24.8554 50.5232 25.1911 50.9373 25.1911V24.4414ZM50.9373 16.2109V15.4613C50.5232 15.4613 50.1876 15.7969 50.1876 16.2109H50.9373ZM54.4099 16.2109H55.1596C55.1596 15.7969 54.824 15.4613 54.4099 15.4613V16.2109ZM54.4099 21.6523H53.6602C53.6602 22.0664 53.9959 22.402 54.4099 22.402V21.6523ZM54.3279 4.64453L54.317 5.39413C54.3242 5.39423 54.3314 5.39423 54.3386 5.39413L54.3279 4.64453ZM50.9373 7.92578L51.6869 7.93591C51.687 7.92925 51.687 7.92258 51.6869 7.91592L50.9373 7.92578ZM57.7185 7.92578L58.4681 7.93591C58.4682 7.92925 58.4682 7.92258 58.4681 7.91592L57.7185 7.92578ZM67.0701 -0.00390625H66.3204V7.13281H67.0701H67.8198V-0.00390625H67.0701ZM67.0701 7.13281V7.88249H70.4334V7.13281V6.38314H67.0701V7.13281ZM70.4334 7.13281H69.6837V10.0312H70.4334H71.183V7.13281H70.4334ZM70.4334 10.0312V9.28157H67.0701V10.0312V10.7809H70.4334V10.0312ZM67.0701 10.0312H66.3204V18.125H67.0701H67.8198V10.0312H67.0701ZM67.0701 18.125V17.3753H63.5701V18.125V18.8747H67.0701V18.125ZM63.5701 18.125H64.3198V-0.00390625H63.5701H62.8204V18.125H63.5701ZM63.5701 -0.00390625V0.74577H67.0701V-0.00390625V-0.753582H63.5701V-0.00390625ZM67.9724 21.6523H67.2227V24.4414H67.9724H68.7221V21.6523H67.9724ZM67.9724 24.4414V23.6917H50.9373V24.4414V25.1911H67.9724V24.4414ZM50.9373 24.4414H51.687V16.2109H50.9373H50.1876V24.4414H50.9373ZM50.9373 16.2109V16.9606H54.4099V16.2109V15.4613H50.9373V16.2109ZM54.4099 16.2109H53.6602V21.6523H54.4099H55.1596V16.2109H54.4099ZM54.4099 21.6523V22.402H67.9724V21.6523V20.9027H54.4099V21.6523ZM54.3279 1.60938V2.35905C57.7779 2.35905 60.3595 4.70899 60.3595 7.92578H61.1091H61.8588C61.8588 3.75976 58.4794 0.859699 54.3279 0.859699V1.60938ZM61.1091 7.92578H60.3595C60.3595 11.092 57.7735 13.4925 54.3279 13.4925V14.2422V14.9919C58.4839 14.9919 61.8588 12.033 61.8588 7.92578H61.1091ZM54.3279 14.2422V13.4925C50.8488 13.4925 48.2416 11.0864 48.2416 7.92578H47.492H46.7423C46.7423 12.0386 50.1507 14.9919 54.3279 14.9919V14.2422ZM47.492 7.92578H48.2416C48.2416 4.71461 50.8444 2.35905 54.3279 2.35905V1.60938V0.859699C50.1552 0.859699 46.7423 3.75414 46.7423 7.92578H47.492ZM54.3279 4.64453L54.3388 3.89493C53.2316 3.87889 52.1836 4.23227 51.4082 4.94298C50.6244 5.66148 50.1714 6.69862 50.1877 7.93564L50.9373 7.92578L51.6869 7.91592C51.6758 7.07481 51.9747 6.45766 52.4214 6.04823C52.8765 5.63102 53.5374 5.38283 54.317 5.39413L54.3279 4.64453ZM50.9373 7.92578L50.1877 7.91565C50.1712 9.13116 50.6283 10.1586 51.4066 10.8763C52.1768 11.5866 53.2199 11.9567 54.3279 11.9567V11.207V10.4574C53.5491 10.4574 52.8833 10.1986 52.423 9.7741C51.9708 9.35707 51.676 8.74384 51.6869 7.93591L50.9373 7.92578ZM54.3279 11.207V11.9567C55.4496 11.9567 56.4819 11.5864 57.2436 10.872C58.01 10.1532 58.452 9.13285 58.4681 7.93591L57.7185 7.92578L56.9689 7.91565C56.9577 8.74215 56.6614 9.36242 56.2179 9.77838C55.7696 10.1988 55.1202 10.4574 54.3279 10.4574V11.207ZM57.7185 7.92578L58.4681 7.91592C58.4521 6.69698 58.0136 5.66662 57.2419 4.94724C56.475 4.23235 55.4378 3.87892 54.3172 3.89493L54.3279 4.64453L54.3386 5.39413C55.132 5.3828 55.7765 5.63093 56.2195 6.04397C56.6578 6.45252 56.9576 7.07646 56.9689 7.93564L57.7185 7.92578ZM91.803 0.0234375H92.5527C92.5527 -0.390597 92.2171 -0.726239 91.803 -0.726239V0.0234375ZM91.803 14.0508V14.8005C92.2171 14.8005 92.5527 14.4648 92.5527 14.0508H91.803ZM88.303 14.0508H87.5534C87.5534 14.4648 87.889 14.8005 88.303 14.8005V14.0508ZM88.303 0.0234375V-0.726239C87.889 -0.726239 87.5534 -0.390597 87.5534 0.0234375H88.303ZM91.803 15.1992H92.5527C92.5527 14.7852 92.2171 14.4495 91.803 14.4495V15.1992ZM91.803 24.6055V25.3551C92.2171 25.3551 92.5527 25.0195 92.5527 24.6055H91.803ZM75.1234 24.6055H74.3737C74.3737 25.0195 74.7093 25.3551 75.1234 25.3551V24.6055ZM75.1234 15.1992V14.4495C74.7093 14.4495 74.3737 14.7852 74.3737 15.1992H75.1234ZM78.5687 17.9609V17.2113C78.1546 17.2113 77.819 17.5469 77.819 17.9609H78.5687ZM78.5687 21.8164H77.819C77.819 22.2304 78.1546 22.5661 78.5687 22.5661V21.8164ZM88.3851 21.8164V22.5661C88.7991 22.5661 89.1348 22.2304 89.1348 21.8164H88.3851ZM88.3851 17.9609H89.1348C89.1348 17.5469 88.7991 17.2113 88.3851 17.2113V17.9609ZM80.5101 3.33203L81.2598 3.33879V3.33203H80.5101ZM86.3343 10.4961L86.966 10.8998C87.0917 10.7031 87.1186 10.4589 87.0387 10.2395C86.9587 10.02 86.7811 9.85038 86.5582 9.78063L86.3343 10.4961ZM84.639 13.1484L84.428 13.8678C84.7478 13.9616 85.0912 13.833 85.2707 13.5522L84.639 13.1484ZM78.7054 8.36328L79.3751 8.02637C79.2461 7.76997 78.982 7.60971 78.695 7.61368C78.408 7.61764 78.1485 7.78512 78.0266 8.045L78.7054 8.36328ZM72.5804 13.6133L71.9432 14.0083C72.123 14.2982 72.4757 14.4302 72.8016 14.3296L72.5804 13.6133ZM70.8851 10.8789L70.6679 10.1614C70.4449 10.2289 70.266 10.3962 70.1837 10.6141C70.1014 10.8321 70.1252 11.0759 70.2479 11.2739L70.8851 10.8789ZM76.8734 0.925781V0.176105C76.4593 0.176105 76.1237 0.511746 76.1237 0.925781H76.8734ZM80.5101 0.925781H81.2598C81.2598 0.511746 80.9241 0.176105 80.5101 0.176105V0.925781ZM91.803 0.0234375H91.0534V14.0508H91.803H92.5527V0.0234375H91.803ZM91.803 14.0508V13.3011H88.303V14.0508V14.8005H91.803V14.0508ZM88.303 14.0508H89.0527V0.0234375H88.303H87.5534V14.0508H88.303ZM88.303 0.0234375V0.773114H91.803V0.0234375V-0.726239H88.303V0.0234375ZM91.803 15.1992H91.0534V24.6055H91.803H92.5527V15.1992H91.803ZM91.803 24.6055V23.8558H75.1234V24.6055V25.3551H91.803V24.6055ZM75.1234 24.6055H75.873V15.1992H75.1234H74.3737V24.6055H75.1234ZM75.1234 15.1992V15.9489H91.803V15.1992V14.4495H75.1234V15.1992ZM78.5687 17.9609H77.819V21.8164H78.5687H79.3184V17.9609H78.5687ZM78.5687 21.8164V22.5661H88.3851V21.8164V21.0667H78.5687V21.8164ZM88.3851 21.8164H89.1348V17.9609H88.3851H87.6354V21.8164H88.3851ZM88.3851 17.9609V17.2113H78.5687V17.9609V18.7106H88.3851V17.9609ZM80.5101 3.33203L79.7604 3.32528C79.7299 6.71825 81.8028 9.86359 86.1104 11.2116L86.3343 10.4961L86.5582 9.78063C82.8268 8.61298 81.2356 6.01612 81.2597 3.33879L80.5101 3.33203ZM86.3343 10.4961L85.7026 10.0923L84.0073 12.7447L84.639 13.1484L85.2707 13.5522L86.966 10.8998L86.3343 10.4961ZM84.639 13.1484L84.85 12.4291C82.1991 11.6516 80.3999 10.0635 79.3751 8.02637L78.7054 8.36328L78.0357 8.70019C79.2531 11.1201 81.3914 12.9773 84.428 13.8678L84.639 13.1484ZM78.7054 8.36328L78.0266 8.045C76.979 10.279 75.1187 12.045 72.3592 12.897L72.5804 13.6133L72.8016 14.3296C75.9756 13.3496 78.1622 11.2874 79.3841 8.68157L78.7054 8.36328ZM72.5804 13.6133L73.2175 13.2182L71.5222 10.4839L70.8851 10.8789L70.2479 11.2739L71.9432 14.0083L72.5804 13.6133ZM70.8851 10.8789L71.1022 11.5964C75.5844 10.24 77.623 6.76941 77.623 3.33203H76.8734H76.1237C76.1237 6.12903 74.4983 9.00218 70.6679 10.1614L70.8851 10.8789ZM76.8734 3.33203H77.623V0.925781H76.8734H76.1237V3.33203H76.8734ZM76.8734 0.925781V1.67546H80.5101V0.925781V0.176105H76.8734V0.925781ZM80.5101 0.925781H79.7604V3.33203H80.5101H81.2598V0.925781H80.5101ZM121.335 0.0234375H122.085C122.085 -0.390597 121.749 -0.726239 121.335 -0.726239V0.0234375ZM121.335 14.0781V14.8278C121.749 14.8278 122.085 14.4922 122.085 14.0781H121.335ZM117.835 14.0781H117.086C117.086 14.4922 117.421 14.8278 117.835 14.8278V14.0781ZM117.835 0.0234375V-0.726239C117.421 -0.726239 117.086 -0.390597 117.086 0.0234375H117.835ZM121.335 15.1992H122.085C122.085 14.7852 121.749 14.4495 121.335 14.4495V15.1992ZM121.335 24.6055V25.3551C121.749 25.3551 122.085 25.0195 122.085 24.6055H121.335ZM104.656 24.6055H103.906C103.906 25.0195 104.242 25.3551 104.656 25.3551V24.6055ZM104.656 15.1992V14.4495C104.242 14.4495 103.906 14.7852 103.906 15.1992H104.656ZM108.101 17.9609V17.2113C107.687 17.2113 107.351 17.5469 107.351 17.9609H108.101ZM108.101 21.8164H107.351C107.351 22.2304 107.687 22.5661 108.101 22.5661V21.8164ZM117.917 21.8164V22.5661C118.331 22.5661 118.667 22.2304 118.667 21.8164H117.917ZM117.917 17.9609H118.667C118.667 17.5469 118.331 17.2113 117.917 17.2113V17.9609ZM104.3 7.16016L105.05 7.17118C105.05 7.16399 105.05 7.15679 105.05 7.1496L104.3 7.16016ZM121.335 0.0234375H120.586V14.0781H121.335H122.085V0.0234375H121.335ZM121.335 14.0781V13.3284H117.835V14.0781V14.8278H121.335V14.0781ZM117.835 14.0781H118.585V0.0234375H117.835H117.086V14.0781H117.835ZM117.835 0.0234375V0.773114H121.335V0.0234375V-0.726239H117.835V0.0234375ZM121.335 15.1992H120.586V24.6055H121.335H122.085V15.1992H121.335ZM121.335 24.6055V23.8558H104.656V24.6055V25.3551H121.335V24.6055ZM104.656 24.6055H105.405V15.1992H104.656H103.906V24.6055H104.656ZM104.656 15.1992V15.9489H121.335V15.1992V14.4495H104.656V15.1992ZM108.101 17.9609H107.351V21.8164H108.101H108.851V17.9609H108.101ZM108.101 21.8164V22.5661H117.917V21.8164V21.0667H108.101V21.8164ZM117.917 21.8164H118.667V17.9609H117.917H117.168V21.8164H117.917ZM117.917 17.9609V17.2113H108.101V17.9609V18.7106H117.917V17.9609ZM107.691 1.14453V1.89421C111.26 1.89421 113.75 4.11355 113.75 7.16016H114.499H115.249C115.249 3.09739 111.887 0.394855 107.691 0.394855V1.14453ZM114.499 7.16016H113.75C113.75 10.0679 111.263 12.3441 107.691 12.3441V13.0938V13.8434C111.885 13.8434 115.249 11.0883 115.249 7.16016H114.499ZM107.691 13.0938V12.3441C104.119 12.3441 101.632 10.0679 101.632 7.16016H100.882H100.133C100.133 11.0883 103.497 13.8434 107.691 13.8434V13.0938ZM100.882 7.16016H101.632C101.632 4.11355 104.121 1.89421 107.691 1.89421V1.14453V0.394855C103.495 0.394855 100.133 3.09739 100.133 7.16016H100.882ZM107.691 4.07031V3.32064C106.554 3.32064 105.509 3.64817 104.741 4.3246C103.961 5.01199 103.534 6.00121 103.551 7.17071L104.3 7.16016L105.05 7.1496C105.039 6.37769 105.31 5.82199 105.732 5.44981C106.167 5.06667 106.831 4.81999 107.691 4.81999V4.07031ZM104.3 7.16016L103.551 7.14913C103.534 8.28779 103.968 9.25613 104.747 9.9287C105.513 10.5903 106.554 10.9176 107.691 10.9176V10.168V9.41829C106.831 9.41829 106.164 9.17144 105.727 8.79396C105.302 8.42747 105.039 7.89189 105.05 7.17118L104.3 7.16016ZM107.691 10.168V10.9176C108.805 10.9176 109.832 10.5874 110.592 9.92732C111.363 9.25789 111.804 8.29525 111.804 7.16016H111.054H110.304C110.304 7.88444 110.034 8.42571 109.609 8.79534C109.173 9.17434 108.518 9.41829 107.691 9.41829V10.168ZM111.054 7.16016H111.804C111.804 5.99383 111.37 5.0102 110.598 4.32601C109.836 3.65112 108.806 3.32064 107.691 3.32064V4.07031V4.81999C108.518 4.81999 109.169 5.06372 109.603 5.44841C110.027 5.82379 110.304 6.38508 110.304 7.16016H111.054ZM144.811 0.679688H145.56C145.56 0.265653 145.225 -0.0699887 144.811 -0.0699887V0.679688ZM144.811 3.27734V4.02702C145.225 4.02702 145.56 3.69138 145.56 3.27734H144.811ZM141.557 3.27734V2.52767C141.143 2.52767 140.807 2.86331 140.807 3.27734H141.557ZM141.557 6.55859H140.807C140.807 6.97263 141.143 7.30827 141.557 7.30827V6.55859ZM144.646 6.55859H145.396C145.396 6.14456 145.061 5.80892 144.646 5.80892V6.55859ZM144.646 9.15625V9.90593C145.061 9.90593 145.396 9.57028 145.396 9.15625H144.646ZM126.299 9.15625H125.549C125.549 9.57028 125.885 9.90593 126.299 9.90593V9.15625ZM126.299 6.55859V5.80892C125.885 5.80892 125.549 6.14456 125.549 6.55859H126.299ZM129.361 6.55859V7.30827C129.775 7.30827 130.111 6.97263 130.111 6.55859H129.361ZM129.361 3.27734H130.111C130.111 2.86331 129.775 2.52767 129.361 2.52767V3.27734ZM126.135 3.27734H125.385C125.385 3.69138 125.721 4.02702 126.135 4.02702V3.27734ZM126.135 0.679688V-0.0699887C125.721 -0.0699887 125.385 0.265653 125.385 0.679688H126.135ZM146.834 10.4688H147.584C147.584 10.0547 147.248 9.71907 146.834 9.71907V10.4688ZM146.834 13.2031V13.9528C147.248 13.9528 147.584 13.6172 147.584 13.2031H146.834ZM124.139 13.2031H123.389C123.389 13.6172 123.725 13.9528 124.139 13.9528V13.2031ZM124.139 10.4688V9.71907C123.725 9.71907 123.389 10.0547 123.389 10.4688H124.139ZM144.072 14.625H144.822C144.822 14.211 144.486 13.8753 144.072 13.8753V14.625ZM144.072 20.7773V21.527C144.486 21.527 144.822 21.1914 144.822 20.7773H144.072ZM130.209 20.7773V20.0277C129.795 20.0277 129.459 20.3633 129.459 20.7773H130.209ZM130.209 22.1445H129.459C129.459 22.5586 129.795 22.8942 130.209 22.8942V22.1445ZM144.729 22.1445H145.478C145.478 21.7305 145.143 21.3949 144.729 21.3949V22.1445ZM144.729 24.7148V25.4645C145.143 25.4645 145.478 25.1289 145.478 24.7148H144.729ZM126.791 24.7148H126.041C126.041 25.1289 126.377 25.4645 126.791 25.4645V24.7148ZM126.791 18.3984V17.6488C126.377 17.6488 126.041 17.9844 126.041 18.3984H126.791ZM140.627 18.3984V19.1481C141.041 19.1481 141.377 18.8125 141.377 18.3984H140.627ZM140.627 17.1406H141.377C141.377 16.7266 141.041 16.3909 140.627 16.3909V17.1406ZM126.764 17.1406H126.014C126.014 17.5547 126.35 17.8903 126.764 17.8903V17.1406ZM126.764 14.625V13.8753C126.35 13.8753 126.014 14.211 126.014 14.625H126.764ZM132.861 6.55859H132.112C132.112 6.97263 132.447 7.30827 132.861 7.30827V6.55859ZM138.057 6.55859V7.30827C138.471 7.30827 138.806 6.97263 138.806 6.55859H138.057ZM138.057 3.27734H138.806C138.806 2.86331 138.471 2.52767 138.057 2.52767V3.27734ZM132.861 3.27734V2.52767C132.447 2.52767 132.112 2.86331 132.112 3.27734H132.861ZM144.811 0.679688H144.061V3.27734H144.811H145.56V0.679688H144.811ZM144.811 3.27734V2.52767H141.557V3.27734V4.02702H144.811V3.27734ZM141.557 3.27734H140.807V6.55859H141.557H142.306V3.27734H141.557ZM141.557 6.55859V7.30827H144.646V6.55859V5.80892H141.557V6.55859ZM144.646 6.55859H143.897V9.15625H144.646H145.396V6.55859H144.646ZM144.646 9.15625V8.40657H126.299V9.15625V9.90593H144.646V9.15625ZM126.299 9.15625H127.049V6.55859H126.299H125.549V9.15625H126.299ZM126.299 6.55859V7.30827H129.361V6.55859V5.80892H126.299V6.55859ZM129.361 6.55859H130.111V3.27734H129.361H128.612V6.55859H129.361ZM129.361 3.27734V2.52767H126.135V3.27734V4.02702H129.361V3.27734ZM126.135 3.27734H126.884V0.679688H126.135H125.385V3.27734H126.135ZM126.135 0.679688V1.42936H144.811V0.679688V-0.0699887H126.135V0.679688ZM146.834 10.4688H146.084V13.2031H146.834H147.584V10.4688H146.834ZM146.834 13.2031V12.4534H124.139V13.2031V13.9528H146.834V13.2031ZM124.139 13.2031H124.888V10.4688H124.139H123.389V13.2031H124.139ZM124.139 10.4688V11.2184H146.834V10.4688V9.71907H124.139V10.4688ZM144.072 14.625H143.323V20.7773H144.072H144.822V14.625H144.072ZM144.072 20.7773V20.0277H130.209V20.7773V21.527H144.072V20.7773ZM130.209 20.7773H129.459V22.1445H130.209H130.959V20.7773H130.209ZM130.209 22.1445V22.8942H144.729V22.1445V21.3949H130.209V22.1445ZM144.729 22.1445H143.979V24.7148H144.729H145.478V22.1445H144.729ZM144.729 24.7148V23.9652H126.791V24.7148V25.4645H144.729V24.7148ZM126.791 24.7148H127.541V18.3984H126.791H126.041V24.7148H126.791ZM126.791 18.3984V19.1481H140.627V18.3984V17.6488H126.791V18.3984ZM140.627 18.3984H141.377V17.1406H140.627H139.877V18.3984H140.627ZM140.627 17.1406V16.3909H126.764V17.1406V17.8903H140.627V17.1406ZM126.764 17.1406H127.513V14.625H126.764H126.014V17.1406H126.764ZM126.764 14.625V15.3747H144.072V14.625V13.8753H126.764V14.625ZM132.861 6.55859V7.30827H138.057V6.55859V5.80892H132.861V6.55859ZM138.057 6.55859H138.806V3.27734H138.057H137.307V6.55859H138.057ZM138.057 3.27734V2.52767H132.861V3.27734V4.02702H138.057V3.27734ZM132.861 3.27734H132.112V6.55859H132.861H133.611V3.27734H132.861ZM167.52 0.0234375H168.27C168.27 -0.390597 167.934 -0.726239 167.52 -0.726239V0.0234375ZM167.52 7.16016H166.77C166.77 7.57419 167.106 7.90983 167.52 7.90983V7.16016ZM170.883 7.16016H171.633C171.633 6.74612 171.297 6.41048 170.883 6.41048V7.16016ZM170.883 10.0859V10.8356C171.297 10.8356 171.633 10.5 171.633 10.0859H170.883ZM167.52 10.0859V9.33626C167.106 9.33626 166.77 9.6719 166.77 10.0859H167.52ZM167.52 18.3438V19.0934C167.934 19.0934 168.27 18.7578 168.27 18.3438H167.52ZM164.02 18.3438H163.27C163.27 18.7578 163.606 19.0934 164.02 19.0934V18.3438ZM164.02 0.0234375V-0.726239C163.606 -0.726239 163.27 -0.390597 163.27 0.0234375H164.02ZM168.477 21.6523H169.227C169.227 21.2383 168.891 20.9027 168.477 20.9027V21.6523ZM168.477 24.4414V25.1911C168.891 25.1911 169.227 24.8554 169.227 24.4414H168.477ZM151.469 24.4414H150.72C150.72 24.8554 151.055 25.1911 151.469 25.1911V24.4414ZM151.469 16.8672V16.1175C151.055 16.1175 150.72 16.4532 150.72 16.8672H151.469ZM154.997 16.8672H155.746C155.746 16.4532 155.411 16.1175 154.997 16.1175V16.8672ZM154.997 21.6523H154.247C154.247 22.0664 154.583 22.402 154.997 22.402V21.6523ZM160.083 1.52734H160.832C160.832 1.11331 160.497 0.777668 160.083 0.777668V1.52734ZM160.083 9.32031V10.07C160.497 10.07 160.832 9.73435 160.832 9.32031H160.083ZM152.153 9.32031V8.57064C151.739 8.57064 151.403 8.90628 151.403 9.32031H152.153ZM152.153 11.9453H151.403C151.403 12.1446 151.483 12.3356 151.624 12.4763C151.765 12.617 151.956 12.6956 152.155 12.695L152.153 11.9453ZM162.215 11.1797L162.958 11.0787C162.931 10.8759 162.821 10.6932 162.656 10.573C162.49 10.4528 162.283 10.4055 162.081 10.4421L162.215 11.1797ZM162.598 13.9961L162.733 14.7335C163.127 14.6613 163.395 14.2921 163.341 13.8951L162.598 13.9961ZM148.68 14.7617H147.931C147.931 15.1758 148.266 15.5114 148.68 15.5114V14.7617ZM148.68 6.69531V5.94564C148.266 5.94564 147.931 6.28128 147.931 6.69531H148.68ZM156.692 6.69531V7.44499C157.106 7.44499 157.442 7.10935 157.442 6.69531H156.692ZM156.692 4.31641H157.442C157.442 3.90237 157.106 3.56673 156.692 3.56673V4.31641ZM148.653 4.31641H147.903C147.903 4.73044 148.239 5.06608 148.653 5.06608V4.31641ZM148.653 1.52734V0.777668C148.239 0.777668 147.903 1.11331 147.903 1.52734H148.653ZM167.52 0.0234375H166.77V7.16016H167.52H168.27V0.0234375H167.52ZM167.52 7.16016V7.90983H170.883V7.16016V6.41048H167.52V7.16016ZM170.883 7.16016H170.134V10.0859H170.883H171.633V7.16016H170.883ZM170.883 10.0859V9.33626H167.52V10.0859V10.8356H170.883V10.0859ZM167.52 10.0859H166.77V18.3438H167.52H168.27V10.0859H167.52ZM167.52 18.3438V17.5941H164.02V18.3438V19.0934H167.52V18.3438ZM164.02 18.3438H164.77V0.0234375H164.02H163.27V18.3438H164.02ZM164.02 0.0234375V0.773114H167.52V0.0234375V-0.726239H164.02V0.0234375ZM168.477 21.6523H167.727V24.4414H168.477H169.227V21.6523H168.477ZM168.477 24.4414V23.6917H151.469V24.4414V25.1911H168.477V24.4414ZM151.469 24.4414H152.219V16.8672H151.469H150.72V24.4414H151.469ZM151.469 16.8672V17.6169H154.997V16.8672V16.1175H151.469V16.8672ZM154.997 16.8672H154.247V21.6523H154.997H155.746V16.8672H154.997ZM154.997 21.6523V22.402H168.477V21.6523V20.9027H154.997V21.6523ZM160.083 1.52734H159.333V9.32031H160.083H160.832V1.52734H160.083ZM160.083 9.32031V8.57064H152.153V9.32031V10.07H160.083V9.32031ZM152.153 9.32031H151.403V11.9453H152.153H152.903V9.32031H152.153ZM152.153 11.9453L152.155 12.695C156.294 12.6812 159.132 12.5023 162.35 11.9173L162.215 11.1797L162.081 10.4421C158.983 11.0055 156.242 11.182 152.15 11.1956L152.153 11.9453ZM162.215 11.1797L161.473 11.2807L161.855 14.0971L162.598 13.9961L163.341 13.8951L162.958 11.0787L162.215 11.1797ZM162.598 13.9961L162.463 13.2587C158.952 13.902 155.81 14.012 150.786 14.012V14.7617V15.5114C155.824 15.5114 159.08 15.4027 162.733 14.7335L162.598 13.9961ZM150.786 14.7617V14.012H148.68V14.7617V15.5114H150.786V14.7617ZM148.68 14.7617H149.43V6.69531H148.68H147.931V14.7617H148.68ZM148.68 6.69531V7.44499H156.692V6.69531V5.94564H148.68V6.69531ZM156.692 6.69531H157.442V4.31641H156.692H155.942V6.69531H156.692ZM156.692 4.31641V3.56673H148.653V4.31641V5.06608H156.692V4.31641ZM148.653 4.31641H149.403V1.52734H148.653H147.903V4.31641H148.653ZM148.653 1.52734V2.27702H160.083V1.52734V0.777668H148.653V1.52734ZM191.706 12.8477H192.456C192.456 12.4336 192.12 12.098 191.706 12.098V12.8477ZM191.706 15.6094V16.3591C192.12 16.3591 192.456 16.0234 192.456 15.6094H191.706ZM174.097 15.6094H173.347C173.347 16.0234 173.683 16.3591 174.097 16.3591V15.6094ZM174.097 1.82812V1.07845C173.683 1.07845 173.347 1.41409 173.347 1.82812H174.097ZM191.515 1.82812H192.264C192.264 1.41409 191.929 1.07845 191.515 1.07845V1.82812ZM191.515 4.64453V5.39421C191.929 5.39421 192.264 5.05857 192.264 4.64453H191.515ZM177.651 4.64453V3.89486C177.237 3.89486 176.902 4.2305 176.902 4.64453H177.651ZM177.651 7.26953H176.902C176.902 7.68357 177.237 8.01921 177.651 8.01921V7.26953ZM190.941 7.26953H191.69C191.69 6.8555 191.355 6.51986 190.941 6.51986V7.26953ZM190.941 10.0039V10.7536C191.355 10.7536 191.69 10.4179 191.69 10.0039H190.941ZM177.651 10.0039V9.25423C177.237 9.25423 176.902 9.58987 176.902 10.0039H177.651ZM177.651 12.8477H176.902C176.902 13.2617 177.237 13.5973 177.651 13.5973V12.8477ZM194.194 19.1367H194.944C194.944 18.7227 194.608 18.387 194.194 18.387V19.1367ZM194.194 21.9805V22.7301C194.608 22.7301 194.944 22.3945 194.944 21.9805H194.194ZM171.417 21.9805H170.667C170.667 22.3945 171.003 22.7301 171.417 22.7301V21.9805ZM171.417 19.1367V18.387C171.003 18.387 170.667 18.7227 170.667 19.1367H171.417ZM191.706 12.8477H190.956V15.6094H191.706H192.456V12.8477H191.706ZM191.706 15.6094V14.8597H174.097V15.6094V16.3591H191.706V15.6094ZM174.097 15.6094H174.846V1.82812H174.097H173.347V15.6094H174.097ZM174.097 1.82812V2.5778H191.515V1.82812V1.07845H174.097V1.82812ZM191.515 1.82812H190.765V4.64453H191.515H192.264V1.82812H191.515ZM191.515 4.64453V3.89486H177.651V4.64453V5.39421H191.515V4.64453ZM177.651 4.64453H176.902V7.26953H177.651H178.401V4.64453H177.651ZM177.651 7.26953V8.01921H190.941V7.26953V6.51986H177.651V7.26953ZM190.941 7.26953H190.191V10.0039H190.941H191.69V7.26953H190.941ZM190.941 10.0039V9.25423H177.651V10.0039V10.7536H190.941V10.0039ZM177.651 10.0039H176.902V12.8477H177.651H178.401V10.0039H177.651ZM177.651 12.8477V13.5973H191.706V12.8477V12.098H177.651V12.8477ZM194.194 19.1367H193.445V21.9805H194.194H194.944V19.1367H194.194ZM194.194 21.9805V21.2308H171.417V21.9805V22.7301H194.194V21.9805ZM171.417 21.9805H172.167V19.1367H171.417H170.667V21.9805H171.417ZM171.417 19.1367V19.8864H194.194V19.1367V18.387H171.417V19.1367ZM223.727 19.1367H224.476C224.476 18.7227 224.141 18.387 223.727 18.387V19.1367ZM223.727 21.9805V22.7301C224.141 22.7301 224.476 22.3945 224.476 21.9805H223.727ZM200.949 21.9805H200.2C200.2 22.3945 200.535 22.7301 200.949 22.7301V21.9805ZM200.949 19.1367V18.387C200.535 18.387 200.2 18.7227 200.2 19.1367H200.949ZM210.547 19.1367V19.8864C210.961 19.8864 211.297 19.5508 211.297 19.1367H210.547ZM210.547 14.543H211.297C211.297 14.1289 210.961 13.7933 210.547 13.7933V14.543ZM203.356 14.543H202.606C202.606 14.957 202.942 15.2926 203.356 15.2926V14.543ZM203.356 1.58203V0.832355C202.942 0.832355 202.606 1.168 202.606 1.58203H203.356ZM206.856 1.58203H207.605C207.605 1.168 207.27 0.832355 206.856 0.832355V1.58203ZM206.856 5.4375H206.106C206.106 5.85153 206.442 6.18718 206.856 6.18718V5.4375ZM217.711 5.4375V6.18718C218.125 6.18718 218.461 5.85153 218.461 5.4375H217.711ZM217.711 1.58203V0.832355C217.297 0.832355 216.961 1.168 216.961 1.58203H217.711ZM221.184 1.58203H221.934C221.934 1.168 221.598 0.832355 221.184 0.832355V1.58203ZM221.184 14.543V15.2926C221.598 15.2926 221.934 14.957 221.934 14.543H221.184ZM214.02 14.543V13.7933C213.606 13.7933 213.27 14.1289 213.27 14.543H214.02ZM214.02 19.1367H213.27C213.27 19.5508 213.606 19.8864 214.02 19.8864V19.1367ZM206.856 11.7539H206.106C206.106 12.1679 206.442 12.5036 206.856 12.5036V11.7539ZM217.711 11.7539V12.5036C218.125 12.5036 218.461 12.1679 218.461 11.7539H217.711ZM217.711 8.22656H218.461C218.461 7.81253 218.125 7.47689 217.711 7.47689V8.22656ZM206.856 8.22656V7.47689C206.442 7.47689 206.106 7.81253 206.106 8.22656H206.856ZM223.727 19.1367H222.977V21.9805H223.727H224.476V19.1367H223.727ZM223.727 21.9805V21.2308H200.949V21.9805V22.7301H223.727V21.9805ZM200.949 21.9805H201.699V19.1367H200.949H200.2V21.9805H200.949ZM200.949 19.1367V19.8864H210.547V19.1367V18.387H200.949V19.1367ZM210.547 19.1367H211.297V14.543H210.547H209.797V19.1367H210.547ZM210.547 14.543V13.7933H203.356V14.543V15.2926H210.547V14.543ZM203.356 14.543H204.105V1.58203H203.356H202.606V14.543H203.356ZM203.356 1.58203V2.33171H206.856V1.58203V0.832355H203.356V1.58203ZM206.856 1.58203H206.106V5.4375H206.856H207.605V1.58203H206.856ZM206.856 5.4375V6.18718H217.711V5.4375V4.68782H206.856V5.4375ZM217.711 5.4375H218.461V1.58203H217.711H216.961V5.4375H217.711ZM217.711 1.58203V2.33171H221.184V1.58203V0.832355H217.711V1.58203ZM221.184 1.58203H220.434V14.543H221.184H221.934V1.58203H221.184ZM221.184 14.543V13.7933H214.02V14.543V15.2926H221.184V14.543ZM214.02 14.543H213.27V19.1367H214.02H214.769V14.543H214.02ZM214.02 19.1367V19.8864H223.727V19.1367V18.387H214.02V19.1367ZM206.856 11.7539V12.5036H217.711V11.7539V11.0042H206.856V11.7539ZM217.711 11.7539H218.461V8.22656H217.711H216.961V11.7539H217.711ZM217.711 8.22656V7.47689H206.856V8.22656V8.97624H217.711V8.22656ZM206.856 8.22656H206.106V11.7539H206.856H207.605V8.22656H206.856ZM247.284 11.4531H248.034C248.034 11.0391 247.698 10.7034 247.284 10.7034V11.4531ZM247.284 14.2695V15.0192C247.698 15.0192 248.034 14.6836 248.034 14.2695H247.284ZM224.589 14.2695H223.839C223.839 14.6836 224.175 15.0192 224.589 15.0192V14.2695ZM224.589 11.4531V10.7034C224.175 10.7034 223.839 11.0391 223.839 11.4531H224.589ZM244.577 20.2852L245.327 20.2921L245.327 20.2782L244.577 20.2852ZM230.741 20.2852L231.491 20.3011C231.491 20.2906 231.491 20.2801 231.491 20.2695L230.741 20.2852ZM241.077 20.2852L241.826 20.3011C241.827 20.2906 241.827 20.2801 241.826 20.2695L241.077 20.2852ZM245.233 1.14453H245.983C245.983 0.730496 245.647 0.394855 245.233 0.394855V1.14453ZM245.233 3.93359V4.68327C245.647 4.68327 245.983 4.34763 245.983 3.93359H245.233ZM238.452 3.93359V3.18392C238.212 3.18392 237.987 3.29856 237.846 3.49237C237.705 3.68618 237.665 3.93578 237.739 4.16391L238.452 3.93359ZM246.327 7.81641L247.011 8.12405C247.11 7.90275 247.096 7.64695 246.974 7.43755C246.851 7.22815 246.635 7.09106 246.393 7.06965L246.327 7.81641ZM245.096 10.5508L245.025 11.297C245.344 11.3278 245.648 11.1514 245.78 10.8584L245.096 10.5508ZM235.909 5.90234L236.566 5.54206C236.435 5.30143 236.182 5.15207 235.907 5.15267C235.633 5.15327 235.381 5.30373 235.25 5.54493L235.909 5.90234ZM226.749 10.5508L226.058 10.8411C226.185 11.1435 226.493 11.3282 226.82 11.2971L226.749 10.5508ZM225.6 7.81641L225.533 7.06979C225.295 7.09137 225.081 7.22521 224.958 7.43008C224.835 7.63495 224.817 7.8863 224.909 8.10671L225.6 7.81641ZM233.421 3.93359L234.131 4.17233C234.208 3.9436 234.17 3.69187 234.029 3.49596C233.889 3.30005 233.662 3.18392 233.421 3.18392V3.93359ZM226.667 3.93359H225.917C225.917 4.34763 226.253 4.68327 226.667 4.68327V3.93359ZM226.667 1.14453V0.394855C226.253 0.394855 225.917 0.730496 225.917 1.14453H226.667ZM247.284 11.4531H246.534V14.2695H247.284H248.034V11.4531H247.284ZM247.284 14.2695V13.5199H224.589V14.2695V15.0192H247.284V14.2695ZM224.589 14.2695H225.338V11.4531H224.589H223.839V14.2695H224.589ZM224.589 11.4531V12.2028H247.284V11.4531V10.7034H224.589V11.4531ZM235.909 15.6641V16.4137C238.541 16.4137 240.563 16.8306 241.902 17.5399C243.21 18.2331 243.817 19.1674 243.827 20.2922L244.577 20.2852L245.327 20.2782C245.31 18.4771 244.276 17.1009 242.604 16.215C240.962 15.3452 238.664 14.9144 235.909 14.9144V15.6641ZM244.577 20.2852L243.827 20.2782C243.817 21.4168 243.21 22.3427 241.905 23.0251C240.567 23.7251 238.544 24.1292 235.909 24.1292V24.8789V25.6286C238.66 25.6286 240.958 25.2124 242.6 24.3538C244.276 23.4776 245.31 22.1067 245.327 20.2921L244.577 20.2852ZM235.909 24.8789V24.1292C233.245 24.1292 231.202 23.7248 229.853 23.0242C228.537 22.3411 227.936 21.4173 227.936 20.2852H227.186H226.437C226.437 22.1061 227.476 23.4793 229.162 24.3548C230.814 25.2127 233.131 25.6286 235.909 25.6286V24.8789ZM227.186 20.2852H227.936C227.936 19.1668 228.537 18.2348 229.856 17.5409C231.206 16.8309 233.249 16.4137 235.909 16.4137V15.6641V14.9144C233.128 14.9144 230.81 15.3449 229.158 16.214C227.476 17.0991 226.437 18.4777 226.437 20.2852H227.186ZM235.909 18.3711V17.6214C234.165 17.6214 232.759 17.7707 231.767 18.1314C231.266 18.3135 230.817 18.5683 230.492 18.9345C230.151 19.3184 229.981 19.786 229.992 20.3008L230.741 20.2852L231.491 20.2695C231.488 20.1281 231.526 20.0283 231.613 19.9302C231.716 19.8146 231.915 19.6728 232.279 19.5405C233.017 19.2723 234.207 19.1208 235.909 19.1208V18.3711ZM230.741 20.2852L229.992 20.2692C229.981 20.7818 230.154 21.2457 230.496 21.6245C230.822 21.9852 231.269 22.2362 231.769 22.4159C232.759 22.7721 234.165 22.9216 235.909 22.9216V22.1719V21.4222C234.208 21.4222 233.016 21.2708 232.276 21.005C231.911 20.8737 231.711 20.7333 231.609 20.6198C231.523 20.5244 231.488 20.4311 231.491 20.3011L230.741 20.2852ZM235.909 22.1719V22.9216C237.615 22.9216 239.005 22.7717 239.997 22.4162C240.994 22.0588 241.803 21.3974 241.826 20.3011L241.077 20.2852L240.327 20.2692C240.323 20.458 240.23 20.74 239.491 21.0047C238.747 21.2713 237.566 21.4222 235.909 21.4222V22.1719ZM241.077 20.2852L241.826 20.2695C241.816 19.7553 241.627 19.2967 241.281 18.9232C240.95 18.5649 240.501 18.3127 239.999 18.1311C239.006 17.7711 237.614 17.6214 235.909 17.6214V18.3711V19.1208C237.567 19.1208 238.746 19.2718 239.489 19.5408C239.855 19.6736 240.066 19.8179 240.181 19.9416C240.281 20.0499 240.324 20.1587 240.327 20.3008L241.077 20.2852ZM245.233 1.14453H244.484V3.93359H245.233H245.983V1.14453H245.233ZM245.233 3.93359V3.18392H238.452V3.93359V4.68327H245.233V3.93359ZM238.452 3.93359L237.739 4.16391C238.098 5.27651 239.044 6.27011 240.45 7.02717C241.863 7.7885 243.797 8.3449 246.261 8.56316L246.327 7.81641L246.393 7.06965C244.072 6.86409 242.349 6.34725 241.161 5.7072C239.965 5.0629 239.367 4.32701 239.165 3.70328L238.452 3.93359ZM246.327 7.81641L245.643 7.50877L244.413 10.2431L245.096 10.5508L245.78 10.8584L247.011 8.12405L246.327 7.81641ZM245.096 10.5508L245.168 9.80455C240.599 9.3649 237.723 7.65208 236.566 5.54206L235.909 5.90234L235.252 6.26263C236.748 8.99245 240.216 10.8343 245.025 11.297L245.096 10.5508ZM235.909 5.90234L235.25 5.54493C234.106 7.65359 231.286 9.36498 226.678 9.80449L226.749 10.5508L226.82 11.2971C231.673 10.8342 235.087 8.99094 236.568 6.25976L235.909 5.90234ZM226.749 10.5508L227.44 10.2605L226.292 7.52611L225.6 7.81641L224.909 8.10671L226.058 10.8411L226.749 10.5508ZM225.6 7.81641L225.668 8.56302C228.079 8.34452 229.991 7.79111 231.399 7.03227C232.799 6.27794 233.757 5.28708 234.131 4.17233L233.421 3.93359L232.71 3.69486C232.497 4.33011 231.882 5.06874 230.688 5.71236C229.502 6.35146 227.798 6.86446 225.533 7.06979L225.6 7.81641ZM233.421 3.93359V3.18392H226.667V3.93359V4.68327H233.421V3.93359ZM226.667 3.93359H227.416V1.14453H226.667H225.917V3.93359H226.667ZM226.667 1.14453V1.89421H245.233V1.14453V0.394855H226.667V1.14453ZM269.747 -0.00390625H270.497C270.497 -0.417941 270.161 -0.753582 269.747 -0.753582V-0.00390625ZM269.747 24.8789V25.6286C270.161 25.6286 270.497 25.2929 270.497 24.8789H269.747ZM266.439 24.8789H265.689C265.689 25.2929 266.025 25.6286 266.439 25.6286V24.8789ZM266.439 -0.00390625V-0.753582C266.025 -0.753582 265.689 -0.417941 265.689 -0.00390625H266.439ZM264.661 0.40625H265.411C265.411 -0.00778484 265.076 -0.343426 264.661 -0.343426V0.40625ZM264.661 23.7305V24.4801C265.076 24.4801 265.411 24.1445 265.411 23.7305H264.661ZM261.38 23.7305H260.631C260.631 24.1445 260.966 24.4801 261.38 24.4801V23.7305ZM261.38 11.3438H262.13C262.13 10.9297 261.794 10.5941 261.38 10.5941V11.3438ZM258.099 11.3438H257.349C257.349 11.7578 257.685 12.0934 258.099 12.0934V11.3438ZM258.099 8.52734V7.77767C257.685 7.77767 257.349 8.11331 257.349 8.52734H258.099ZM261.38 8.52734V9.27702C261.794 9.27702 262.13 8.94138 262.13 8.52734H261.38ZM261.38 0.40625V-0.343426C260.966 -0.343426 260.631 -0.00778484 260.631 0.40625H261.38ZM261.025 17.0586L261.611 17.5262C261.747 17.355 261.802 17.1327 261.761 16.9177C261.72 16.7026 261.587 16.5163 261.397 16.4077L261.025 17.0586ZM258.974 19.6289L258.592 20.2738C258.914 20.4645 259.327 20.3888 259.56 20.0965L258.974 19.6289ZM254.462 13.4219L255.178 13.1981C255.079 12.8833 254.787 12.6699 254.457 12.6722C254.127 12.6746 253.838 12.8922 253.744 13.2083L254.462 13.4219ZM249.814 20.1758L249.234 20.6508C249.471 20.9403 249.885 21.0106 250.205 20.8156L249.814 20.1758ZM247.708 17.6055L247.317 16.966C247.132 17.0791 247.005 17.2667 246.969 17.4804C246.933 17.694 246.991 17.9129 247.128 18.0805L247.708 17.6055ZM252.74 5.32812H253.489C253.489 4.91409 253.154 4.57845 252.74 4.57845V5.32812ZM248.665 5.32812H247.916C247.916 5.74216 248.251 6.0778 248.665 6.0778V5.32812ZM248.665 2.53906V1.78939C248.251 1.78939 247.916 2.12503 247.916 2.53906H248.665ZM259.876 2.53906H260.626C260.626 2.12503 260.29 1.78939 259.876 1.78939V2.53906ZM259.876 5.32812V6.0778C260.29 6.0778 260.626 5.74216 260.626 5.32812H259.876ZM256.103 5.32812V4.57845C255.689 4.57845 255.353 4.91409 255.353 5.32812H256.103ZM269.747 -0.00390625H268.998V24.8789H269.747H270.497V-0.00390625H269.747ZM269.747 24.8789V24.1292H266.439V24.8789V25.6286H269.747V24.8789ZM266.439 24.8789H267.189V-0.00390625H266.439H265.689V24.8789H266.439ZM266.439 -0.00390625V0.74577H269.747V-0.00390625V-0.753582H266.439V-0.00390625ZM264.661 0.40625H263.912V23.7305H264.661H265.411V0.40625H264.661ZM264.661 23.7305V22.9808H261.38V23.7305V24.4801H264.661V23.7305ZM261.38 23.7305H262.13V11.3438H261.38H260.631V23.7305H261.38ZM261.38 11.3438V10.5941H258.099V11.3438V12.0934H261.38V11.3438ZM258.099 11.3438H258.849V8.52734H258.099H257.349V11.3438H258.099ZM258.099 8.52734V9.27702H261.38V8.52734V7.77767H258.099V8.52734ZM261.38 8.52734H262.13V0.40625H261.38H260.631V8.52734H261.38ZM261.38 0.40625V1.15593H264.661V0.40625V-0.343426H261.38V0.40625ZM256.103 6.66797H255.353C255.353 10.9088 256.672 15.4349 260.653 17.7095L261.025 17.0586L261.397 16.4077C258.104 14.526 256.853 10.685 256.853 6.66797H256.103ZM261.025 17.0586L260.439 16.591L258.388 19.1613L258.974 19.6289L259.56 20.0965L261.611 17.5262L261.025 17.0586ZM258.974 19.6289L259.356 18.984C257.346 17.7929 255.975 15.7455 255.178 13.1981L254.462 13.4219L253.747 13.6457C254.618 16.4303 256.172 18.8399 258.592 20.2738L258.974 19.6289ZM254.462 13.4219L253.744 13.2083C252.913 16.0037 251.492 18.2722 249.423 19.536L249.814 20.1758L250.205 20.8156C252.702 19.2903 254.289 16.6369 255.181 13.6354L254.462 13.4219ZM249.814 20.1758L250.394 19.7007L248.288 17.1304L247.708 17.6055L247.128 18.0805L249.234 20.6508L249.814 20.1758ZM247.708 17.6055L248.1 18.2449C252.089 15.8037 253.489 10.9914 253.489 6.66797H252.74H251.99C251.99 10.7664 250.656 14.9228 247.317 16.966L247.708 17.6055ZM252.74 6.66797H253.489V5.32812H252.74H251.99V6.66797H252.74ZM252.74 5.32812V4.57845H248.665V5.32812V6.0778H252.74V5.32812ZM248.665 5.32812H249.415V2.53906H248.665H247.916V5.32812H248.665ZM248.665 2.53906V3.28874H259.876V2.53906V1.78939H248.665V2.53906ZM259.876 2.53906H259.127V5.32812H259.876H260.626V2.53906H259.876ZM259.876 5.32812V4.57845H256.103V5.32812V6.0778H259.876V5.32812ZM256.103 5.32812H255.353V6.66797H256.103H256.853V5.32812H256.103Z" fill="url(#paint1_linear_1_4924)" mask="url(#path-1-inside-1_1_4924)"/>
</g>
<defs>
<filter id="filter0_ddi_1_4924" x="0.0495605" y="-0.00390625" width="269.698" height="24.8828" filterUnits="userSpaceOnUse" color-interpolation-filters="sRGB">
<feFlood flood-opacity="0" result="BackgroundImageFix"/>
<feColorMatrix in="SourceAlpha" type="matrix" values="0 0 0 0 0 0 0 0 0 0 0 0 0 0 0 0 0 0 127 0" result="hardAlpha"/>
<feOffset/>
<feComposite in2="hardAlpha" operator="out"/>
<feColorMatrix type="matrix" values="0 0 0 0 1 0 0 0 0 1 0 0 0 0 1 0 0 0 1 0"/>
<feBlend mode="normal" in2="BackgroundImageFix" result="effect1_dropShadow_1_4924"/>
<feColorMatrix in="SourceAlpha" type="matrix" values="0 0 0 0 0 0 0 0 0 0 0 0 0 0 0 0 0 0 127 0" result="hardAlpha"/>
<feOffset/>
<feComposite in2="hardAlpha" operator="out"/>
<feColorMatrix type="matrix" values="0 0 0 0 1 0 0 0 0 1 0 0 0 0 1 0 0 0 1 0"/>
<feBlend mode="normal" in2="effect1_dropShadow_1_4924" result="effect2_dropShadow_1_4924"/>
<feBlend mode="normal" in="SourceGraphic" in2="effect2_dropShadow_1_4924" result="shape"/>
<feColorMatrix in="SourceAlpha" type="matrix" values="0 0 0 0 0 0 0 0 0 0 0 0 0 0 0 0 0 0 127 0" result="hardAlpha"/>
<feOffset dx="-1.49935" dy="-0.374838"/>
<feComposite in2="hardAlpha" operator="arithmetic" k2="-1" k3="1"/>
<feColorMatrix type="matrix" values="0 0 0 0 0.204167 0 0 0 0 0.153924 0 0 0 0 0.0944271 0 0 0 1 0"/>
<feBlend mode="normal" in2="shape" result="effect3_innerShadow_1_4924"/>
</filter>
<linearGradient id="paint0_linear_1_4924" x1="135.5" y1="-6.63672" x2="135.5" y2="31.3633" gradientUnits="userSpaceOnUse">
<stop stop-color="#AD8556"/>
<stop offset="1" stop-color="#F8CF68"/>
</linearGradient>
<linearGradient id="paint1_linear_1_4924" x1="135.5" y1="-6.63672" x2="135.5" y2="31.3633" gradientUnits="userSpaceOnUse">
<stop stop-color="#FFF3E6"/>
<stop offset="1" stop-color="#FFC685"/>
</linearGradient>
</defs>
</svg>
