<svg preserveAspectRatio="none" width="100%" height="100%" overflow="visible" style="display: block;" viewBox="0 0 24 24" fill="none" xmlns="http://www.w3.org/2000/svg">
<g id="Group">
<path id="Vector" d="M23.9999 12C23.9999 5.37234 18.627 0 11.9999 0C7.564 0 3.69081 2.40734 1.61367 5.98645L5.2814 9.0158C5.67256 9.40696 6.30699 9.40696 6.69871 9.0158L13.4449 3.44365C14.392 2.49652 16.0109 3.16764 16.0109 4.50649V23.3125C20.6658 21.6621 23.9999 17.2211 23.9999 12.0006V12Z" fill="var(--fill-0, #398BFF)"/>
<path id="Vector_2" d="M7.40715 14.3194C6.62427 15.1022 5.35541 15.1022 4.57253 14.3194L0.0462841 10.9497C0.0163688 11.2957 0 11.6462 0 12.0001C0 18.6272 5.37234 24.0001 12 24.0001C12.0011 24.0001 12.0017 24.0001 12.0028 24.0001V10.8983L7.40715 14.3199V14.3194Z" fill="var(--fill-0, #398BFF)"/>
<path id="Vector_3" d="M13.445 3.44314L6.69878 9.01529C6.30762 9.40645 5.67319 9.40645 5.28147 9.01529L1.61374 5.9865C0.753533 7.46872 0.202075 9.15245 0.0462891 10.9496L4.5731 14.3199C5.35598 15.1028 6.62484 15.1028 7.40772 14.3199L12.0034 10.8983V24.0001C13.4094 24.0001 14.7584 23.7568 16.012 23.3126V4.50598C16.012 3.16656 14.3932 2.49601 13.4461 3.44314H13.445Z" fill="var(--fill-0, white)"/>
</g>
</svg>
