<svg preserveAspectRatio="none" width="100%" height="100%" overflow="visible" style="display: block;" viewBox="0 0 478 201" fill="none" xmlns="http://www.w3.org/2000/svg">
<g id="Group 7284" opacity="0.6">
<g id="Rectangle 134" filter="url(#filter0_f_712_6150)">
<path d="M110.984 153.302C115.595 154.011 120.36 155.608 125.07 158.021L124.771 152.902C120.061 150.489 115.296 148.892 110.685 148.182L110.984 153.302Z" fill="var(--fill-0, #FFDB59)"/>
</g>
<g id="Group 76">
<g id="Rectangle 124" opacity="0.5" filter="url(#filter1_f_712_6150)">
<path d="M44.543 7.55371C48.3471 10.204 51.2844 13.3386 53.0777 16.6618L59.1739 14.6216C57.3805 11.2983 54.4432 8.16372 50.6391 5.51345L44.543 7.55371Z" fill="var(--fill-0, #FFDB59)"/>
</g>
<g id="Ellipse 5" filter="url(#filter2_f_712_6150)">
<ellipse cx="3.19844" cy="1.94477" rx="3.19844" ry="1.94477" transform="matrix(0.999933 -0.0115734 0.0323889 0.999475 27.498 28.2568)" fill="var(--fill-0, #8360E4)"/>
</g>
<g id="Ellipse 9" filter="url(#filter3_f_712_6150)">
<ellipse cx="3.19844" cy="1.94477" rx="3.19844" ry="1.94477" transform="matrix(0.999933 -0.0115734 0.0323889 0.999475 437.934 40.8779)" fill="var(--fill-0, #8360E4)"/>
</g>
<g id="Ellipse 6" filter="url(#filter4_f_712_6150)">
<ellipse cx="2.96593" cy="1.80632" rx="2.96593" ry="1.80632" transform="matrix(0.999696 0.0246533 -0.0688824 0.997625 456.342 101.618)" fill="var(--fill-0, #FFDB59)"/>
</g>
<g id="Ellipse 8" filter="url(#filter5_f_712_6150)">
<ellipse cx="2.96593" cy="1.80632" rx="2.96593" ry="1.80632" transform="matrix(-0.999696 0.0246533 0.0688824 0.997625 366.781 194.878)" fill="var(--fill-0, #FFDB59)"/>
</g>
<g id="Rectangle 132" filter="url(#filter6_f_712_6150)">
<rect width="5.5291" height="5.59815" transform="matrix(-0.852374 0.522932 0.864215 0.503122 389.961 114.081)" fill="var(--fill-0, #8360E4)"/>
</g>
<g id="Rectangle 121" opacity="0.5" filter="url(#filter7_f_712_6150)">
<path d="M450.889 87.1924C457.29 82.8925 462.846 78.1398 467.401 73.069L472.934 75.3793C468.379 80.4501 462.822 85.2028 456.421 89.5027L450.889 87.1924Z" fill="var(--fill-0, #8360E4)"/>
</g>
<g id="Rectangle 133" filter="url(#filter8_f_712_6150)">
<path d="M5 93.2822C9.14151 90.6136 12.4029 87.4293 14.4955 84.0111L20.7008 86.281C18.6082 89.6992 15.3468 92.8835 11.2052 95.5522L5 93.2822Z" fill="var(--fill-0, #FFDB59)"/>
</g>
<g id="Rectangle 137" filter="url(#filter9_f_712_6150)">
<path d="M332.258 162.452C336.533 159.654 339.922 156.346 342.146 152.797L348.352 155.067C346.127 158.615 342.739 161.924 338.463 164.722L332.258 162.452Z" fill="var(--fill-0, #FFDB59)"/>
</g>
<g id="Rectangle 128" filter="url(#filter10_f_712_6150)">
<rect width="4.90743" height="3.02614" transform="matrix(0.995263 0.0972197 -0.263807 0.964575 361.381 17.8545)" fill="var(--fill-0, #8360E4)"/>
</g>
<g id="Rectangle 135" filter="url(#filter11_f_712_6150)">
<rect width="7.28743" height="4.49375" transform="matrix(-0.995263 0.0972197 0.263807 0.964575 111.111 155.444)" fill="var(--fill-0, #8360E4)"/>
</g>
<g id="Rectangle 130" filter="url(#filter12_f_712_6150)">
<path d="M377.256 34.0381C381.133 31.6764 385.718 29.816 390.821 28.5339L387.137 25.2911C382.034 26.5732 377.449 28.4336 373.572 30.7953L377.256 34.0381Z" fill="var(--fill-0, #FFDB59)"/>
</g>
<g id="Ellipse 7" filter="url(#filter13_f_712_6150)">
<ellipse cx="3.19844" cy="1.94477" rx="3.19844" ry="1.94477" transform="matrix(0.999933 -0.0115734 0.0323889 0.999475 20.6406 97.3545)" fill="var(--fill-0, #8360E4)"/>
</g>
</g>
<g id="Rectangle 136" filter="url(#filter14_f_712_6150)">
<path d="M129.533 46.8447C125.387 43.9059 122.132 40.4101 120.038 36.6459L113.832 39.143C115.927 42.9071 119.182 46.403 123.328 49.3418L129.533 46.8447Z" fill="var(--fill-0, #FFDB59)"/>
</g>
</g>
<defs>
<filter id="filter0_f_712_6150" x="108.81" y="146.307" width="18.1347" height="13.5888" filterUnits="userSpaceOnUse" color-interpolation-filters="sRGB">
<feFlood flood-opacity="0" result="BackgroundImageFix"/>
<feBlend mode="normal" in="SourceGraphic" in2="BackgroundImageFix" result="shape"/>
<feGaussianBlur stdDeviation="0.9375" result="effect1_foregroundBlur_712_6150"/>
</filter>
<filter id="filter1_f_712_6150" x="39.8555" y="0.825953" width="24.0059" height="20.5234" filterUnits="userSpaceOnUse" color-interpolation-filters="sRGB">
<feFlood flood-opacity="0" result="BackgroundImageFix"/>
<feBlend mode="normal" in="SourceGraphic" in2="BackgroundImageFix" result="shape"/>
<feGaussianBlur stdDeviation="2.34375" result="effect1_foregroundBlur_712_6150"/>
</filter>
<filter id="filter2_f_712_6150" x="25.6854" y="26.3445" width="10.1477" height="7.63823" filterUnits="userSpaceOnUse" color-interpolation-filters="sRGB">
<feFlood flood-opacity="0" result="BackgroundImageFix"/>
<feBlend mode="normal" in="SourceGraphic" in2="BackgroundImageFix" result="shape"/>
<feGaussianBlur stdDeviation="0.9375" result="effect1_foregroundBlur_712_6150"/>
</filter>
<filter id="filter3_f_712_6150" x="436.121" y="38.9656" width="10.1477" height="7.63823" filterUnits="userSpaceOnUse" color-interpolation-filters="sRGB">
<feFlood flood-opacity="0" result="BackgroundImageFix"/>
<feBlend mode="normal" in="SourceGraphic" in2="BackgroundImageFix" result="shape"/>
<feGaussianBlur stdDeviation="0.9375" result="effect1_foregroundBlur_712_6150"/>
</filter>
<filter id="filter4_f_712_6150" x="454.34" y="99.8148" width="9.68536" height="7.35708" filterUnits="userSpaceOnUse" color-interpolation-filters="sRGB">
<feFlood flood-opacity="0" result="BackgroundImageFix"/>
<feBlend mode="normal" in="SourceGraphic" in2="BackgroundImageFix" result="shape"/>
<feGaussianBlur stdDeviation="0.9375" result="effect1_foregroundBlur_712_6150"/>
</filter>
<filter id="filter5_f_712_6150" x="359.098" y="193.075" width="9.68536" height="7.35709" filterUnits="userSpaceOnUse" color-interpolation-filters="sRGB">
<feFlood flood-opacity="0" result="BackgroundImageFix"/>
<feBlend mode="normal" in="SourceGraphic" in2="BackgroundImageFix" result="shape"/>
<feGaussianBlur stdDeviation="0.9375" result="effect1_foregroundBlur_712_6150"/>
</filter>
<filter id="filter6_f_712_6150" x="383.373" y="112.206" width="13.3009" height="9.4579" filterUnits="userSpaceOnUse" color-interpolation-filters="sRGB">
<feFlood flood-opacity="0" result="BackgroundImageFix"/>
<feBlend mode="normal" in="SourceGraphic" in2="BackgroundImageFix" result="shape"/>
<feGaussianBlur stdDeviation="0.9375" result="effect1_foregroundBlur_712_6150"/>
</filter>
<filter id="filter7_f_712_6150" x="446.201" y="68.3815" width="31.4202" height="25.8087" filterUnits="userSpaceOnUse" color-interpolation-filters="sRGB">
<feFlood flood-opacity="0" result="BackgroundImageFix"/>
<feBlend mode="normal" in="SourceGraphic" in2="BackgroundImageFix" result="shape"/>
<feGaussianBlur stdDeviation="2.34375" result="effect1_foregroundBlur_712_6150"/>
</filter>
<filter id="filter8_f_712_6150" x="0.3125" y="79.3236" width="25.0758" height="20.9161" filterUnits="userSpaceOnUse" color-interpolation-filters="sRGB">
<feFlood flood-opacity="0" result="BackgroundImageFix"/>
<feBlend mode="normal" in="SourceGraphic" in2="BackgroundImageFix" result="shape"/>
<feGaussianBlur stdDeviation="2.34375" result="effect1_foregroundBlur_712_6150"/>
</filter>
<filter id="filter9_f_712_6150" x="327.57" y="148.11" width="25.4688" height="21.2998" filterUnits="userSpaceOnUse" color-interpolation-filters="sRGB">
<feFlood flood-opacity="0" result="BackgroundImageFix"/>
<feBlend mode="normal" in="SourceGraphic" in2="BackgroundImageFix" result="shape"/>
<feGaussianBlur stdDeviation="2.34375" result="effect1_foregroundBlur_712_6150"/>
</filter>
<filter id="filter10_f_712_6150" x="358.708" y="15.9795" width="9.4325" height="7.14604" filterUnits="userSpaceOnUse" color-interpolation-filters="sRGB">
<feFlood flood-opacity="0" result="BackgroundImageFix"/>
<feBlend mode="normal" in="SourceGraphic" in2="BackgroundImageFix" result="shape"/>
<feGaussianBlur stdDeviation="0.9375" result="effect1_foregroundBlur_712_6150"/>
</filter>
<filter id="filter11_f_712_6150" x="101.983" y="153.569" width="12.1884" height="8.79305" filterUnits="userSpaceOnUse" color-interpolation-filters="sRGB">
<feFlood flood-opacity="0" result="BackgroundImageFix"/>
<feBlend mode="normal" in="SourceGraphic" in2="BackgroundImageFix" result="shape"/>
<feGaussianBlur stdDeviation="0.9375" result="effect1_foregroundBlur_712_6150"/>
</filter>
<filter id="filter12_f_712_6150" x="371.697" y="23.4161" width="20.9992" height="12.497" filterUnits="userSpaceOnUse" color-interpolation-filters="sRGB">
<feFlood flood-opacity="0" result="BackgroundImageFix"/>
<feBlend mode="normal" in="SourceGraphic" in2="BackgroundImageFix" result="shape"/>
<feGaussianBlur stdDeviation="0.9375" result="effect1_foregroundBlur_712_6150"/>
</filter>
<filter id="filter13_f_712_6150" x="18.828" y="95.4421" width="10.1477" height="7.63823" filterUnits="userSpaceOnUse" color-interpolation-filters="sRGB">
<feFlood flood-opacity="0" result="BackgroundImageFix"/>
<feBlend mode="normal" in="SourceGraphic" in2="BackgroundImageFix" result="shape"/>
<feGaussianBlur stdDeviation="0.9375" result="effect1_foregroundBlur_712_6150"/>
</filter>
<filter id="filter14_f_712_6150" x="109.145" y="31.9584" width="25.0758" height="22.0709" filterUnits="userSpaceOnUse" color-interpolation-filters="sRGB">
<feFlood flood-opacity="0" result="BackgroundImageFix"/>
<feBlend mode="normal" in="SourceGraphic" in2="BackgroundImageFix" result="shape"/>
<feGaussianBlur stdDeviation="2.34375" result="effect1_foregroundBlur_712_6150"/>
</filter>
</defs>
</svg>
