<svg width="25" height="24" viewBox="0 0 25 24" fill="none" xmlns="http://www.w3.org/2000/svg">
<g clip-path="url(#clip0_1_2504)">
<path d="M10.5001 2L10.3501 2.005C9.84697 2.04284 9.37671 2.26947 9.03362 2.63945C8.69053 3.00943 8.49996 3.49542 8.50012 4V10.999L5.91412 11C5.51862 11.0001 5.13203 11.1174 4.80321 11.3372C4.47439 11.557 4.21811 11.8693 4.06677 12.2347C3.91543 12.6001 3.87582 13.0022 3.95296 13.3901C4.03009 13.778 4.22051 14.1343 4.50012 14.414L11.0861 21C11.4612 21.3749 11.9698 21.5856 12.5001 21.5856C13.0305 21.5856 13.5391 21.3749 13.9141 21L20.5001 14.414C20.78 14.1343 20.9706 13.7779 21.0479 13.3898C21.1251 13.0018 21.0855 12.5995 20.9341 12.234L20.8661 12.089C20.6984 11.7612 20.4435 11.4861 20.1294 11.294C19.8153 11.1018 19.4543 11.0001 19.0861 11L16.5001 10.999V4C16.5001 3.46957 16.2894 2.96086 15.9143 2.58579C15.5393 2.21071 15.0306 2 14.5001 2H10.5001Z" fill="#D2D6E1"/>
</g>
<defs>
<clipPath id="clip0_1_2504">
<rect width="24" height="24" fill="white" transform="translate(0.5)"/>
</clipPath>
</defs>
</svg>
