<svg width="311" height="27" viewBox="0 0 311 27" fill="none" xmlns="http://www.w3.org/2000/svg">
<g opacity="0.6">
<path d="M100.597 18.958C102.725 20.583 103.152 23.0205 100.175 24.6455" stroke="#006AFF" stroke-width="1.6" stroke-linecap="round"/>
<path d="M93.1352 3.14113C91.4585 4.74393 91.4585 7.34285 93.1352 8.94565L93.707 9.49222L94.2788 8.94565C95.9556 7.34285 95.9556 4.74393 94.2788 3.14113L93.707 2.59456L93.1352 3.14113Z" stroke="#006AFF" stroke-width="1.6"/>
<path d="M89.1346 8.61816C89.1349 10.9376 91.0154 12.8174 93.3348 12.8174L94.2733 12.8174L94.2733 12.1768C94.2733 9.85718 92.3927 7.97659 90.0731 7.97656L89.1346 7.97656L89.1346 8.61816Z" stroke="#006AFF" stroke-width="1.6"/>
<path d="M89.9055 15.3724C91.1048 17.3579 93.7235 18.059 95.7544 16.9382L96.5119 16.5202L96.1413 15.9066C94.9421 13.9211 92.3233 13.22 90.2924 14.3408L89.5349 14.7589L89.9055 15.3724Z" stroke="#006AFF" stroke-width="1.6"/>
<path d="M94.0738 19.5903C95.7506 21.1931 98.4695 21.1931 100.146 19.5903L100.718 19.0437L100.146 18.4971C98.4695 16.8943 95.7506 16.8943 94.0738 18.4971L93.502 19.0437L94.0738 19.5903Z" stroke="#006AFF" stroke-width="1.6"/>
</g>
<path d="M126.317 14.8125V16.4727H120.407V21.2041H118.315V16.4727H112.488V14.8125H126.317ZM116.207 6.67773V8.4209H122.549V6.67773H124.674V13.3516H114.115V6.67773H116.207ZM116.207 11.6582H122.549V10.0811H116.207V11.6582ZM132.435 8.68652C132.419 10.6123 133.515 12.4883 135.972 13.2852L134.859 14.9453C133.207 14.3892 132.07 13.3018 131.423 11.9238C130.742 13.4429 129.538 14.6299 127.787 15.2275L126.608 13.5508C129.182 12.7539 130.294 10.7285 130.31 8.66992V7.02637H132.435V8.68652ZM138.844 6.09668V10.4629H140.886V12.2559H138.844V17.1699H136.719V6.09668H138.844ZM139.408 19.2451V20.9385H129.032V16.0742H131.19V19.2451H139.408ZM156.774 6.11328V9.30078H158.816V11.0273H156.774V14.6299H154.649V6.11328H156.774ZM156.774 15.3105V21.0215H146.879V15.3105H156.774ZM148.955 16.9541V19.3613H154.699V16.9541H148.955ZM147.527 6.82715V12.0732C149.353 12.04 151.32 11.8657 153.42 11.459L153.67 13.1855C151.179 13.6836 148.838 13.8164 146.697 13.8164H145.402V6.82715H147.527ZM171.309 6.97656V8.33789C171.309 9.74902 171.309 11.293 170.927 13.4014H172.919V15.1113H167.026V21.2207H164.901V15.1113H159.14V13.4014H168.786C169.167 11.4507 169.201 9.97314 169.201 8.66992H160.717V6.97656H171.309ZM182.748 7.65723V19.6768H180.241V10.0312H180.175L177.419 11.7578V9.5498L180.391 7.65723H182.748ZM198.512 13.0029V14.7295H184.699V13.0029H198.512ZM196.935 10.2637V11.9404H186.376V6.49512H196.852V8.20508H188.484V10.2637H196.935ZM191.572 15.6426C194.843 15.6426 196.818 16.6387 196.835 18.415C196.818 20.208 194.843 21.2041 191.572 21.2041C188.268 21.2041 186.276 20.208 186.276 18.415C186.276 16.6387 188.268 15.6426 191.572 15.6426ZM191.572 17.2529C189.48 17.2529 188.418 17.6514 188.435 18.415C188.418 19.2119 189.48 19.5938 191.572 19.5938C193.614 19.5938 194.693 19.2119 194.71 18.415C194.693 17.6514 193.614 17.2529 191.572 17.2529Z" fill="#006AFF"/>
<g opacity="0.6">
<path d="M210.403 18.958C208.275 20.583 207.848 23.0205 210.825 24.6455" stroke="#006AFF" stroke-width="1.6" stroke-linecap="round"/>
<path d="M217.865 3.14113C219.542 4.74393 219.542 7.34285 217.865 8.94565L217.293 9.49222L216.721 8.94565C215.044 7.34285 215.044 4.74393 216.721 3.14113L217.293 2.59456L217.865 3.14113Z" stroke="#006AFF" stroke-width="1.6"/>
<path d="M221.865 8.61816C221.865 10.9376 219.985 12.8174 217.665 12.8174L216.727 12.8174L216.727 12.1768C216.727 9.85718 218.607 7.97659 220.927 7.97656L221.865 7.97656L221.865 8.61816Z" stroke="#006AFF" stroke-width="1.6"/>
<path d="M221.095 15.3717C219.895 17.3572 217.276 18.0583 215.246 16.9375L214.488 16.5195L214.859 15.9059C216.058 13.9204 218.677 13.2193 220.708 14.3401L221.465 14.7581L221.095 15.3717Z" stroke="#006AFF" stroke-width="1.6"/>
<path d="M216.926 19.5903C215.249 21.1931 212.531 21.1931 210.854 19.5903L210.282 19.0437L210.854 18.4971C212.531 16.8943 215.249 16.8943 216.926 18.4971L217.498 19.0437L216.926 19.5903Z" stroke="#006AFF" stroke-width="1.6"/>
</g>
</svg>
