<svg preserveAspectRatio="none" width="100%" height="100%" overflow="visible" style="display: block;" viewBox="0 0 34 24" fill="none" xmlns="http://www.w3.org/2000/svg">
<g id="flags / US">
<rect id="Mask" width="34" height="24" rx="2" fill="var(--fill-0, white)"/>
<mask id="mask0_728_6326" style="mask-type:luminance" maskUnits="userSpaceOnUse" x="0" y="0" width="34" height="24">
<rect id="Mask_2" width="34" height="24" rx="2" fill="var(--fill-0, white)"/>
</mask>
<g mask="url(#mask0_728_6326)">
<path id="Rectangle 511" d="M34 24H0V22.4004H34V24ZM34 20.7998H0V19.2002H34V20.7998ZM34 17.5996H0V16H34V17.5996ZM34 14.4004H0V12.7998H34V14.4004ZM34 11.2002H0V9.59961H34V11.2002ZM34 8H0V6.40039H34V8ZM34 4.7998H0V3.2002H34V4.7998ZM34 1.59961H0V0H34V1.59961Z" fill="var(--fill-0, #D02F44)"/>
<rect id="Rectangle 511_2" width="14.5714" height="11.2" fill="var(--fill-0, #46467F)"/>
<g id="Oval 43" filter="url(#filter0_d_728_6326)">
<path d="M2.42862 8.00039C2.87568 8.00042 3.23819 8.35838 3.23819 8.8002C3.23808 9.24192 2.87562 9.59998 2.42862 9.6C1.9816 9.6 1.61915 9.24193 1.61905 8.8002C1.61905 8.35837 1.98153 8.00039 2.42862 8.00039ZM5.6669 8.00039C6.11388 8.00051 6.47647 8.35844 6.47647 8.8002C6.47636 9.24186 6.11381 9.59988 5.6669 9.6C5.21988 9.6 4.85744 9.24193 4.85733 8.8002C4.85733 8.35837 5.21981 8.00039 5.6669 8.00039ZM8.90518 8.00039C9.35208 8.00061 9.71475 8.35851 9.71475 8.8002C9.71464 9.2418 9.35201 9.59978 8.90518 9.6C8.45816 9.6 8.09572 9.24193 8.09561 8.8002C8.09561 8.35837 8.45809 8.00039 8.90518 8.00039ZM12.1425 8.00039C12.5896 8.00039 12.9521 8.35837 12.9521 8.8002C12.9519 9.24193 12.5895 9.6 12.1425 9.6C11.6956 9.5998 11.333 9.24181 11.3329 8.8002C11.3329 8.35849 11.6956 8.00059 12.1425 8.00039ZM4.04776 6.3998C4.49465 6.39988 4.85712 6.75801 4.85733 7.19961C4.85733 7.64139 4.49478 8.00032 4.04776 8.00039C3.60067 8.00039 3.23819 7.64144 3.23819 7.19961C3.2384 6.75796 3.6008 6.3998 4.04776 6.3998ZM7.28604 6.3998C7.73285 6.39998 8.0954 6.75807 8.09561 7.19961C8.09561 7.64133 7.73298 8.00022 7.28604 8.00039C6.83895 8.00039 6.47647 7.64144 6.47647 7.19961C6.47668 6.75796 6.83908 6.3998 7.28604 6.3998ZM10.5233 6.3998C10.9703 6.3998 11.3327 6.75796 11.3329 7.19961C11.3329 7.64144 10.9704 8.00039 10.5233 8.00039C10.0765 8.00014 9.71475 7.64128 9.71475 7.19961C9.71496 6.75811 10.0766 6.40005 10.5233 6.3998ZM2.42862 4.8002C2.87568 4.80022 3.23819 5.15819 3.23819 5.6C3.23819 6.04181 2.87568 6.39978 2.42862 6.3998C1.98153 6.3998 1.61905 6.04183 1.61905 5.6C1.61905 5.15817 1.98153 4.8002 2.42862 4.8002ZM5.6669 4.8002C6.11388 4.80032 6.47647 5.15825 6.47647 5.6C6.47647 6.04175 6.11388 6.39968 5.6669 6.3998C5.21981 6.3998 4.85733 6.04183 4.85733 5.6C4.85733 5.15817 5.21981 4.8002 5.6669 4.8002ZM8.90518 4.8002C9.35208 4.80042 9.71475 5.15831 9.71475 5.6C9.71475 6.04169 9.35208 6.39958 8.90518 6.3998C8.45809 6.3998 8.09561 6.04183 8.09561 5.6C8.09561 5.15817 8.45809 4.8002 8.90518 4.8002ZM12.1425 4.8002C12.5896 4.8002 12.9521 5.15817 12.9521 5.6C12.9521 6.04183 12.5896 6.3998 12.1425 6.3998C11.6956 6.39961 11.3329 6.04171 11.3329 5.6C11.3329 5.15829 11.6956 4.80039 12.1425 4.8002ZM4.04776 3.19961C4.49478 3.19968 4.85733 3.55861 4.85733 4.00039C4.85712 4.44199 4.49465 4.80012 4.04776 4.8002C3.6008 4.8002 3.2384 4.44204 3.23819 4.00039C3.23819 3.55856 3.60067 3.19961 4.04776 3.19961ZM7.28604 3.19961C7.73298 3.19978 8.09561 3.55867 8.09561 4.00039C8.0954 4.44193 7.73285 4.80002 7.28604 4.8002C6.83908 4.8002 6.47668 4.44204 6.47647 4.00039C6.47647 3.55856 6.83895 3.19961 7.28604 3.19961ZM10.5233 3.19961C10.9704 3.19961 11.3329 3.55856 11.3329 4.00039C11.3327 4.44204 10.9703 4.8002 10.5233 4.8002C10.0766 4.79995 9.71496 4.44189 9.71475 4.00039C9.71475 3.55872 10.0765 3.19986 10.5233 3.19961ZM2.42862 1.6C2.87562 1.60002 3.23808 1.95808 3.23819 2.3998C3.23819 2.84162 2.87568 3.19958 2.42862 3.19961C1.98153 3.19961 1.61905 2.84163 1.61905 2.3998C1.61915 1.95807 1.9816 1.6 2.42862 1.6ZM5.6669 1.6C6.11381 1.60012 6.47636 1.95814 6.47647 2.3998C6.47647 2.84156 6.11388 3.19949 5.6669 3.19961C5.21981 3.19961 4.85733 2.84163 4.85733 2.3998C4.85744 1.95807 5.21988 1.6 5.6669 1.6ZM8.90518 1.6C9.35201 1.60022 9.71464 1.9582 9.71475 2.3998C9.71475 2.84149 9.35208 3.19939 8.90518 3.19961C8.45809 3.19961 8.09561 2.84163 8.09561 2.3998C8.09572 1.95807 8.45816 1.6 8.90518 1.6ZM12.1425 1.6C12.5895 1.6 12.9519 1.95807 12.9521 2.3998C12.9521 2.84163 12.5896 3.19961 12.1425 3.19961C11.6956 3.19941 11.3329 2.84151 11.3329 2.3998C11.333 1.95819 11.6956 1.6002 12.1425 1.6Z" fill="url(#paint0_linear_728_6326)"/>
</g>
</g>
</g>
<defs>
<filter id="filter0_d_728_6326" x="1.61905" y="1.6" width="11.333" height="9" filterUnits="userSpaceOnUse" color-interpolation-filters="sRGB">
<feFlood flood-opacity="0" result="BackgroundImageFix"/>
<feColorMatrix in="SourceAlpha" type="matrix" values="0 0 0 0 0 0 0 0 0 0 0 0 0 0 0 0 0 0 127 0" result="hardAlpha"/>
<feOffset dy="1"/>
<feColorMatrix type="matrix" values="0 0 0 0 0 0 0 0 0 0 0 0 0 0 0 0 0 0 0.06 0"/>
<feBlend mode="normal" in2="BackgroundImageFix" result="effect1_dropShadow_728_6326"/>
<feBlend mode="normal" in="SourceGraphic" in2="effect1_dropShadow_728_6326" result="shape"/>
</filter>
<linearGradient id="paint0_linear_728_6326" x1="1.61905" y1="1.6" x2="1.61905" y2="9.6" gradientUnits="userSpaceOnUse">
<stop stop-color="white"/>
<stop offset="1" stop-color="#F0F0F0"/>
</linearGradient>
</defs>
</svg>
