<svg preserveAspectRatio="none" width="100%" height="100%" overflow="visible" style="display: block;" viewBox="0 0 15 24" fill="none" xmlns="http://www.w3.org/2000/svg">
<g id="laurel_left">
<path id="Vector 96" d="M2.70306 17.4688C0.575 19.0938 0.14849 21.5312 3.12497 23.1562" stroke="var(--stroke-0, #006AFF)" stroke-width="1.6" stroke-linecap="round"/>
<path id="Rectangle 156417" d="M10.1648 1.65188C11.8415 3.25467 11.8415 5.85359 10.1648 7.45639L9.59297 8.00296L9.02117 7.45639C7.34439 5.85359 7.34439 3.25467 9.02117 1.65188L9.59297 1.1053L10.1648 1.65188Z" stroke="var(--stroke-0, #006AFF)" stroke-width="1.6"/>
<path id="Rectangle 156418" d="M14.1654 7.12891C14.1652 9.44829 12.2847 11.3281 9.96524 11.3281L9.02676 11.3281L9.02676 10.6875C9.02676 8.36792 10.9074 6.48733 13.227 6.4873L14.1654 6.4873L14.1654 7.12891Z" stroke="var(--stroke-0, #006AFF)" stroke-width="1.6"/>
<path id="Rectangle 156419" d="M13.3946 13.8832C12.1953 15.8687 9.5765 16.5698 7.54567 15.449L6.78814 15.0309L7.15873 14.4174C8.35798 12.4318 10.9768 11.7308 13.0076 12.8515L13.7652 13.2696L13.3946 13.8832Z" stroke="var(--stroke-0, #006AFF)" stroke-width="1.6"/>
<path id="Rectangle 156420" d="M9.22618 18.101C7.54941 19.7038 4.83054 19.7038 3.15377 18.101L2.58196 17.5544L3.15377 17.0079C4.83054 15.4051 7.54941 15.4051 9.22618 17.0079L9.79798 17.5544L9.22618 18.101Z" stroke="var(--stroke-0, #006AFF)" stroke-width="1.6"/>
</g>
</svg>
