<svg width="169" height="24" viewBox="0 0 169 24" fill="none" xmlns="http://www.w3.org/2000/svg">
<g clip-path="url(#clip0_1_4332)">
<path d="M24.5093 12C24.5093 5.37234 19.1364 0 12.5093 0C8.07338 0 4.20019 2.40734 2.12305 5.98645L5.79078 9.0158C6.18194 9.40696 6.81637 9.40696 7.20809 9.0158L13.9543 3.44365C14.9014 2.49652 16.5202 3.16764 16.5202 4.50649V23.3125C21.1752 21.6621 24.5093 17.2211 24.5093 12.0006V12Z" fill="#398BFF"/>
<path d="M7.91643 14.3193C7.13355 15.1021 5.86469 15.1021 5.08181 14.3193L0.555561 10.9496C0.525646 11.2956 0.509277 11.6461 0.509277 12C0.509277 18.6271 5.88162 24 12.5093 24C12.5104 24 12.511 24 12.5121 24V10.8982L7.91643 14.3198V14.3193Z" fill="#398BFF"/>
<path d="M13.9543 3.44319L7.20816 9.01534C6.817 9.4065 6.18257 9.4065 5.79085 9.01534L2.12311 5.98655C1.26291 7.46877 0.71145 9.1525 0.555664 10.9497L5.08247 14.3199C5.86535 15.1028 7.13422 15.1028 7.91709 14.3199L12.5128 10.8983V24.0001C13.9188 24.0001 15.2678 23.7568 16.5214 23.3126V4.50603C16.5214 3.16661 14.9026 2.49605 13.9555 3.44319H13.9543Z" fill="white"/>
<path d="M148.491 3.19971C147.828 3.19971 147.291 3.73705 147.291 4.39971V19.5995C147.291 20.2622 147.828 20.7995 148.491 20.7995C149.153 20.7995 149.691 20.2622 149.691 19.5995V4.39971C149.691 3.73705 149.153 3.19971 148.491 3.19971Z" fill="white"/>
<path d="M144.491 6.40024H141.291V5.20024C141.291 4.53759 140.754 4.00024 140.091 4.00024C139.429 4.00024 138.891 4.53759 138.891 5.20024V6.40024H135.692C135.029 6.40024 134.492 6.93759 134.492 7.60024C134.492 8.2629 135.029 8.80024 135.692 8.80024H138.891V9.79592C138.891 13.3056 137.357 16.2283 135.326 16.8667C134.829 17.023 134.491 17.4842 134.491 18.0051C134.491 18.8202 135.29 19.3965 136.063 19.1385C137.725 18.5837 139.15 17.1675 140.091 15.2428C141.032 17.1675 142.457 18.5831 144.119 19.1385C144.892 19.397 145.691 18.8202 145.691 18.0051C145.691 17.4842 145.353 17.023 144.856 16.8667C142.825 16.2288 141.29 13.3056 141.29 9.79592V8.80024H144.49C145.153 8.80024 145.69 8.2629 145.69 7.60024C145.69 6.93759 145.153 6.40024 144.49 6.40024H144.491Z" fill="white"/>
<path d="M167.291 10.3997H166.091V4.39971C166.091 3.73705 165.553 3.19971 164.891 3.19971C164.228 3.19971 163.691 3.73705 163.691 4.39971V15.9995C161.673 16.3901 159.626 16.6475 157.566 16.7717V11.9999C157.566 11.4106 157.088 10.9331 156.499 10.9331C155.91 10.9331 155.432 11.4106 155.432 11.9999V16.8513C155.194 16.8546 154.956 16.8575 154.718 16.8575H152.757C152.168 16.8575 151.691 17.3818 151.691 18.0287C151.691 18.6755 152.168 19.1999 152.757 19.1999H154.718C157.736 19.1999 160.745 18.9126 163.691 18.3425V19.6001C163.691 20.2627 164.228 20.8001 164.891 20.8001C165.553 20.8001 166.091 20.2627 166.091 19.6001V12.8003H167.291C167.953 12.8003 168.491 12.2629 168.491 11.6003C168.491 10.9376 167.953 10.4003 167.291 10.4003V10.3997Z" fill="white"/>
<path d="M153.566 7.13119H159.919C159.843 9.385 159.657 11.6315 159.363 13.8582C159.272 14.5417 159.715 15.162 160.346 15.1982C160.892 15.2298 161.366 14.8053 161.447 14.2223C161.794 11.7009 162.001 9.15414 162.067 6.59892C162.093 5.61397 161.369 4.80005 160.468 4.80005H153.566C152.977 4.80005 152.499 5.32159 152.499 5.96562C152.499 6.60908 152.977 7.13119 153.566 7.13119H153.566Z" fill="white"/>
<path d="M113.291 3.19971C112.629 3.19971 112.091 3.73705 112.091 4.39971V19.5995C112.091 20.2622 112.629 20.7995 113.291 20.7995C113.954 20.7995 114.491 20.2622 114.491 19.5995V4.39971C114.491 3.73705 113.954 3.19971 113.291 3.19971Z" fill="#398BFF"/>
<path d="M110.037 16.2531C107.431 16.7876 105.594 17.0586 102.945 17.0619V7.20005H108.492C109.154 7.20005 109.692 6.6627 109.692 6.00005C109.692 5.3374 109.154 4.80005 108.492 4.80005H101.922C101.354 4.80005 100.892 5.32949 100.892 5.97804V17.6241C100.892 18.4922 101.608 19.1955 102.492 19.1955H102.945C105.594 19.1916 107.431 18.9207 110.037 18.3861L110.457 18.2998C110.943 18.1999 111.291 17.7726 111.291 17.2764C111.291 16.6149 110.685 16.1199 110.037 16.2531Z" fill="#398BFF"/>
<path d="M96.8914 3.19971C96.2287 3.19971 95.6914 3.73705 95.6914 4.39971V19.5786C95.6914 20.2413 96.2287 20.7786 96.8914 20.7786C97.5541 20.7786 98.0914 20.2413 98.0914 19.5786V4.39971C98.0914 3.73705 97.5541 3.19971 96.8914 3.19971Z" fill="#398BFF"/>
<path d="M93.6917 3.19971C93.029 3.19971 92.4917 3.73705 92.4917 4.39971V10.3997H90.8915V6.29228C90.8915 5.46819 90.1752 4.7999 89.2913 4.7999H84.4913C83.6074 4.7999 82.8911 5.46819 82.8911 6.29228V17.707C82.8911 18.531 83.6074 19.1993 84.4913 19.1993H89.2913C90.1752 19.1993 90.8915 18.531 90.8915 17.707V12.7997H92.4917V19.5786C92.4917 20.2413 93.029 20.7786 93.6917 20.7786C94.3543 20.7786 94.8917 20.2413 94.8917 19.5786V4.39971C94.8917 3.73705 94.3543 3.19971 93.6917 3.19971ZM88.4915 16.7993H85.2917V7.15643H88.4915V16.7999V16.7993Z" fill="#398BFF"/>
<path d="M131.411 17.04H117.571C116.974 17.04 116.491 17.5235 116.491 18.1198V18.1204C116.491 18.7167 116.974 19.2002 117.571 19.2002H131.411C132.007 19.2002 132.491 18.7167 132.491 18.1204V18.1198C132.491 17.5235 132.007 17.04 131.411 17.04Z" fill="#398BFF"/>
<path d="M118.098 14.0315C118.427 14.3752 118.918 14.4921 119.355 14.3233C121.543 13.4778 123.37 11.689 124.491 9.36412C125.612 11.689 127.439 13.4778 129.627 14.3233C130.064 14.4921 130.555 14.3758 130.884 14.0315C131.504 13.3841 131.27 12.2874 130.449 11.9701C127.988 11.0191 126.13 8.39385 125.759 5.18105C125.681 4.50993 125.144 4.00024 124.497 4.00024H124.486C123.845 4.00024 123.301 4.49752 123.225 5.16186C122.86 8.38369 120.999 11.0174 118.533 11.9701C117.711 12.2879 117.478 13.3846 118.098 14.0315Z" fill="#398BFF"/>
<path d="M78.8914 3.19971C78.2287 3.19971 77.6914 3.73705 77.6914 4.39971V10.2665H77.0372V4.39971C77.0372 3.73705 76.4998 3.19971 75.8372 3.19971C75.1745 3.19971 74.6372 3.73705 74.6372 4.39971V16.2253C74.4933 16.1903 74.3392 16.1858 74.1822 16.218C71.6919 16.7288 69.9032 16.9991 67.4372 17.0251V7.1999H72.6368C73.2995 7.1999 73.8368 6.66255 73.8368 5.9999C73.8368 5.33724 73.2995 4.7999 72.6368 4.7999H66.0667C65.4995 4.7999 65.0366 5.32934 65.0366 5.97788V17.589C65.0366 18.4571 65.7529 19.1604 66.6368 19.1604H67.4366V19.1581C69.9027 19.1322 71.6914 18.8618 74.1817 18.351L74.6016 18.2646C74.6135 18.2624 74.6248 18.2584 74.6366 18.2556V19.5781C74.6366 20.2407 75.174 20.7781 75.8366 20.7781C76.4993 20.7781 77.0366 20.2407 77.0366 19.5781V12.6654H77.6908V19.5781C77.6908 20.2407 78.2282 20.7781 78.8908 20.7781C79.5535 20.7781 80.0908 20.2407 80.0908 19.5781V4.39971C80.0908 3.73705 79.5535 3.19971 78.8908 3.19971H78.8914Z" fill="white"/>
<path d="M39.4794 7.19933H42.5093V8.79952H39.975C39.3123 8.79952 38.775 9.33687 38.775 9.99952C38.775 10.6622 39.3123 11.1995 39.975 11.1995H42.5093V12.3329C42.5093 12.9956 43.0467 13.5329 43.7093 13.5329C44.372 13.5329 44.9093 12.9956 44.9093 12.3329V4.39971C44.9093 3.73705 44.372 3.19971 43.7093 3.19971C43.0467 3.19971 42.5093 3.73705 42.5093 4.39971V4.79933H39.6922C39.419 4.32746 38.9116 3.99952 38.3093 3.99952H37.5084H30.9095C30.2469 3.99952 29.7095 4.53687 29.7095 5.19952C29.7095 5.86217 30.2469 6.39952 30.9095 6.39952H36.9936C35.8958 8.89717 33.1915 10.7626 30.349 11.1323C29.7524 11.2102 29.3093 11.725 29.3093 12.3267C29.3093 13.0486 29.9392 13.6046 30.6566 13.525C34.7573 13.0701 38.1428 10.5651 39.4794 7.19877V7.19933Z" fill="white"/>
<path d="M41.6909 13.5996H34.5276C32.5294 13.5996 30.9089 15.2043 30.9089 17.1844C30.9089 19.1639 32.5289 20.7691 34.5276 20.7691H41.6909C43.689 20.7691 45.3089 19.1644 45.3089 17.1844C45.3089 15.2049 43.689 13.5996 41.6909 13.5996ZM42.9095 17.1996C42.9095 17.8623 42.3722 18.3996 41.7095 18.3996H34.5095C33.8468 18.3996 33.3095 17.8623 33.3095 17.1996C33.3095 16.537 33.8468 15.9996 34.5095 15.9996H41.7095C42.3722 15.9996 42.9095 16.537 42.9095 17.1996Z" fill="white"/>
<path d="M48.3461 12.7417C50.0079 12.2224 51.4331 10.8971 52.374 9.09658C53.3149 10.8977 54.7407 12.2224 56.4018 12.7417C57.1734 12.9827 57.971 12.446 57.9738 11.6857C57.9755 11.1986 57.6312 10.7617 57.135 10.6149C55.3317 10.0821 53.9206 7.86327 53.6293 5.07212C53.5661 4.46534 53.0254 4.00024 52.374 4.00024C51.7226 4.00024 51.1819 4.46534 51.1187 5.07212C50.8274 7.86327 49.4163 10.0821 47.6129 10.6149C47.1168 10.7617 46.7725 11.1986 46.7742 11.6857C46.777 12.446 47.5746 12.9833 48.3461 12.7417Z" fill="white"/>
<path d="M57.0374 8.80008H59.8376V12.4001C59.8376 13.0627 60.3749 13.6001 61.0376 13.6001C61.7002 13.6001 62.2376 13.0627 62.2376 12.4001V4.39971C62.2376 3.73705 61.7002 3.19971 61.0376 3.19971C60.3749 3.19971 59.8376 3.73705 59.8376 4.39971V6.39952H57.0374C56.3748 6.39952 55.8374 6.93687 55.8374 7.59952C55.8374 8.26217 56.3748 8.79952 57.0374 8.79952V8.80008Z" fill="white"/>
<path d="M58.9045 13.5996H51.6424C49.6166 13.5996 47.9741 15.2043 47.9741 17.1844C47.9741 19.1639 49.6166 20.7691 51.6424 20.7691H58.9045C60.9303 20.7691 62.5728 19.1644 62.5728 17.1844C62.5728 15.2049 60.9303 13.5996 58.9045 13.5996ZM60.1728 17.1996C60.1728 17.8623 59.6355 18.3996 58.9728 18.3996H51.5741C50.9115 18.3996 50.3741 17.8623 50.3741 17.1996C50.3741 16.537 50.9115 15.9996 51.5741 15.9996H58.9728C59.6355 15.9996 60.1728 16.537 60.1728 17.1996Z" fill="white"/>
</g>
<defs>
<clipPath id="clip0_1_4332">
<rect width="167.981" height="24" fill="white" transform="translate(0.509277)"/>
</clipPath>
</defs>
</svg>
