<svg width="480" height="480" viewBox="0 0 480 480" fill="none" xmlns="http://www.w3.org/2000/svg">
<g clip-path="url(#clip0_1_8400)">
<rect x="22.5" y="22.5" width="435" height="435" rx="217.5" fill="#F3F6FB"/>
<path d="M457.501 240C457.501 119.874 360.117 22.5 240.001 22.5C159.599 22.5 89.3978 66.133 51.7496 131.004L118.227 185.911C125.317 193.001 136.816 193.001 143.916 185.911L266.191 84.9162C283.357 67.7494 312.699 79.9135 312.699 104.18V445.039C397.069 415.125 457.501 334.632 457.501 240.01V240Z" fill="#398BFF"/>
<path d="M156.755 282.037C142.565 296.226 119.567 296.226 105.377 282.037L23.3389 220.961C22.7967 227.232 22.5 233.585 22.5 240C22.5 360.116 119.874 457.5 240 457.5C240.02 457.5 240.031 457.5 240.051 457.5V220.03L156.755 282.047V282.037Z" fill="#398BFF"/>
<path d="M266.19 84.9077L143.916 185.903C136.826 192.993 125.327 192.993 118.227 185.903L51.7493 131.006C36.158 157.872 26.1628 188.389 23.3392 220.963L105.388 282.049C119.577 296.239 142.575 296.239 156.765 282.049L240.062 220.032V457.502C265.546 457.502 289.997 453.092 312.719 445.041V104.172C312.719 79.8948 283.378 67.741 266.211 84.9077H266.19Z" fill="white"/>
</g>
<defs>
<clipPath id="clip0_1_8400">
<rect x="22.5" y="22.5" width="435" height="435" rx="217.5" fill="white"/>
</clipPath>
</defs>
</svg>
