<svg xmlns="http://www.w3.org/2000/svg" width="24" height="25" viewBox="0 0 24 25" fill="none">
  <g opacity="0.5" clip-path="url(#clip0_1_3658)">
    <path d="M17 3.95903C18.5083 4.82989 19.7629 6.07956 20.6398 7.58433C21.5167 9.08911 21.9854 10.7968 21.9994 12.5384C22.0135 14.2799 21.5725 15.995 20.72 17.5137C19.8676 19.0325 18.6332 20.3022 17.1392 21.1974C15.6452 22.0925 13.9434 22.5819 12.2021 22.6171C10.4608 22.6523 8.74055 22.2322 7.21155 21.3983C5.68256 20.5644 4.39787 19.3456 3.48467 17.8625C2.57146 16.3795 2.06141 14.6837 2.005 12.943L2 12.619L2.005 12.295C2.061 10.568 2.56355 8.88499 3.46364 7.41003C4.36373 5.93506 5.63065 4.71849 7.14089 3.87892C8.65113 3.03935 10.3531 2.60543 12.081 2.61947C13.8089 2.63351 15.5036 3.09503 17 3.95903ZM15.707 9.91203C15.5348 9.73986 15.3057 9.63643 15.0627 9.62114C14.8197 9.60586 14.5794 9.67978 14.387 9.82903L14.293 9.91203L11 13.204L9.707 11.912L9.613 11.829C9.42058 11.6799 9.18037 11.6061 8.9374 11.6214C8.69444 11.6367 8.46541 11.7402 8.29326 11.9123C8.12112 12.0844 8.01768 12.3135 8.00235 12.5564C7.98702 12.7994 8.06086 13.0396 8.21 13.232L8.293 13.326L10.293 15.326L10.387 15.409C10.5624 15.5451 10.778 15.6189 11 15.6189C11.222 15.6189 11.4376 15.5451 11.613 15.409L11.707 15.326L15.707 11.326L15.79 11.232C15.9393 11.0396 16.0132 10.7994 15.9979 10.5564C15.9826 10.3133 15.8792 10.0842 15.707 9.91203Z" fill="white"/>
  </g>
  <defs>
    <clipPath id="clip0_1_3658">
      <rect width="24" height="24" fill="white" transform="translate(0 0.619141)"/>
    </clipPath>
  </defs>
</svg>
