<svg width="64" height="64" viewBox="0 0 64 64" fill="none" xmlns="http://www.w3.org/2000/svg">
  <!-- Upper denture arc -->
  <path d="M12 28C12 20 20 14 32 14C44 14 52 20 52 28" stroke="#008fd2" stroke-width="3" stroke-linecap="round" fill="none"/>

  <!-- Upper teeth -->
  <rect x="16" y="24" width="5" height="8" rx="2" fill="#6eb7bc"/>
  <rect x="23" y="23" width="5" height="9" rx="2" fill="#6eb7bc"/>
  <rect x="30" y="22" width="4" height="10" rx="2" fill="#6eb7bc"/>
  <rect x="36" y="23" width="5" height="9" rx="2" fill="#6eb7bc"/>
  <rect x="43" y="24" width="5" height="8" rx="2" fill="#6eb7bc"/>

  <!-- Lower denture arc -->
  <path d="M12 36C12 44 20 50 32 50C44 50 52 44 52 36" stroke="#008fd2" stroke-width="3" stroke-linecap="round" fill="none"/>

  <!-- Lower teeth -->
  <rect x="16" y="32" width="5" height="8" rx="2" fill="#6eb7bc"/>
  <rect x="23" y="32" width="5" height="9" rx="2" fill="#6eb7bc"/>
  <rect x="30" y="32" width="4" height="10" rx="2" fill="#6eb7bc"/>
  <rect x="36" y="32" width="5" height="9" rx="2" fill="#6eb7bc"/>
  <rect x="43" y="32" width="5" height="8" rx="2" fill="#6eb7bc"/>

  <!-- Gum line accent -->
  <path d="M14 28C14 28 22 30 32 30C42 30 50 28 50 28" stroke="#d2e9f3" stroke-width="2" stroke-linecap="round"/>
  <path d="M14 36C14 36 22 34 32 34C42 34 50 36 50 36" stroke="#d2e9f3" stroke-width="2" stroke-linecap="round"/>
</svg>