<svg preserveAspectRatio="none" width="100%" height="100%" overflow="visible" style="display: block;" viewBox="0 0 36 26" fill="none" xmlns="http://www.w3.org/2000/svg">
<g id="flags / KR">
<rect id="Mask" x="0.25" y="0.25" width="35.5" height="25.5" rx="1.75" fill="var(--fill-0, white)" stroke="var(--stroke-0, #F5F5F5)" stroke-width="0.5"/>
<mask id="mask0_728_6309" style="mask-type:luminance" maskUnits="userSpaceOnUse" x="0" y="0" width="36" height="26">
<rect id="Mask_2" x="0.25" y="0.25" width="35.5" height="25.5" rx="1.75" fill="var(--fill-0, white)" stroke="var(--stroke-0, white)" stroke-width="0.5"/>
</mask>
<g mask="url(#mask0_728_6309)">
<g id="Oval 9">
<path id="Mask_3" fill-rule="evenodd" clip-rule="evenodd" d="M18 19.0667C21.3137 19.0667 24 16.3505 24 13C24 9.64947 21.3137 6.93333 18 6.93333C14.6863 6.93333 12 9.64947 12 13C12 16.3505 14.6863 19.0667 18 19.0667Z" fill="var(--fill-0, #E01B41)"/>
<mask id="mask1_728_6309" style="mask-type:luminance" maskUnits="userSpaceOnUse" x="12" y="6" width="12" height="14">
<path id="Mask_4" fill-rule="evenodd" clip-rule="evenodd" d="M18 19.0667C21.3137 19.0667 24 16.3505 24 13C24 9.64947 21.3137 6.93333 18 6.93333C14.6863 6.93333 12 9.64947 12 13C12 16.3505 14.6863 19.0667 18 19.0667Z" fill="var(--fill-0, white)"/>
</mask>
<g mask="url(#mask1_728_6309)">
<path id="Rectangle 277" fill-rule="evenodd" clip-rule="evenodd" d="M12 13.8667C13.7143 15.4917 16.2857 16.4667 18 13.8667C19.7143 11.2667 23.1429 11.2667 24 13.8667C24.8571 16.4667 24 19.0667 24 19.0667H12C12 19.0667 10.2857 12.2417 12 13.8667Z" fill="var(--fill-0, #0E4B9C)"/>
</g>
</g>
<path id="Rectangle 278" opacity="0.75" d="M6.776 16.5497C6.93484 16.457 7.13771 16.5113 7.22912 16.6708L9.47033 20.5956C9.56152 20.7553 9.50687 20.9597 9.34826 21.0526L8.43908 21.5839C8.2801 21.6767 8.07724 21.6217 7.98596 21.4618L5.74475 17.538C5.65346 17.3781 5.70881 17.1728 5.86779 17.08L6.776 16.5497ZM28.7701 16.6708C28.8614 16.5111 29.0644 16.4571 29.2233 16.5497L30.1324 17.08C30.2914 17.1728 30.3467 17.3781 30.2555 17.538L28.0143 21.4618C27.923 21.6216 27.7201 21.6765 27.5612 21.5839L26.652 21.0526C26.4932 20.9597 26.4387 20.7554 26.5299 20.5956L28.7701 16.6708ZM9.00354 15.2499C9.1625 15.1571 9.36538 15.2112 9.45666 15.371L11.6969 19.2958C11.7882 19.4556 11.7337 19.66 11.5748 19.7528L10.6656 20.2841C10.5067 20.3766 10.3037 20.3217 10.2125 20.162L7.97229 16.2382C7.88101 16.0783 7.93539 15.873 8.09436 15.7802L9.00354 15.2499ZM26.5436 15.371C26.6349 15.2112 26.8378 15.1571 26.9967 15.2499L27.9059 15.7802C28.0647 15.873 28.1192 16.0784 28.028 16.2382L25.7877 20.162C25.6964 20.3219 25.4926 20.3769 25.3336 20.2841L24.4254 19.7528C24.2665 19.6601 24.2113 19.4556 24.3024 19.2958L26.5436 15.371ZM10.2125 5.83778C10.3038 5.67793 10.5067 5.62392 10.6656 5.71669L11.5748 6.24696C11.7337 6.33976 11.788 6.54417 11.6969 6.704L9.45666 10.6288C9.36538 10.7887 9.16252 10.8427 9.00354 10.7499L8.09436 10.2196C7.9355 10.1268 7.88112 9.9224 7.97229 9.76259L10.2125 5.83778ZM25.3336 5.71669C25.4926 5.62388 25.6964 5.67792 25.7877 5.83778L28.028 9.76259C28.119 9.92232 28.0646 10.1268 27.9059 10.2196L26.9967 10.7499C26.8377 10.8427 26.6349 10.7887 26.5436 10.6288L24.3024 6.704C24.2115 6.5442 24.2666 6.33968 24.4254 6.24696L25.3336 5.71669ZM7.98596 4.53798C8.07722 4.37815 8.28011 4.3232 8.43908 4.41591L9.34826 4.94716C9.50688 5.04005 9.56141 5.24448 9.47033 5.40419L7.22912 9.329C7.13776 9.48864 6.93489 9.54284 6.776 9.45009L5.86779 8.91982C5.70881 8.827 5.65346 8.62168 5.74475 8.46181L7.98596 4.53798ZM27.5612 4.41591C27.7201 4.32334 27.9231 4.37821 28.0143 4.53798L30.2555 8.46181C30.3468 8.62168 30.2914 8.827 30.1324 8.91982L29.2233 9.45009C29.0643 9.54278 28.8614 9.48881 28.7701 9.329L26.5299 5.40419C26.4387 5.24441 26.4932 5.04002 26.652 4.94716L27.5612 4.41591Z" fill="var(--fill-0, #262626)"/>
</g>
</g>
</svg>
