<svg xmlns="http://www.w3.org/2000/svg" width="24" height="25" viewBox="0 0 24 25" fill="none">
  <g opacity="0.4" clip-path="url(#clip0_1_3663)">
    <path d="M17 2.61914C17.5046 2.61898 17.9906 2.80955 18.3605 3.15264C18.7305 3.49573 18.9572 3.96599 18.995 4.46914L19 4.61914V6.61914C19.0005 7.82707 18.6883 9.01456 18.0937 10.066C17.4991 11.1175 16.6424 11.997 15.607 12.6191C16.6031 13.2173 17.4344 14.0543 18.0259 15.0544C18.6175 16.0544 18.9505 17.1861 18.995 18.3471L19 18.6191V20.6191C19.0002 21.1237 18.8096 21.6097 18.4665 21.9797C18.1234 22.3497 17.6532 22.5763 17.15 22.6141L17 22.6191H7C6.49542 22.6193 6.00943 22.4287 5.63945 22.0856C5.26947 21.7426 5.04284 21.2723 5.005 20.7691L5 20.6191V18.6191C4.99946 17.4112 5.31168 16.2237 5.90628 15.1723C6.50088 14.1208 7.35758 13.2412 8.393 12.6191C7.39692 12.0209 6.56558 11.184 5.97406 10.1839C5.38254 9.18387 5.04949 8.05219 5.005 6.89114L5 6.61914V4.61914C4.99984 4.11456 5.19041 3.62857 5.5335 3.25859C5.87659 2.88861 6.34685 2.66198 6.85 2.62414L7 2.61914H17Z" fill="white"/>
  </g>
  <defs>
    <clipPath id="clip0_1_3663">
      <rect width="24" height="24" fill="white" transform="translate(0 0.619141)"/>
    </clipPath>
  </defs>
</svg>
