<svg width="309" height="52" viewBox="0 0 309 52" fill="none" xmlns="http://www.w3.org/2000/svg">
<path d="M36.02 21.1963C35.6705 17.9698 33.1162 14.4745 29.4506 14.2056C27.3534 14.0532 25.7132 14.8151 24.2076 15.6127C23.9745 15.7292 23.5354 15.5231 22.8722 15.2004C22.6571 15.0929 22.4509 14.9943 22.2448 14.8957C20.999 14.34 19.6278 14.107 18.2924 14.2056C14.6267 14.4745 12.0724 17.9698 11.7229 21.1963C11.4271 23.9567 11.9201 30.087 13.2107 32.9012L16.0876 31.5748C15.1645 29.5672 14.5998 24.0463 14.8687 21.5369C15.0748 19.6368 16.5895 17.5127 18.5164 17.3693C19.332 17.3066 20.1924 17.459 20.9542 17.7995C21.1245 17.8712 21.2858 17.9609 21.4561 18.0415C21.4561 18.0415 21.474 18.0415 21.474 18.0505C21.8952 18.3014 26.1524 20.8199 27.9449 22.3345L29.9883 19.9057C29.2265 19.2694 28.1241 18.4896 27.0218 17.7637C27.7925 17.45 28.4557 17.3066 29.1996 17.3604C31.1266 17.5038 32.6412 19.6279 32.8473 21.5279C33.1162 24.0284 32.5516 29.5493 31.6284 31.5658L34.5054 32.8923C35.8049 30.0781 36.2979 23.9478 35.9931 21.1873L36.02 21.1963Z" fill="#008FD2"/>
<path d="M47.7429 23.8669C47.7429 10.7101 37.0327 0 23.8669 0C10.7011 0 0 10.7101 0 23.8669C0 33.385 5.57463 41.8904 14.2682 45.7173L10.6474 52H15.1017L17.9786 46.999C21.0348 47.7787 24.2254 47.94 27.3085 47.4919L25.1934 43.8352C23.4367 43.9517 21.707 43.8352 19.9952 43.4947L22.4957 39.1568L23.8669 36.7818L32.6412 51.9821H37.0955L33.4747 45.6994C42.1682 41.8725 47.7429 33.3761 47.7429 23.849V23.8669ZM31.5388 42.3475L23.8669 29.0741L16.2041 42.3475C8.79214 39.2554 3.86281 31.8973 3.86281 23.8669C3.86281 12.8342 12.8342 3.85384 23.8669 3.85384C34.8997 3.85384 43.88 12.8252 43.88 23.8669C43.88 31.9062 38.9417 39.2644 31.5388 42.3475Z" fill="#008FD2"/>
<path d="M80.393 24.7005H91.4347V36.2889H95.1989V6.68604H91.4347V12.655H80.393C78.2957 9.41958 74.666 7.42992 70.848 7.42992C64.6281 7.42992 59.5732 12.4668 59.5732 18.6598C59.5732 24.8529 64.637 29.836 70.848 29.836C74.7018 29.836 78.3226 27.8822 80.393 24.7095V24.7005ZM70.848 10.7908C75.0424 10.7908 78.466 14.3131 78.466 18.6509C78.466 22.9887 75.0514 26.4661 70.848 26.4661C66.6446 26.4661 63.2837 22.9618 63.2837 18.6509C63.2837 14.3399 66.6804 10.7908 70.848 10.7908ZM81.8538 15.9711H91.4347V21.3844H81.827C82.06 20.4971 82.1765 19.583 82.1765 18.6509C82.1765 17.7188 82.0689 16.8405 81.8538 15.9711Z" fill="#3E3A3A"/>
<path d="M74.6303 35.9844H70.8213V48.3973C70.8213 50.154 71.9595 51.2922 73.7162 51.2922H95.701V47.9223H74.6393V35.9844H74.6303Z" fill="#3E3A3A"/>
<path d="M124.192 19.4662H116.843V22.8809H124.192V48.2804H127.804V7.17871H124.192V19.4662Z" fill="#3E3A3A"/>
<path d="M111.825 13.9184V8.71118H107.917V13.9184C107.917 20.2369 105.399 28.6884 99.7791 33.331L99.3848 33.6536L100.729 36.7457L101.383 36.3513C104.377 34.5409 108.275 28.7781 109.862 23.3379C111.457 28.7781 115.347 34.5409 118.34 36.3513L118.995 36.7457L120.339 33.6536L119.945 33.331C114.325 28.6974 111.807 20.2458 111.807 13.9184H111.825Z" fill="#3E3A3A"/>
<path d="M135.897 6.68604H132.285V49.8132H135.897V6.68604Z" fill="#3E3A3A"/>
<path d="M162.292 27.1301C167.024 26.3683 171.612 22.8013 171.612 17.1729C171.612 10.8902 165.877 7.12598 160.338 7.12598C154.799 7.12598 149.108 10.8812 149.108 17.1729C149.108 22.8102 153.706 26.3773 158.429 27.1301V30.5538H140.226V33.9236H180.44V30.5538H162.292V27.1301ZM160.338 10.4958C164.03 10.4958 167.857 12.9964 167.857 17.1729C167.857 21.3493 164.039 23.9036 160.338 23.9036C156.636 23.9036 152.872 21.5465 152.872 17.1729C152.872 12.7992 156.672 10.4958 160.338 10.4958Z" fill="#3E3A3A"/>
<path d="M151.537 38.01H147.728V48.3975C147.728 50.1541 148.866 51.2923 150.622 51.2923H173.987V47.9225H151.546V38.01H151.537Z" fill="#3E3A3A"/>
<path d="M217.294 6.68604H213.539V49.8132H217.294V24.7005H223.81V20.9901H217.294V6.68604Z" fill="#3E3A3A"/>
<path d="M194.726 9.44653C188.023 9.44653 182.564 14.8778 182.564 21.5637C182.564 28.2497 188.023 33.6272 194.726 33.6272C201.43 33.6272 206.942 28.2139 206.942 21.5637C206.942 14.9136 201.466 9.44653 194.726 9.44653ZM194.726 30.2663C190.066 30.2663 186.275 26.3676 186.275 21.5637C186.275 16.7599 190.066 12.8164 194.726 12.8164C199.387 12.8164 203.178 16.7419 203.178 21.5637C203.178 26.3855 199.387 30.2663 194.726 30.2663Z" fill="#3E3A3A"/>
<path d="M262.285 6.68604H258.521V49.8132H262.285V6.68604Z" fill="#3E3A3A"/>
<path d="M240.238 16.0249H249.505V12.655H240.229V6.68604H236.42V12.655H227.242V16.0249H236.411C236.294 23.3293 232.333 30.4992 226.481 33.9587L225.97 34.2634L227.323 37.3644L227.95 37.0687C231.858 35.2493 236.438 30.3827 238.32 24.3868C240.202 30.3827 244.782 35.2403 248.689 37.0687L249.317 37.3644L250.67 34.2634L250.159 33.9587C244.307 30.4992 240.345 23.3203 240.229 16.0249H240.238Z" fill="#3E3A3A"/>
<path d="M287.532 17.2261C287.532 21.0351 286.726 29.2626 286.179 30.9834L285.901 31.8617H289.253L289.45 31.557C290.185 30.4188 291.234 22.3078 291.234 16.2492V8.22778H269.661V11.5977H287.515V17.235L287.532 17.2261Z" fill="#3E3A3A"/>
<path d="M301.855 19.9504V6.68604H298.091V37.7319C296.755 38.5743 293.78 39.7843 287.712 39.7843H281.627V25.5251H277.862V39.7843H266.615V43.1542H287.219C292.731 43.1542 296.146 42.6343 298.091 41.4513V49.8132H301.855V23.6698H308.361V19.9594H301.855V19.9504Z" fill="#3E3A3A"/>
</svg>
