<svg width="64" height="64" viewBox="0 0 64 64" fill="none" xmlns="http://www.w3.org/2000/svg">
  <!-- 치아들 -->
  <path d="M16 24C16 20 18 16 22 16C26 16 27 20 27 24C27 28 26 34 24 38C22 42 20 44 22 44C24 44 26 42 28 38" stroke="#008fd2" stroke-width="2.5" stroke-linecap="round"/>
  <path d="M28 24C28 20 30 16 32 16C34 16 36 20 36 24C36 28 36 34 34 38" stroke="#008fd2" stroke-width="2.5" stroke-linecap="round"/>
  <path d="M48 24C48 20 46 16 42 16C38 16 37 20 37 24C37 28 38 34 40 38C42 42 44 44 42 44C40 44 38 42 36 38" stroke="#008fd2" stroke-width="2.5" stroke-linecap="round"/>
  <!-- 교정 브라켓 -->
  <rect x="20" y="26" width="6" height="4" rx="1" fill="#6eb7bc"/>
  <rect x="29" y="26" width="6" height="4" rx="1" fill="#6eb7bc"/>
  <rect x="38" y="26" width="6" height="4" rx="1" fill="#6eb7bc"/>
  <!-- 교정 와이어 -->
  <path d="M12 28H52" stroke="#008fd2" stroke-width="2" stroke-linecap="round"/>
</svg>