<svg preserveAspectRatio="none" width="100%" height="100%" overflow="visible" style="display: block;" viewBox="0 0 80 80" fill="none" xmlns="http://www.w3.org/2000/svg">
<g id="80 /  shield">
<path id="Union" d="M42.9519 78.3528C41.1167 79.4588 38.8833 79.4588 37.0481 78.3528C31.1123 74.7753 17.672 65.2941 10.3149 49.1618C4.9662 37.4334 4.84634 20.8995 5.05533 14.1547C5.10725 12.479 6.57096 11.2195 8.24748 11.2283C11.8989 11.2477 18.3196 10.9071 24.6426 8.74954C30.7476 6.66636 35.2947 3.69798 37.7988 1.81038C39.0758 0.847854 40.9242 0.84785 42.2011 1.81037C44.7053 3.69797 49.2524 6.66635 55.3574 8.74954C61.6804 10.9071 68.1011 11.2477 71.7525 11.2283C73.4291 11.2195 74.8928 12.479 74.9447 14.1547C75.1537 20.8995 75.0338 37.4334 69.6851 49.1618C62.328 65.2941 48.8876 74.7753 42.9519 78.3528Z" fill="url(#paint0_linear_711_6101)"/>
<path id="Union_2" fill-rule="evenodd" clip-rule="evenodd" d="M43.5143 25.5686C41.473 26.453 38.5269 26.453 36.4857 25.5686C34.8272 24.85 32.972 24.7834 31.2603 25.5363C27.648 27.1253 26.0278 31.7689 27.6 35.9578C27.6004 35.9587 27.6004 35.9597 27.6 35.9607L28.0906 37.0396C29.7491 40.6866 30.9992 44.5096 31.8177 48.4376L32.5963 52.1741C32.8657 53.2483 33.8178 54 34.9088 54C36.0806 54 37.079 53.1357 37.2651 51.9603L38.3627 45.025C38.4919 44.2082 39.1857 43.6076 40 43.6076C40.8143 43.6076 41.5081 44.2082 41.6374 45.025L42.7349 51.9603C42.921 53.1357 43.9194 54 45.0912 54C46.1822 54 47.1343 53.2483 47.4037 52.1741L48.1823 48.4376C49.0008 44.5096 50.2509 40.6866 51.9094 37.0395L52.4 35.9607C52.3996 35.9597 52.3996 35.9587 52.4 35.9578C53.9722 31.7689 52.352 27.1253 48.7397 25.5363C47.028 24.7834 45.1728 24.85 43.5143 25.5686Z" fill="url(#paint1_linear_711_6101)"/>
<g id="Subtract">
<path d="M38.8578 3.77085C39.5001 3.20736 40.4998 3.20736 41.142 3.77085C43.1549 5.53693 47.7439 9.08848 54.2309 11.2835C60.915 13.5453 67.7173 13.6337 70.6928 13.5375C71.5425 13.5101 72.2801 14.1513 72.3002 15.0013C72.4201 20.0733 72.3512 36.5298 67.0268 48.1078C59.7981 63.8264 46.5469 72.8776 41.7729 75.7494C40.6736 76.4106 39.3263 76.4106 38.227 75.7494C33.4529 72.8776 20.2017 63.8263 12.9731 48.1078C7.64868 36.5298 7.57979 20.0733 7.69964 15.0013C7.71973 14.1514 8.4574 13.5102 9.30706 13.5375C12.2825 13.6337 19.0849 13.5452 25.769 11.2835C32.2559 9.08852 36.8449 5.53696 38.8578 3.77085ZM40.727 12.639C40.3122 12.2937 39.6877 12.2937 39.2729 12.639C37.8471 13.8258 34.3856 16.4055 29.435 18.1244C24.3835 19.8782 19.2411 19.9175 17.0971 19.8382C16.5288 19.8172 16.0383 20.2464 16.0239 20.8148C15.9303 24.5483 15.9249 37.5534 19.935 46.5003C25.3064 58.4844 35.1564 65.1681 38.6928 67.2689C39.5044 67.751 40.4955 67.751 41.3071 67.2689C44.8435 65.1681 54.6944 58.4846 60.0659 46.5003C64.0759 37.5534 64.0705 24.5483 63.977 20.8148C63.9626 20.2463 63.4711 19.8172 62.9028 19.8382C60.7587 19.9175 55.6163 19.8782 50.5649 18.1244C45.6142 16.4054 42.1528 13.8258 40.727 12.639Z" fill="url(#paint2_linear_711_6101)"/>
<path d="M38.8578 3.77085C39.5001 3.20736 40.4998 3.20736 41.142 3.77085C43.1549 5.53693 47.7439 9.08848 54.2309 11.2835C60.915 13.5453 67.7173 13.6337 70.6928 13.5375C71.5425 13.5101 72.2801 14.1513 72.3002 15.0013C72.4201 20.0733 72.3512 36.5298 67.0268 48.1078C59.7981 63.8264 46.5469 72.8776 41.7729 75.7494C40.6736 76.4106 39.3263 76.4106 38.227 75.7494C33.4529 72.8776 20.2017 63.8263 12.9731 48.1078C7.64868 36.5298 7.57979 20.0733 7.69964 15.0013C7.71973 14.1514 8.4574 13.5102 9.30706 13.5375C12.2825 13.6337 19.0849 13.5452 25.769 11.2835C32.2559 9.08852 36.8449 5.53696 38.8578 3.77085ZM40.727 12.639C40.3122 12.2937 39.6877 12.2937 39.2729 12.639C37.8471 13.8258 34.3856 16.4055 29.435 18.1244C24.3835 19.8782 19.2411 19.9175 17.0971 19.8382C16.5288 19.8172 16.0383 20.2464 16.0239 20.8148C15.9303 24.5483 15.9249 37.5534 19.935 46.5003C25.3064 58.4844 35.1564 65.1681 38.6928 67.2689C39.5044 67.751 40.4955 67.751 41.3071 67.2689C44.8435 65.1681 54.6944 58.4846 60.0659 46.5003C64.0759 37.5534 64.0705 24.5483 63.977 20.8148C63.9626 20.2463 63.4711 19.8172 62.9028 19.8382C60.7587 19.9175 55.6163 19.8782 50.5649 18.1244C45.6142 16.4054 42.1528 13.8258 40.727 12.639Z" fill="url(#paint3_linear_711_6101)" fill-opacity="0.2"/>
<g clip-path="url(#paint4_angular_711_6101_clip_path)" data-figma-skip-parse="true"><g transform="matrix(2.72821e-09 0.0864992 -0.0694522 2.14366e-09 39.9998 -9.99988)"><foreignObject x="-1008.62" y="-1008.62" width="2017.24" height="2017.24"><div xmlns="http://www.w3.org/1999/xhtml" style="background:conic-gradient(from 90deg,rgba(135, 142, 167, 0.8336) 0deg,rgba(68, 76, 107, 0.67) 0.101254deg,rgba(204, 209, 229, 1) 359.897deg,rgba(135, 142, 167, 0.8336) 360deg);height:100%;width:100%;opacity:0.14"></div></foreignObject></g></g><path d="M38.8578 3.77085C39.5001 3.20736 40.4998 3.20736 41.142 3.77085C43.1549 5.53693 47.7439 9.08848 54.2309 11.2835C60.915 13.5453 67.7173 13.6337 70.6928 13.5375C71.5425 13.5101 72.2801 14.1513 72.3002 15.0013C72.4201 20.0733 72.3512 36.5298 67.0268 48.1078C59.7981 63.8264 46.5469 72.8776 41.7729 75.7494C40.6736 76.4106 39.3263 76.4106 38.227 75.7494C33.4529 72.8776 20.2017 63.8263 12.9731 48.1078C7.64868 36.5298 7.57979 20.0733 7.69964 15.0013C7.71973 14.1514 8.4574 13.5102 9.30706 13.5375C12.2825 13.6337 19.0849 13.5452 25.769 11.2835C32.2559 9.08852 36.8449 5.53696 38.8578 3.77085ZM40.727 12.639C40.3122 12.2937 39.6877 12.2937 39.2729 12.639C37.8471 13.8258 34.3856 16.4055 29.435 18.1244C24.3835 19.8782 19.2411 19.9175 17.0971 19.8382C16.5288 19.8172 16.0383 20.2464 16.0239 20.8148C15.9303 24.5483 15.9249 37.5534 19.935 46.5003C25.3064 58.4844 35.1564 65.1681 38.6928 67.2689C39.5044 67.751 40.4955 67.751 41.3071 67.2689C44.8435 65.1681 54.6944 58.4846 60.0659 46.5003C64.0759 37.5534 64.0705 24.5483 63.977 20.8148C63.9626 20.2463 63.4711 19.8172 62.9028 19.8382C60.7587 19.9175 55.6163 19.8782 50.5649 18.1244C45.6142 16.4054 42.1528 13.8258 40.727 12.639Z" data-figma-gradient-fill="{&#34;type&#34;:&#34;GRADIENT_ANGULAR&#34;,&#34;stops&#34;:[{&#34;color&#34;:{&#34;r&#34;:0.26946181058883667,&#34;g&#34;:0.30001044273376465,&#34;b&#34;:0.42220485210418701,&#34;a&#34;:0.67000001668930054},&#34;position&#34;:0.00028126200777478516},{&#34;color&#34;:{&#34;r&#34;:0.80000001192092896,&#34;g&#34;:0.81960785388946533,&#34;b&#34;:0.89803922176361084,&#34;a&#34;:1.0},&#34;position&#34;:0.99971389770507812}],&#34;stopsVar&#34;:[],&#34;transform&#34;:{&#34;m00&#34;:5.4564156926062424e-06,&#34;m01&#34;:-138.90441894531250,&#34;m02&#34;:109.45197296142578,&#34;m10&#34;:172.99842834472656,&#34;m11&#34;:4.2873207348748110e-06,&#34;m12&#34;:-96.499092102050781},&#34;opacity&#34;:0.14000000059604645,&#34;blendMode&#34;:&#34;NORMAL&#34;,&#34;visible&#34;:true}"/>
</g>
<g id="Rectangle 690" filter="url(#filter0_d_711_6101)">
<rect x="38" y="2" width="4" height="7" rx="2" fill="var(--fill-0, #E2E6F5)"/>
</g>
<g id="Rectangle 696" filter="url(#filter1_d_711_6101)">
<rect x="38" y="71" width="4" height="7" rx="2" fill="var(--fill-0, #C7CBDF)"/>
</g>
<g id="Rectangle 694" filter="url(#filter2_d_711_6101)">
<rect x="6" y="14.8284" width="4" height="5" rx="2" transform="rotate(-45 6 14.8284)" fill="var(--fill-0, #DEE2F2)"/>
</g>
<g id="Rectangle 695" filter="url(#filter3_d_711_6101)">
<rect width="4" height="5" rx="2" transform="matrix(-0.707107 -0.707107 -0.707107 0.707107 74.364 14.8284)" fill="var(--fill-0, #DEE2F2)"/>
</g>
</g>
<defs>
<clipPath id="paint4_angular_711_6101_clip_path"><path d="M38.8578 3.77085C39.5001 3.20736 40.4998 3.20736 41.142 3.77085C43.1549 5.53693 47.7439 9.08848 54.2309 11.2835C60.915 13.5453 67.7173 13.6337 70.6928 13.5375C71.5425 13.5101 72.2801 14.1513 72.3002 15.0013C72.4201 20.0733 72.3512 36.5298 67.0268 48.1078C59.7981 63.8264 46.5469 72.8776 41.7729 75.7494C40.6736 76.4106 39.3263 76.4106 38.227 75.7494C33.4529 72.8776 20.2017 63.8263 12.9731 48.1078C7.64868 36.5298 7.57979 20.0733 7.69964 15.0013C7.71973 14.1514 8.4574 13.5102 9.30706 13.5375C12.2825 13.6337 19.0849 13.5452 25.769 11.2835C32.2559 9.08852 36.8449 5.53696 38.8578 3.77085ZM40.727 12.639C40.3122 12.2937 39.6877 12.2937 39.2729 12.639C37.8471 13.8258 34.3856 16.4055 29.435 18.1244C24.3835 19.8782 19.2411 19.9175 17.0971 19.8382C16.5288 19.8172 16.0383 20.2464 16.0239 20.8148C15.9303 24.5483 15.9249 37.5534 19.935 46.5003C25.3064 58.4844 35.1564 65.1681 38.6928 67.2689C39.5044 67.751 40.4955 67.751 41.3071 67.2689C44.8435 65.1681 54.6944 58.4846 60.0659 46.5003C64.0759 37.5534 64.0705 24.5483 63.977 20.8148C63.9626 20.2463 63.4711 19.8172 62.9028 19.8382C60.7587 19.9175 55.6163 19.8782 50.5649 18.1244C45.6142 16.4054 42.1528 13.8258 40.727 12.639Z"/></clipPath><filter id="filter0_d_711_6101" x="34" y="2" width="12" height="15" filterUnits="userSpaceOnUse" color-interpolation-filters="sRGB">
<feFlood flood-opacity="0" result="BackgroundImageFix"/>
<feColorMatrix in="SourceAlpha" type="matrix" values="0 0 0 0 0 0 0 0 0 0 0 0 0 0 0 0 0 0 127 0" result="hardAlpha"/>
<feOffset dy="4"/>
<feGaussianBlur stdDeviation="2"/>
<feComposite in2="hardAlpha" operator="out"/>
<feColorMatrix type="matrix" values="0 0 0 0 0.0684722 0 0 0 0 0.0823278 0 0 0 0 0.414861 0 0 0 0.15 0"/>
<feBlend mode="normal" in2="BackgroundImageFix" result="effect1_dropShadow_711_6101"/>
<feBlend mode="normal" in="SourceGraphic" in2="effect1_dropShadow_711_6101" result="shape"/>
</filter>
<filter id="filter1_d_711_6101" x="34" y="64" width="12" height="15" filterUnits="userSpaceOnUse" color-interpolation-filters="sRGB">
<feFlood flood-opacity="0" result="BackgroundImageFix"/>
<feColorMatrix in="SourceAlpha" type="matrix" values="0 0 0 0 0 0 0 0 0 0 0 0 0 0 0 0 0 0 127 0" result="hardAlpha"/>
<feOffset dy="-3"/>
<feGaussianBlur stdDeviation="2"/>
<feComposite in2="hardAlpha" operator="out"/>
<feColorMatrix type="matrix" values="0 0 0 0 0.0684722 0 0 0 0 0.0823278 0 0 0 0 0.414861 0 0 0 0.15 0"/>
<feBlend mode="normal" in2="BackgroundImageFix" result="effect1_dropShadow_711_6101"/>
<feBlend mode="normal" in="SourceGraphic" in2="effect1_dropShadow_711_6101" result="shape"/>
</filter>
<filter id="filter2_d_711_6101" x="3.82843" y="11.8284" width="12.7071" height="12.7071" filterUnits="userSpaceOnUse" color-interpolation-filters="sRGB">
<feFlood flood-opacity="0" result="BackgroundImageFix"/>
<feColorMatrix in="SourceAlpha" type="matrix" values="0 0 0 0 0 0 0 0 0 0 0 0 0 0 0 0 0 0 127 0" result="hardAlpha"/>
<feOffset dx="1" dy="3"/>
<feGaussianBlur stdDeviation="2"/>
<feComposite in2="hardAlpha" operator="out"/>
<feColorMatrix type="matrix" values="0 0 0 0 0.0684722 0 0 0 0 0.0823278 0 0 0 0 0.414861 0 0 0 0.15 0"/>
<feBlend mode="normal" in2="BackgroundImageFix" result="effect1_dropShadow_711_6101"/>
<feBlend mode="normal" in="SourceGraphic" in2="effect1_dropShadow_711_6101" result="shape"/>
</filter>
<filter id="filter3_d_711_6101" x="63.8284" y="11.8284" width="12.7071" height="12.7071" filterUnits="userSpaceOnUse" color-interpolation-filters="sRGB">
<feFlood flood-opacity="0" result="BackgroundImageFix"/>
<feColorMatrix in="SourceAlpha" type="matrix" values="0 0 0 0 0 0 0 0 0 0 0 0 0 0 0 0 0 0 127 0" result="hardAlpha"/>
<feOffset dx="-1" dy="3"/>
<feGaussianBlur stdDeviation="2"/>
<feComposite in2="hardAlpha" operator="out"/>
<feColorMatrix type="matrix" values="0 0 0 0 0.0684722 0 0 0 0 0.0823278 0 0 0 0 0.414861 0 0 0 0.15 0"/>
<feBlend mode="normal" in2="BackgroundImageFix" result="effect1_dropShadow_711_6101"/>
<feBlend mode="normal" in="SourceGraphic" in2="effect1_dropShadow_711_6101" result="shape"/>
</filter>
<linearGradient id="paint0_linear_711_6101" x1="40" y1="1.55925e-08" x2="41.0189" y2="79.987" gradientUnits="userSpaceOnUse">
<stop stop-color="#E2E6F5"/>
<stop offset="1" stop-color="#C6CADE"/>
</linearGradient>
<linearGradient id="paint1_linear_711_6101" x1="30.4412" y1="25" x2="46.3848" y2="52.6862" gradientUnits="userSpaceOnUse">
<stop stop-color="#F5F6FA"/>
<stop offset="1" stop-color="#DDDFEA"/>
</linearGradient>
<linearGradient id="paint2_linear_711_6101" x1="47.7821" y1="74.0091" x2="-17.7527" y2="-35.1925" gradientUnits="userSpaceOnUse">
<stop stop-color="#E2E6F5"/>
<stop offset="0.705135" stop-color="#C6CADE"/>
</linearGradient>
<linearGradient id="paint3_linear_711_6101" x1="39.9998" y1="3.13691" x2="39.9998" y2="76.245" gradientUnits="userSpaceOnUse">
<stop stop-color="#9DA6CE"/>
<stop offset="1" stop-color="#CED2E4"/>
</linearGradient>
</defs>
</svg>
