<svg preserveAspectRatio="none" width="100%" height="100%" overflow="visible" style="display: block;" viewBox="0 0 80 70" fill="none" xmlns="http://www.w3.org/2000/svg">
<g id="Frame 95" opacity="0.9">
<path id="Vector 521" d="M26.4516 13C21.5484 13 6.77419 22.6702 0 28.7959H8.69565C17.4761 28.7959 32.1782 26.7012 40.3226 26.7012C49.454 26.7012 65.4578 28.7959 73.913 28.7959H80C72.9032 22.6702 57.6129 13 53.2258 13C47.7419 13 43.871 17.9956 40.3226 17.9956C36.7742 17.9956 32.5806 13 26.4516 13Z" fill="url(#paint0_linear_711_6112)"/>
<path id="Vector 522" d="M6.08696 28.7959H0C4.25356 37.8639 17.8685 56 40.4348 56C63.0011 56 75.5226 37.8639 80 28.7959H74.7826C74.7826 28.7959 59.9116 39.3265 40.4348 39.3265C20.9579 39.3265 6.08696 28.7959 6.08696 28.7959Z" fill="url(#paint1_linear_711_6112)"/>
</g>
<defs>
<linearGradient id="paint0_linear_711_6112" x1="40" y1="13" x2="40" y2="28.7959" gradientUnits="userSpaceOnUse">
<stop stop-color="#C97F7A"/>
<stop offset="1" stop-color="#E0A29F"/>
</linearGradient>
<linearGradient id="paint1_linear_711_6112" x1="40" y1="28.7959" x2="40" y2="56" gradientUnits="userSpaceOnUse">
<stop stop-color="#C97F7A"/>
<stop offset="1" stop-color="#E0A29F"/>
</linearGradient>
</defs>
</svg>
