<svg xmlns="http://www.w3.org/2000/svg" width="18" height="17" viewBox="0 0 18 17" fill="none">
  <path d="M3.27069 7.23438H1.03909C0.764 7.23437 0.500123 7.34385 0.305234 7.53884C0.110344 7.73384 0.000325599 7.99845 -0.000732422 8.27473V15.5733C0.000320946 15.85 0.110211 16.115 0.304987 16.3106C0.499763 16.5063 0.763633 16.6166 1.03909 16.6177H3.27069C3.54615 16.6166 3.81002 16.5063 4.00479 16.3106C4.19957 16.115 4.30946 15.85 4.31051 15.5733V8.27473C4.30945 7.99845 4.19943 7.73384 4.00455 7.53884C3.80966 7.34385 3.54578 7.23437 3.27069 7.23438Z" fill="white"/>
  <path d="M17.4616 7.4206C17.2033 7.05817 16.8622 6.76324 16.467 6.56056C16.0717 6.35787 15.6338 6.25333 15.19 6.25571H11.5027C11.9721 4.62314 11.8048 2.87229 11.0348 1.3592C10.8993 1.08553 10.6745 0.866888 10.3977 0.739844C10.121 0.612799 9.80924 0.585067 9.51459 0.661286C9.21994 0.737506 8.9603 0.913054 8.7791 1.15855C8.59791 1.40405 8.50616 1.70461 8.51921 2.00992C8.65872 3.46217 8.2803 4.91699 7.45139 6.11513L7.29542 6.34007L5.75569 8.15166C5.57679 8.3653 5.47902 8.6357 5.47974 8.91486V15.5748C5.47974 15.8518 5.58929 16.1174 5.7843 16.3133C5.9793 16.5091 6.24378 16.6191 6.51956 16.6191H14.2462C14.6603 16.6195 15.0639 16.4884 15.3993 16.2446C15.7347 16.0007 15.9848 15.6566 16.1139 15.2614L17.8536 9.96325C17.9964 9.53898 18.0354 9.08639 17.9671 8.64379C17.8989 8.20119 17.7255 7.78162 17.4616 7.4206Z" fill="white"/>
</svg>
