<svg preserveAspectRatio="none" width="100%" height="100%" overflow="visible" style="display: block;" viewBox="0 0 80 80" fill="none" xmlns="http://www.w3.org/2000/svg">
<g id="80 /  tooth-loosen">
<path id="Rectangle 667" d="M14 36C20.5519 39.5143 27.8714 41.3534 35.3063 41.3534H44.0914C51.6458 41.3534 59.0696 39.384 65.6305 35.6393L60.1681 69H17.2694L14 36Z" fill="url(#paint0_linear_720_6131)"/>
<path id="Rectangle 666" d="M7.35051 40.0081C7.16102 37.3006 9.30628 35 12.0204 35C14.1374 35 15.9909 36.4208 16.5409 38.4651L22.8909 62.0692C23.69 65.0397 26.2364 67.2111 29.2958 67.5309C32.053 67.8192 34.7414 66.5491 36.2699 64.2364L36.3251 64.1528C36.8253 63.3959 37.1315 62.5275 37.2165 61.6243L38.0124 53.176C38.1157 52.0795 39.6565 51.931 39.9673 52.9875L42.6553 62.1238C42.8262 62.7047 43.0828 63.2568 43.4166 63.7619L43.7301 64.2364C45.2586 66.5491 47.947 67.8192 50.7042 67.5309C53.7636 67.2111 56.31 65.0397 57.1091 62.0692L63.4591 38.4651C64.0091 36.4208 65.8626 35 67.9796 35C70.6937 35 72.839 37.3007 72.6495 40.0081L70.9117 64.8378C70.4717 71.1247 65.2432 76 58.941 76H21.059C14.7568 76 9.52835 71.1247 9.08833 64.8378L7.35051 40.0081Z" fill="url(#paint1_linear_720_6131)"/>
<path id="Union" fill-rule="evenodd" clip-rule="evenodd" d="M38.7842 8.81356C35.2218 11.2254 29.6155 12.3152 25.409 11.4134C21.9913 10.6807 18.4368 11.2421 15.4537 13.2859C9.15822 17.5988 7.76601 26.8972 12.2832 34.1629C12.2842 34.1645 12.2846 34.1665 12.2842 34.1683L13.6107 36.008C18.0948 42.2267 21.8659 48.9263 24.8537 55.982L27.6959 62.6939C28.5998 64.6065 30.6854 65.6626 32.7615 65.259C34.9914 64.8256 36.5766 62.8371 36.5026 60.5663L36.0658 47.1681C36.0144 45.5901 37.116 44.2083 38.6655 43.9071C40.215 43.6059 41.754 44.4744 42.2975 45.9568L46.9115 58.543C47.6935 60.6762 49.9082 61.926 52.1381 61.4926C54.2143 61.089 55.7524 59.3286 55.8739 57.2166L55.9949 49.9288C56.122 42.2676 57.1088 34.6431 58.9368 27.1975L59.4776 24.9949C59.4765 24.9933 59.4761 24.9914 59.4764 24.9895C60.9429 16.5606 56.1689 8.46086 48.7162 6.82027C45.1846 6.04284 41.6786 6.8539 38.7842 8.81356Z" fill="url(#paint2_linear_720_6131)"/>
</g>
<defs>
<linearGradient id="paint0_linear_720_6131" x1="43" y1="36" x2="42.5299" y2="67.5004" gradientUnits="userSpaceOnUse">
<stop stop-color="#C15D5D"/>
<stop offset="0.828884" stop-color="#D7908E"/>
</linearGradient>
<linearGradient id="paint1_linear_720_6131" x1="12.001" y1="36.5" x2="45.001" y2="71.5" gradientUnits="userSpaceOnUse">
<stop stop-color="#FF5F5D"/>
<stop offset="1" stop-color="#F7A6A5"/>
</linearGradient>
<linearGradient id="paint2_linear_720_6131" x1="13.6996" y1="12.5841" x2="53.4908" y2="59.0922" gradientUnits="userSpaceOnUse">
<stop stop-color="#F0F6F9"/>
<stop offset="1" stop-color="#CDDFF2"/>
</linearGradient>
</defs>
</svg>
