<svg preserveAspectRatio="none" width="100%" height="100%" overflow="visible" style="display: block;" viewBox="0 0 80 80" fill="none" xmlns="http://www.w3.org/2000/svg">
<g id="80 /  tooth" clip-path="url(#clip0_720_6128)">
<path id="Union" fill-rule="evenodd" clip-rule="evenodd" d="M16.9011 15.7571C16.2585 21.1398 12.6628 27.3677 8.32258 30.6155C4.79623 33.2544 2.39272 37.0957 1.87754 41.623C0.790323 51.1772 8.51981 60.2065 19.1952 61.9384C19.1976 61.9388 19.1997 61.9401 19.2012 61.942L22.0553 62.2069C31.7033 63.1024 41.2209 65.0737 50.4308 68.0841L59.1919 70.9478C61.7661 71.6747 64.4996 70.5692 65.8313 68.2627C67.2614 65.7856 66.6732 62.6318 64.4432 60.8199L51.2853 50.1295C49.7357 48.8704 49.3269 46.6788 50.3208 44.9575C51.3146 43.2361 53.4169 42.4943 55.2822 43.2068L71.1192 49.2567C73.8034 50.282 76.8288 49.2145 78.2589 46.7374C79.5905 44.4309 79.1812 41.5109 77.2646 39.6449L70.404 33.4895C63.1919 27.0187 56.7259 19.7618 51.1264 11.8542L49.4699 9.5149C49.4676 9.51461 49.4654 9.51339 49.4639 9.51153C42.6263 1.13232 30.9419 -1.04692 23.2114 4.6717C19.5482 7.38155 17.4232 11.3838 16.9011 15.7571Z" fill="url(#paint0_linear_720_6128)"/>
</g>
<defs>
<linearGradient id="paint0_linear_720_6128" x1="-0.24336" y1="42.7073" x2="77.0869" y2="43.1674" gradientUnits="userSpaceOnUse">
<stop stop-color="#F0F6F9"/>
<stop offset="1" stop-color="#CDDFF2"/>
</linearGradient>
<clipPath id="clip0_720_6128">
<rect width="80" height="80" fill="white"/>
</clipPath>
</defs>
</svg>
