<svg preserveAspectRatio="none" width="100%" height="100%" overflow="visible" style="display: block;" viewBox="0 0 80 80" fill="none" xmlns="http://www.w3.org/2000/svg">
<g id="80 /  tooth-xray-spot">
<path id="Union" fill-rule="evenodd" clip-rule="evenodd" d="M48.312 6.37244C43.3292 8.50723 36.1378 8.50722 31.155 6.37243C27.1065 4.63793 22.5781 4.47709 18.3997 6.2946C9.58198 10.1301 5.62706 21.3387 9.46489 31.4498C9.46574 31.4521 9.4657 31.4546 9.46477 31.4568L10.6624 34.061C14.7109 42.8641 17.7625 52.0923 19.7603 61.5735L21.6608 70.5927C22.3185 73.1855 24.6426 75 27.3059 75C30.1662 75 32.6034 72.9137 33.0575 70.0765L35.7368 53.3363C36.0523 51.3647 37.7459 49.9149 39.7336 49.9149C41.7213 49.9149 43.4149 51.3647 43.7304 53.3363L46.4096 70.0765C46.8637 72.9137 49.3009 75 52.1612 75C54.8245 75 57.1486 73.1855 57.8063 70.5927L59.7068 61.5735C61.7046 52.0923 64.7562 42.8641 68.8047 34.061L70.0024 31.4568C70.0014 31.4546 70.0014 31.4521 70.0022 31.4498C73.8401 21.3387 69.8851 10.1301 61.0674 6.2946C56.889 4.47707 52.3605 4.63792 48.312 6.37244Z" fill="url(#paint0_linear_703_5874)"/>
<path id="Union_2" fill-rule="evenodd" clip-rule="evenodd" d="M48.312 6.37244C43.3292 8.50723 36.1378 8.50722 31.155 6.37243C27.1065 4.63793 22.5781 4.47709 18.3997 6.2946C9.58198 10.1301 5.62706 21.3387 9.46489 31.4498C9.46574 31.4521 9.4657 31.4546 9.46477 31.4568L10.6624 34.061C14.7109 42.8641 17.7625 52.0923 19.7603 61.5735L21.6608 70.5927C22.3185 73.1855 24.6426 75 27.3059 75C30.1662 75 32.6034 72.9137 33.0575 70.0765L35.7368 53.3363C36.0523 51.3647 37.7459 49.9149 39.7336 49.9149C41.7213 49.9149 43.4149 51.3647 43.7304 53.3363L46.4096 70.0765C46.8637 72.9137 49.3009 75 52.1612 75C54.8245 75 57.1486 73.1855 57.8063 70.5927L59.7068 61.5735C61.7046 52.0923 64.7562 42.8641 68.8047 34.061L70.0024 31.4568C70.0014 31.4546 70.0014 31.4521 70.0022 31.4498C73.8401 21.3387 69.8851 10.1301 61.0674 6.2946C56.889 4.47707 52.3605 4.63792 48.312 6.37244Z" fill="url(#paint1_linear_703_5874)"/>
<g id="Intersect">
<path d="M48.3123 6.37216C52.3607 4.63779 56.8889 4.47755 61.0672 6.29501C69.8849 10.1305 73.8396 21.3392 70.0017 31.4503C70.0011 31.4524 70.0019 31.4551 70.0027 31.4571L68.8045 34.0606C67.5678 36.7497 66.4248 39.4788 65.3758 42.2423C58.1777 41.0782 50.2876 38.3887 43.9617 32.9503C33.8351 24.2442 30.6313 12.9473 30.0896 5.95712C30.4479 6.08375 30.8035 6.22153 31.1551 6.37216C36.1378 8.50695 43.3295 8.50695 48.3123 6.37216Z" fill="url(#paint2_linear_703_5874)"/>
<path d="M48.3123 6.37216C52.3607 4.63779 56.8889 4.47755 61.0672 6.29501C69.8849 10.1305 73.8396 21.3392 70.0017 31.4503C70.0011 31.4524 70.0019 31.4551 70.0027 31.4571L68.8045 34.0606C67.5678 36.7497 66.4248 39.4788 65.3758 42.2423C58.1777 41.0782 50.2876 38.3887 43.9617 32.9503C33.8351 24.2442 30.6313 12.9473 30.0896 5.95712C30.4479 6.08375 30.8035 6.22153 31.1551 6.37216C36.1378 8.50695 43.3295 8.50695 48.3123 6.37216Z" fill="url(#paint3_linear_703_5874)" fill-opacity="0.1"/>
<path d="M48.3123 6.37216C52.3607 4.63779 56.8889 4.47755 61.0672 6.29501C69.8849 10.1305 73.8396 21.3392 70.0017 31.4503C70.0011 31.4524 70.0019 31.4551 70.0027 31.4571L68.8045 34.0606C67.5678 36.7497 66.4248 39.4788 65.3758 42.2423C58.1777 41.0782 50.2876 38.3887 43.9617 32.9503C33.8351 24.2442 30.6313 12.9473 30.0896 5.95712C30.4479 6.08375 30.8035 6.22153 31.1551 6.37216C36.1378 8.50695 43.3295 8.50695 48.3123 6.37216Z" fill="url(#paint4_linear_703_5874)" fill-opacity="0.1"/>
</g>
<g id="Intersect_2">
<path d="M48.3123 6.37216C52.3607 4.63779 56.8889 4.47755 61.0672 6.29501C69.8849 10.1305 73.8396 21.3392 70.0017 31.4503C70.0011 31.4524 70.0019 31.4551 70.0027 31.4571L68.8045 34.0606C67.5678 36.7497 66.4248 39.4788 65.3758 42.2423C58.1777 41.0782 50.2876 38.3887 43.9617 32.9503C33.8351 24.2442 30.6313 12.9473 30.0896 5.95712C30.4479 6.08375 30.8035 6.22153 31.1551 6.37216C36.1378 8.50695 43.3295 8.50695 48.3123 6.37216Z" fill="url(#paint5_linear_703_5874)"/>
<path d="M48.3123 6.37216C52.3607 4.63779 56.8889 4.47755 61.0672 6.29501C69.8849 10.1305 73.8396 21.3392 70.0017 31.4503C70.0011 31.4524 70.0019 31.4551 70.0027 31.4571L68.8045 34.0606C67.5678 36.7497 66.4248 39.4788 65.3758 42.2423C58.1777 41.0782 50.2876 38.3887 43.9617 32.9503C33.8351 24.2442 30.6313 12.9473 30.0896 5.95712C30.4479 6.08375 30.8035 6.22153 31.1551 6.37216C36.1378 8.50695 43.3295 8.50695 48.3123 6.37216Z" fill="url(#paint6_linear_703_5874)" fill-opacity="0.1"/>
<path d="M48.3123 6.37216C52.3607 4.63779 56.8889 4.47755 61.0672 6.29501C69.8849 10.1305 73.8396 21.3392 70.0017 31.4503C70.0011 31.4524 70.0019 31.4551 70.0027 31.4571L68.8045 34.0606C67.5678 36.7497 66.4248 39.4788 65.3758 42.2423C58.1777 41.0782 50.2876 38.3887 43.9617 32.9503C33.8351 24.2442 30.6313 12.9473 30.0896 5.95712C30.4479 6.08375 30.8035 6.22153 31.1551 6.37216C36.1378 8.50695 43.3295 8.50695 48.3123 6.37216Z" fill="url(#paint7_linear_703_5874)" fill-opacity="0.1"/>
</g>
<path id="Intersect_3" d="M32.8027 17.325C34.891 22.5495 38.3721 28.1446 43.9621 32.9504C47.2743 35.7979 51.0151 37.8921 54.8608 39.4084L59.3993 28.7209C62.3101 21.8665 56.1119 14.6442 48.8952 16.4812L44.0857 17.7055C40.7516 18.5541 37.2551 18.5284 33.9339 17.6308L32.8027 17.325Z" fill="url(#paint8_radial_703_5874)"/>
</g>
<defs>
<linearGradient id="paint0_linear_703_5874" x1="16.4002" y1="5" x2="54.6669" y2="72.2" gradientUnits="userSpaceOnUse">
<stop stop-color="#F0F6F9"/>
<stop offset="1" stop-color="#CDDFF2"/>
</linearGradient>
<linearGradient id="paint1_linear_703_5874" x1="16.4002" y1="5" x2="54.6669" y2="72.2" gradientUnits="userSpaceOnUse">
<stop stop-color="#F0F6F9"/>
<stop offset="1" stop-color="#CDDFF2"/>
</linearGradient>
<linearGradient id="paint2_linear_703_5874" x1="61.0002" y1="3.00017" x2="39.0008" y2="48.4981" gradientUnits="userSpaceOnUse">
<stop stop-color="#E0EDF6"/>
<stop offset="1" stop-color="#A5CAE8"/>
</linearGradient>
<linearGradient id="paint3_linear_703_5874" x1="29.002" y1="11.4998" x2="35.5016" y2="11.4998" gradientUnits="userSpaceOnUse">
<stop stop-color="#043A70"/>
<stop offset="1" stop-color="#065099" stop-opacity="0"/>
</linearGradient>
<linearGradient id="paint4_linear_703_5874" x1="61.5001" y1="44.4986" x2="61.5001" y2="37.9988" gradientUnits="userSpaceOnUse">
<stop stop-color="#002C57"/>
<stop offset="1" stop-color="#065099" stop-opacity="0"/>
</linearGradient>
<linearGradient id="paint5_linear_703_5874" x1="61.0002" y1="3.00017" x2="39.0008" y2="48.4981" gradientUnits="userSpaceOnUse">
<stop stop-color="#E0EDF6"/>
<stop offset="1" stop-color="#A5CAE8"/>
</linearGradient>
<linearGradient id="paint6_linear_703_5874" x1="29.002" y1="11.4998" x2="35.5016" y2="11.4998" gradientUnits="userSpaceOnUse">
<stop stop-color="#043A70"/>
<stop offset="1" stop-color="#065099" stop-opacity="0"/>
</linearGradient>
<linearGradient id="paint7_linear_703_5874" x1="61.5001" y1="44.4986" x2="61.5001" y2="37.9988" gradientUnits="userSpaceOnUse">
<stop stop-color="#002C57"/>
<stop offset="1" stop-color="#065099" stop-opacity="0"/>
</linearGradient>
<radialGradient id="paint8_radial_703_5874" cx="0" cy="0" r="1" gradientTransform="matrix(14.5 -17 19.4775 15.0703 43.5 33)" gradientUnits="userSpaceOnUse">
<stop stop-color="#F5A2A1"/>
<stop offset="1" stop-color="#D96F6E"/>
</radialGradient>
</defs>
</svg>
