<?xml version="1.0" encoding="UTF-8"?>
<svg id="_·_ÀÌ_î_1" data-name="·¹ÀÌ¾î_1" xmlns="http://www.w3.org/2000/svg" viewBox="0 0 239.22 69.51">
  <defs>
    <style>
      .cls-1 {
        fill: #fff;
      }

      .cls-2 {
        fill: #009fbb;
      }
    </style>
  </defs>
  <polygon class="cls-1" points="22.87 13.66 40.34 13.66 37.95 69.25 21.88 69.51 .77 41.8 0 30.73 22.87 13.66"/>
  <path class="cls-2" d="M.77,41.8c.83,4.54,2.48,9.67,5.65,14.33,0,0,6.01,8.82,15.46,13.39v-36.97c-8.19,6.43-17.73,8.64-21.11,9.25Z"/>
  <path class="cls-2" d="M25.28,13.66h-10.57S.81,13.66.17,28.96c0,0-.12.99-.17,2.65,4.75-1.33,18.1-6.01,25.28-17.96Z"/>
  <path class="cls-2" d="M59.15,28.96c-.64-15.3-14.54-15.3-14.54-15.3h-6.66v55.59c9.15-4.64,14.95-13.13,14.95-13.13,8.16-11.99,6.25-27.16,6.25-27.16Z"/>
  <path class="cls-2" d="M12.72,5.08c0-2.8,2.27-5.08,5.08-5.08s5.08,2.27,5.08,5.08-2.27,5.08-5.08,5.08-5.08-2.27-5.08-5.08Z"/>
  <path class="cls-2" d="M32.81,5.08c0-2.8,2.27-5.08,5.08-5.08s5.08,2.27,5.08,5.08-2.27,5.08-5.08,5.08-5.08-2.27-5.08-5.08Z"/>
  <path class="cls-1" d="M101.33,39.09c.16,0,.23.11.23.27v1.39c0,.19-.08.3-.23.3h-20.96c-.16,0-.26-.11-.26-.3v-1.39c0-.16.1-.27.26-.27h8.2v-8.12c0-.16.1-.25.28-.25h1.48c.18,0,.28.08.28.25v8.12h10.71ZM83.32,24.33c-.16,0-.26-.08-.26-.27v-1.39c0-.16.1-.27.26-.27h14.91c.18,0,.28.11.28.27v2.42c0,3.38-.39,7.08-1.06,10-.03.19-.16.3-.36.25l-1.35-.22c-.18-.03-.23-.22-.21-.35.6-2.75.93-6.46.93-9.31v-1.12h-13.15Z"/>
  <path class="cls-1" d="M108.53,32.77h-3.55c-.23,0-.34-.14-.34-.35v-10.65c0-.16.1-.27.28-.27h10.09c.18,0,.26.11.26.27v1.31c0,.19-.08.3-.26.3h-8.33v7.52h2.2c2.17,0,4.84-.08,7.25-.54.21-.03.31.03.34.25l.16,1.2c.03.19-.03.3-.23.33-2.35.46-5.02.65-7.87.65ZM121.96,35.03c.18,0,.26.11.26.27v8.39c0,.19-.08.27-.26.27h-1.5c-.18,0-.28-.08-.28-.27v-6.75h-12.58c-.18,0-.23-.11-.23-.27v-1.36c0-.16.05-.27.23-.27h14.36ZM121.93,20.1c.21,0,.28.11.28.27v13.05c0,.16-.08.27-.28.27h-1.48c-.18,0-.28-.11-.28-.27v-5.69h-6.88c-.18,0-.28-.11-.28-.27v-1.31c0-.19.1-.3.28-.3h6.88v-5.47c0-.16.1-.27.28-.27h1.48Z"/>
  <path class="cls-1" d="M140.74,36.75c.03.14-.05.25-.21.3-2.1.54-7.09.87-10.35.87h-4.06c-.18,0-.26-.11-.26-.3v-1.39c0-.19.08-.27.26-.27h2.85v-11.3h-2.38c-.18,0-.26-.11-.26-.27v-1.42c0-.14.08-.25.26-.25h12.71c.18,0,.28.11.28.25v1.42c0,.16-.1.27-.28.27h-2.41v11.03c1.24-.14,2.38-.27,3.34-.49.18-.05.28.03.31.22l.21,1.33ZM134.87,24.65h-3.91v11.3c1.29-.03,2.64-.05,3.91-.14v-11.17ZM144.8,20.1c.18,0,.28.11.28.27v23.07c0,.19-.1.3-.28.3h-1.5c-.18,0-.26-.11-.26-.3v-12.58h-3.91c-.18,0-.26-.08-.26-.27v-1.36c0-.19.08-.3.26-.3h3.91v-8.55c0-.16.08-.27.26-.27h1.5Z"/>
  <path class="cls-1" d="M169.88,39.22c.16,0,.23.08.23.27v1.39c0,.19-.08.3-.23.3h-20.96c-.16,0-.26-.11-.26-.3v-1.39c0-.19.1-.27.26-.27h20.96ZM150.31,32.55c-.05-.16,0-.3.16-.35,4.43-1.63,7.89-4.68,7.89-8.06v-2.12c0-.16.08-.27.26-.27h1.53c.18,0,.26.11.26.27v2.12c0,3.35,3.65,6.56,7.84,8.04.18.05.23.19.16.35l-.57,1.28c-.05.19-.18.25-.34.19-3.73-1.25-6.94-3.87-8.1-6.32-1.19,2.51-4.22,4.93-8.15,6.32-.18.05-.31,0-.36-.16l-.57-1.28Z"/>
  <path class="cls-1" d="M192.72,39.31c.16,0,.23.11.23.3v1.39c0,.19-.08.27-.23.27h-20.96c-.16,0-.26-.08-.26-.27v-1.39c0-.19.1-.3.26-.3h20.96ZM175.08,34.79c-.18,0-.28-.08-.28-.25v-12.23c0-.16.1-.27.28-.27h14.16c.18,0,.26.11.26.27v1.31c0,.19-.08.3-.26.3h-12.4v3.54h12.24c.18,0,.28.08.28.27v1.25c0,.16-.1.27-.28.27h-12.24v3.68h12.89c.18,0,.28.11.28.3v1.31c0,.16-.1.25-.28.25h-14.65Z"/>
  <path class="cls-1" d="M208.58,37.59l-.93,1.09c-.13.14-.26.16-.41.03-2.61-2.4-4.63-5.15-5.38-7.25-.83,2.34-2.54,5.09-5.54,7.57-.16.11-.31.14-.44,0l-.88-1.12c-.13-.14-.13-.33.03-.44,3.49-2.89,5.69-6.4,5.75-10.76h-5.07c-.21,0-.28-.11-.28-.27v-1.42c0-.14.08-.25.28-.25h5.07v-3.65c0-.16.08-.27.28-.27h1.48c.18,0,.26.11.26.27v3.65h4.92c.18,0,.28.11.28.25v1.42c0,.16-.1.27-.28.27h-4.92c.08,4.25,2.77,7.71,5.77,10.46.16.14.16.27.03.41ZM213.35,20.1c.18,0,.28.11.28.27v23.07c0,.19-.1.3-.28.3h-1.5c-.18,0-.26-.11-.26-.3v-23.07c0-.16.08-.27.26-.27h1.5Z"/>
  <path class="cls-1" d="M231.67,38.16c.03.16-.08.25-.26.3-2.79.57-6.39.76-10.09.76h-4.17c-.18,0-.26-.11-.26-.3v-1.33c0-.16.08-.25.26-.25h4.58v-7.03c0-.16.1-.25.28-.25h1.5c.16,0,.26.08.26.25v6.97c2.74-.08,5.41-.3,7.43-.68.21-.05.28.08.31.25l.16,1.31ZM218.49,24.63c-.18,0-.28-.11-.28-.27v-1.36c0-.16.1-.27.28-.27h11.15c.16,0,.23.11.23.27v2.02c0,3.16-.26,5.88-.75,8.42-.03.19-.13.25-.31.25l-1.42-.16c-.16-.03-.21-.16-.18-.33.36-2.18.65-5.28.65-7.87v-.68h-9.37ZM238.96,29.56c.16,0,.26.11.26.3v1.39c0,.19-.1.27-.26.27h-3.65v11.93c0,.19-.05.3-.26.3h-1.5c-.16,0-.26-.11-.26-.3v-23.07c0-.16.1-.27.26-.27h1.5c.21,0,.26.11.26.27v9.18h3.65Z"/>
  <path class="cls-1" d="M101.15,53.99c0-.59.04-1.1.13-1.53s.22-.78.4-1.05c.18-.27.42-.47.71-.6.29-.13.65-.19,1.07-.19.36,0,.66.05.91.15.25.1.45.24.62.42.16.18.29.39.38.63.09.24.15.51.2.78h-.23c-.08-.59-.28-1.03-.59-1.34-.31-.3-.74-.45-1.3-.45-.36,0-.67.05-.93.16-.26.11-.47.29-.64.53-.17.25-.3.58-.38.98-.08.4-.12.9-.12,1.49s.04,1.08.13,1.48c.08.4.21.73.39.98.17.25.38.43.65.54.26.11.58.17.94.17.28,0,.54-.04.77-.12.23-.08.44-.2.61-.37.17-.17.3-.39.39-.65.09-.27.14-.59.14-.97v-.99h-2.02v-.21h2.23v1.11c0,.78-.17,1.38-.52,1.79-.35.42-.88.62-1.59.62-.43,0-.79-.06-1.09-.19-.29-.13-.53-.33-.72-.6-.18-.27-.32-.62-.4-1.05-.08-.43-.12-.93-.12-1.52Z"/>
  <path class="cls-1" d="M111.25,55.34c0,.39-.07.72-.2.98-.13.26-.3.47-.51.62-.21.15-.45.26-.71.32-.26.06-.52.09-.77.09s-.51-.03-.77-.09c-.26-.06-.5-.17-.71-.32-.21-.15-.38-.36-.52-.62-.13-.26-.2-.59-.2-.98v-2.7c0-.39.07-.72.2-.98.13-.26.31-.47.52-.62.21-.15.45-.26.71-.32.26-.06.52-.09.77-.09s.51.03.77.09c.26.06.5.17.71.32.21.15.37.36.51.62.13.26.2.59.2.98v2.7ZM107.08,55.31c0,.39.07.71.2.95.13.24.3.43.5.56.19.13.41.22.64.26.23.04.45.06.65.06s.41-.02.65-.06c.23-.04.45-.13.65-.26.19-.13.36-.32.48-.56.13-.24.19-.56.19-.95v-2.65c0-.39-.06-.71-.19-.95-.13-.24-.29-.43-.48-.56-.2-.13-.42-.22-.65-.26-.23-.04-.45-.06-.65-.06s-.42.02-.65.06c-.23.04-.44.13-.64.26-.2.13-.37.32-.5.56-.13.24-.2.56-.2.95v2.65Z"/>
  <path class="cls-1" d="M114.55,50.7c.51,0,.92.1,1.23.29.31.19.54.45.71.76.16.32.26.67.31,1.06.05.39.07.78.07,1.17,0,.26,0,.52-.03.78-.02.27-.06.52-.11.76-.06.25-.14.48-.25.69-.11.21-.25.4-.41.56-.17.16-.38.28-.63.37-.25.09-.54.13-.88.13h-1.94v-6.58h1.94ZM114.61,57.07c.4,0,.73-.08,1-.23.27-.15.48-.36.63-.63.15-.27.26-.59.32-.97.06-.38.09-.8.09-1.26s-.03-.87-.1-1.25c-.07-.38-.18-.7-.35-.97-.16-.27-.38-.48-.65-.63-.27-.15-.61-.22-1.02-.22h-1.7v6.17h1.78Z"/>
  <path class="cls-1" d="M118.26,53.96v3.11h3.93v.21h-4.14v-6.58h4.01v.21h-3.79v2.85h3.67v.2h-3.67Z"/>
  <path class="cls-1" d="M127.63,55.34c0,.39-.07.72-.2.98-.13.26-.3.47-.51.62-.21.15-.45.26-.71.32-.26.06-.52.09-.77.09s-.51-.03-.77-.09c-.26-.06-.5-.17-.71-.32-.21-.15-.38-.36-.52-.62-.13-.26-.2-.59-.2-.98v-2.7c0-.39.07-.72.2-.98.13-.26.31-.47.52-.62.21-.15.45-.26.71-.32.26-.06.52-.09.77-.09s.51.03.77.09c.26.06.5.17.71.32.21.15.37.36.51.62.13.26.2.59.2.98v2.7ZM123.47,55.31c0,.39.07.71.2.95.13.24.3.43.5.56.19.13.41.22.64.26.23.04.45.06.65.06s.42-.02.65-.06c.23-.04.45-.13.65-.26.19-.13.36-.32.48-.56.13-.24.19-.56.19-.95v-2.65c0-.39-.06-.71-.19-.95-.13-.24-.29-.43-.48-.56-.2-.13-.42-.22-.65-.26-.23-.04-.45-.06-.65-.06s-.42.02-.65.06c-.23.04-.44.13-.64.26-.2.13-.37.32-.5.56-.13.24-.2.56-.2.95v2.65Z"/>
  <path class="cls-1" d="M129.21,54.23l3.47-3.53h.28l-2.74,2.81,3.01,3.77h-.26l-2.89-3.62-.86.88v2.74h-.21v-6.58h.21v3.53Z"/>
  <path class="cls-1" d="M136.68,57.28v-6.58h4.01v.21h-3.79v2.85h3.67v.2h-3.67v3.31h-.21Z"/>
  <path class="cls-1" d="M142.18,57.28h-.21v-6.58h.21v6.58Z"/>
  <path class="cls-1" d="M145.4,50.7c.4,0,.73.06.98.17.25.12.45.27.58.45.14.19.23.4.28.64.05.24.08.48.08.72,0,.22-.02.43-.06.64-.04.21-.11.4-.22.58-.1.18-.25.33-.44.46-.19.13-.43.22-.72.26l1.7,2.65h-.21l-1.7-2.62s-.09,0-.14,0h-1.72v2.61h-.21v-6.58h1.79ZM145.37,54.46c.37,0,.67-.05.89-.15.23-.1.41-.23.53-.4.12-.16.2-.35.24-.56s.06-.43.06-.65-.02-.44-.06-.65c-.04-.21-.12-.41-.24-.58-.13-.17-.3-.3-.53-.41-.23-.1-.53-.15-.89-.15h-1.55v3.56h1.55Z"/>
  <path class="cls-1" d="M148.75,55.53c0,.23.04.45.11.65.07.2.19.37.34.52.15.14.34.25.58.33.23.08.5.12.82.12.59,0,1.03-.12,1.34-.37.3-.25.45-.6.45-1.06,0-.23-.04-.42-.13-.58-.09-.16-.2-.3-.34-.41-.14-.11-.3-.21-.48-.3-.18-.09-.37-.17-.56-.25l-.73-.32c-.22-.1-.43-.2-.61-.31-.19-.11-.35-.23-.49-.37-.14-.13-.25-.28-.33-.45-.08-.17-.11-.36-.11-.58,0-.49.16-.87.49-1.14.33-.26.79-.39,1.39-.39s1.06.13,1.4.4c.34.27.5.66.5,1.18v.1h-.21v-.09c0-.41-.14-.74-.43-1-.28-.26-.7-.39-1.25-.39s-.96.11-1.25.32c-.29.22-.43.55-.43,1,0,.22.05.41.14.58.09.16.22.31.37.43.16.13.34.24.54.33.2.1.41.19.63.29l.74.32c.18.07.36.16.52.25.17.09.31.2.44.32.12.13.22.27.29.44.07.17.11.36.11.59,0,.54-.17.95-.5,1.24-.34.28-.84.43-1.51.43-.38,0-.7-.05-.96-.15-.26-.1-.47-.24-.63-.41-.16-.17-.28-.37-.35-.6-.07-.22-.11-.45-.11-.69v-.13h.21v.14Z"/>
  <path class="cls-1" d="M153.36,50.91v-.21h4.43v.21h-2.13v6.37h-.21v-6.37h-2.09Z"/>
  <path class="cls-1" d="M162.99,50.7c.51,0,.92.1,1.23.29.31.19.54.45.71.76.16.32.26.67.31,1.06.05.39.07.78.07,1.17,0,.26,0,.52-.03.78-.02.27-.06.52-.11.76-.06.25-.14.48-.25.69-.11.21-.25.4-.41.56-.17.16-.38.28-.63.37-.25.09-.54.13-.88.13h-1.94v-6.58h1.94ZM163.04,57.07c.4,0,.73-.08,1-.23.27-.15.48-.36.63-.63.15-.27.26-.59.32-.97.06-.38.09-.8.09-1.26s-.03-.87-.1-1.25c-.07-.38-.18-.7-.35-.97-.16-.27-.38-.48-.65-.63s-.61-.22-1.02-.22h-1.7v6.17h1.78Z"/>
  <path class="cls-1" d="M166.7,53.96v3.11h3.93v.21h-4.14v-6.58h4.01v.21h-3.79v2.85h3.67v.2h-3.67Z"/>
  <path class="cls-1" d="M176.01,57.28h-.25l-3.86-6.29v6.29h-.21v-6.58h.26l3.86,6.24v-6.24h.21v6.58Z"/>
  <path class="cls-1" d="M176.91,50.91v-.21h4.43v.21h-2.13v6.37h-.21v-6.37h-2.09Z"/>
  <path class="cls-1" d="M185.26,55.45h-3.04l-.61,1.82h-.21l2.22-6.58h.24l2.22,6.58h-.21l-.62-1.82ZM182.29,55.25h2.89l-1.45-4.29-1.44,4.29Z"/>
  <path class="cls-1" d="M187.21,50.7v6.37h3.56v.21h-3.77v-6.58h.21Z"/>
  <path class="cls-1" d="M194.21,53.99c0-.59.04-1.1.13-1.53s.22-.78.4-1.05c.18-.27.42-.47.71-.6.29-.13.65-.19,1.07-.19.36,0,.66.05.91.15.25.1.45.24.62.42.16.18.29.39.38.63.09.24.15.51.2.78h-.23c-.08-.59-.28-1.03-.59-1.34-.31-.3-.74-.45-1.3-.45-.36,0-.67.05-.93.16-.26.11-.47.29-.64.53-.17.25-.3.58-.38.98-.08.4-.12.9-.12,1.49s.04,1.08.13,1.48c.08.4.21.73.39.98.17.25.38.43.65.54.26.11.58.17.94.17.57,0,1.01-.16,1.33-.47.32-.32.52-.82.59-1.51h.2c-.03.31-.08.6-.17.86-.09.27-.22.5-.39.69-.17.19-.38.35-.63.46-.25.11-.56.17-.92.17-.43,0-.79-.06-1.09-.19-.29-.13-.53-.33-.72-.6-.18-.27-.32-.62-.4-1.05-.08-.43-.12-.93-.12-1.52Z"/>
  <path class="cls-1" d="M199.99,50.7v6.37h3.56v.21h-3.77v-6.58h.21Z"/>
  <path class="cls-1" d="M204.96,57.28h-.21v-6.58h.21v6.58Z"/>
  <path class="cls-1" d="M210.7,57.28h-.25l-3.86-6.29v6.29h-.21v-6.58h.26l3.86,6.24v-6.24h.21v6.58Z"/>
  <path class="cls-1" d="M212.36,57.28h-.21v-6.58h.21v6.58Z"/>
  <path class="cls-1" d="M213.75,53.99c0-.59.04-1.1.13-1.53s.22-.78.4-1.05c.18-.27.42-.47.71-.6.29-.13.65-.19,1.07-.19.36,0,.66.05.91.15.25.1.45.24.62.42.16.18.29.39.38.63.09.24.15.51.2.78h-.23c-.08-.59-.28-1.03-.59-1.34-.31-.3-.74-.45-1.3-.45-.36,0-.67.05-.93.16-.26.11-.47.29-.64.53-.17.25-.3.58-.38.98-.08.4-.12.9-.12,1.49s.04,1.08.13,1.48c.08.4.21.73.39.98.17.25.38.43.65.54.26.11.58.17.94.17.57,0,1.01-.16,1.33-.47.32-.32.52-.82.59-1.51h.21c-.03.31-.08.6-.17.86-.09.27-.22.5-.39.69-.17.19-.38.35-.63.46-.25.11-.56.17-.92.17-.43,0-.79-.06-1.09-.19-.29-.13-.53-.33-.72-.6-.18-.27-.32-.62-.4-1.05-.08-.43-.12-.93-.12-1.52Z"/>
</svg>